<?xml version="1.0" standalone="no"?>
<!DOCTYPE svg PUBLIC "-//W3C//DTD SVG 1.1//EN" "http://www.w3.org/Graphics/SVG/1.1/DTD/svg11.dtd" >
<svg>
<metadata>
Created by FontForge 20090914 at Sun Mar  4 18:14:42 2018
 By www-data
Copyright (c) 2011-12, vernon adams (vern@newtypography.co.uk), with Reserved Font Names 'Antonio'
</metadata>
<defs>
<font id="Antonio-Light" horiz-adv-x="817" >
  <font-face 
    font-family="Antonio"
    font-weight="300"
    font-stretch="ultra-condensed"
    units-per-em="2048"
    panose-1="2 0 3 3 0 0 0 0 0 0"
    ascent="1638"
    descent="-410"
    x-height="1500"
    cap-height="1760"
    bbox="-151 -612 2800 2342"
    underline-thickness="0"
    underline-position="0"
    unicode-range="U+0020-U+FB04"
  />
<missing-glyph horiz-adv-x="748" 
d="M68 0v1365h544v-1365h-544zM136 68h408v1229h-408v-1229z" />
    <glyph glyph-name=".notdef" horiz-adv-x="748" 
d="M68 0v1365h544v-1365h-544zM136 68h408v1229h-408v-1229z" />
    <glyph glyph-name="space" unicode=" " horiz-adv-x="337" 
 />
    <glyph glyph-name="exclam" unicode="!" horiz-adv-x="540" 
d="M175 202h186v-202h-186v202zM176 1760h188l-65 -1392h-60z" />
    <glyph glyph-name="quotedbl" unicode="&#x22;" horiz-adv-x="944" 
d="M267 1761h156l-64 -636h-34zM535 1761h157l-65 -636h-34z" />
    <glyph glyph-name="numbersign" unicode="#" horiz-adv-x="1288" 
d="M713 765l53 270h-219l-54 -270h220zM909 1761h130l-123 -623h163v-97h-183l-54 -274h194v-97h-213l-133 -670h-129l130 670h-216l-131 -670h-129l132 670h-166v97h186l54 274h-197v97h216l123 623h130l-125 -623h216z" />
    <glyph glyph-name="dollar" unicode="$" horiz-adv-x="860" 
d="M120 1178c0 110.667 26.6689 194.669 80.002 252.002c34 36.667 76.333 61.667 127 75v255h107v-244c86 -4 150 -42 192 -114s63 -194.333 63 -367v-80h-155v107c0 106 -9.16699 185.333 -27.5 238s-50.333 79 -96 79s-80.334 -15.167 -104.001 -45.5
s-35.5 -84.833 -35.5 -163.5c0 -116.667 54.333 -227.667 163 -333l77 -75c132.667 -132.667 199 -279 199 -439c0 -106.667 -21.833 -189.167 -65.5 -247.5s-106.834 -90.5 -189.501 -96.5v-250h-107v257c-61.333 13.333 -110 44.666 -146 93.999
c-48.667 67.333 -73 173.666 -73 318.999v6v129h153v-103c0 -211.333 46 -317 138 -317c49.333 0 84.333 16 105 48s31 88.667 31 170c0 120.667 -52 234 -156 340l-79 80c-134 136 -201 278 -201 426z" />
    <glyph glyph-name="percent" unicode="%" horiz-adv-x="2148" 
d="M1821 835c0 82 -9.66699 137.5 -29 166.5s-55.5 43.5 -108.5 43.5s-89 -14.5 -108 -43.5s-28.5 -84.5 -28.5 -166.5v-500c0 -85.333 9.5 -143 28.5 -173s55.167 -45 108.5 -45s89.5 15 108.5 45s28.5 87.667 28.5 173v500zM1399 763
c0 195.333 29.6641 317.001 88.9971 365.001c43.333 34.667 108.833 52 196.5 52s152.834 -17.333 195.501 -52c58.667 -48.667 88 -170.334 88 -365.001v-352c0 -87.333 -4.16699 -157.833 -12.5 -211.5s-23.666 -97.334 -45.999 -131.001s-51.166 -56.834 -86.499 -69.501
s-81.833 -19 -139.5 -19s-104 6.33301 -139 19s-63.833 35.834 -86.5 69.501s-38.167 77.334 -46.5 131.001s-12.5 124.167 -12.5 211.5v352zM179.997 1364c0 196 29.3301 318 87.9971 366c42.667 34.667 107.834 52 195.501 52s153.167 -17.333 196.5 -52
c59.333 -48 89 -170 89 -366v-352c0 -87.333 -4.16699 -157.833 -12.5 -211.5s-23.833 -97.334 -46.5 -131.001s-51.5 -56.834 -86.5 -69.501s-81.333 -19 -139 -19s-104.167 6.33301 -139.5 19s-64.166 35.834 -86.499 69.501s-37.666 77.334 -45.999 131.001
s-12.5 124.167 -12.5 211.5v352zM600.994 1436c0 82 -9.5 137.5 -28.5 166.5s-55 43.5 -108 43.5s-89.167 -14.5 -108.5 -43.5s-29 -84.5 -29 -166.5v-500c0 -85.333 9.5 -143 28.5 -173s55.167 -45 108.5 -45s89.5 15 108.5 45s28.5 87.667 28.5 173v500zM1371.99 1760h140
l-722 -1760h-148z" />
    <glyph glyph-name="ampersand" unicode="&#x26;" horiz-adv-x="915" 
d="M321 1482l1.00098 -41c0 -72 37.333 -200 112 -384c51.333 64 90.833 126.833 118.5 188.5s41.5 130.5 41.5 206.5s-8.33301 130.167 -25 162.5s-56 48.5 -118 48.5c-80.667 0 -123.334 -46.333 -128.001 -139c-0.666992 -14.667 -1.16699 -24.167 -1.5 -28.5
s-0.5 -8.83301 -0.5 -13.5zM751.001 365c94.667 -198.667 151.998 -320.332 171.998 -364.999h-124c-17.333 41.333 -52.666 116.666 -105.999 225.999c-33.333 -75.333 -67.666 -129.333 -102.999 -162s-70.5 -54.834 -105.5 -66.501s-75.167 -17.5 -120.5 -17.5
c-90.667 0 -164 31.333 -220 94s-84 148.667 -84 258s11.167 190.333 33.5 243s43.5 99 63.5 139s82 118.667 186 236c-111.333 249.333 -167 413.666 -167 492.999c0 226 95.333 339 286 339c111.333 0 184.5 -29.333 219.5 -88s52.5 -140.667 52.5 -246
s-23.167 -197.166 -69.5 -275.499s-104.5 -160.833 -174.5 -247.5c47.333 -109.333 111 -246.666 191 -411.999c54 113.333 113.333 208 178 284l69 -107c-60 -74.667 -119 -183 -177 -325zM618.999 376.002l-215 441.002c-56 -74.667 -102 -150.334 -138 -227.001
s-54.333 -164.334 -55 -263.001c0 -148 57 -222 171 -222c62.667 0 115.334 36.667 158.001 110c21.333 38 47.666 91.667 78.999 161z" />
    <glyph glyph-name="quotesingle" unicode="'" horiz-adv-x="404" 
d="M124 1761h158l-65 -636h-33z" />
    <glyph glyph-name="parenleft" unicode="(" horiz-adv-x="519" 
d="M401 14l19.998 -0.00195312v-113c-82.667 0 -139.167 7.16699 -169.5 21.5s-51.666 30.333 -63.999 48s-24.5 47.834 -36.5 90.501s-18 126.667 -18 252v1075c0 125.333 6 209.333 18 252s24.167 72.834 36.5 90.501s33.666 33.667 63.999 48s86.833 21.5 169.5 21.5
v-113h-9c-51.333 0 -80.166 -3.66699 -86.499 -11s-12.833 -16 -19.5 -26c-16 -24.667 -24 -110.667 -24 -258v-1083c0 -147.333 8 -233.333 24 -258c6.66699 -10 13.334 -18.667 20.001 -26s31.667 -11 75 -11z" />
    <glyph glyph-name="parenright" unicode=")" horiz-adv-x="519" 
d="M98 1687v113.002c82.667 0 139.167 -7.16699 169.5 -21.5s51.666 -30.333 63.999 -48s24.5 -47.834 36.5 -90.501s18 -126.667 18 -252v-1075c0 -125.333 -6 -209.333 -18 -252s-24.167 -72.834 -36.5 -90.501s-33.666 -33.667 -63.999 -48s-86.833 -21.5 -169.5 -21.5
v113h9c51.333 0 80.333 3.66699 87 11s13.334 16 20.001 26c15.333 24 23 104.333 23 241v17v1083v17c0 136.667 -7.66699 217 -23 241c-6.66699 10 -13.334 18.667 -20.001 26s-29 11 -67 11h-29z" />
    <glyph glyph-name="asterisk" unicode="*" horiz-adv-x="960" 
d="M414 1777h133l-20 -268l224 172l68 -116l-250 -132l250 -140l-68 -117l-224 177l20 -272h-133l24 276l-222 -172l-67 118l242 130l-250 122l68 116l229 -163z" />
    <glyph glyph-name="plus" unicode="+" horiz-adv-x="808" 
d="M342 1208h118v-260h234v-106h-234v-266h-118v266h-230v106h230v260z" />
    <glyph glyph-name="comma" unicode="," horiz-adv-x="437" 
d="M151 173h200v-164l-104 -359h-77l96 350h-115v173z" />
    <glyph glyph-name="hyphen" unicode="-" horiz-adv-x="696" 
d="M88 958h428v-100h-428v100z" />
    <glyph glyph-name="period" unicode="." horiz-adv-x="532" 
d="M174 164h154v-164h-154v164z" />
    <glyph glyph-name="slash" unicode="/" horiz-adv-x="743" 
d="M538 1768h135l-451 -1768h-134z" />
    <glyph glyph-name="zero" unicode="0" horiz-adv-x="746" 
d="M540 1327c0 115.333 -13.333 199.167 -40 251.5s-69.334 78.5 -128.001 78.5s-100.667 -26 -126 -78s-38 -135.667 -38 -251v-858c0 -129.333 12.667 -223 38 -281s67.333 -87 126 -87s101.334 29 128.001 87s40 151.667 40 281v857zM60 1316
c0 162.667 24.666 280.834 73.999 354.501s129.333 110.5 240 110.5s190.834 -36.833 240.501 -110.5s74.5 -191.834 74.5 -354.501v-841c0 -173.333 -25.167 -299.333 -75.5 -378s-130.5 -118 -240.5 -118s-189.667 39.333 -239 118s-74 204.667 -74 378v841z" />
    <glyph glyph-name="one" unicode="1" horiz-adv-x="569" 
d="M314 1761h89v-1761h-149v1534c-22.667 -27.333 -54.667 -48.5 -96 -63.5s-82 -22.5 -122 -22.5v93c56.667 8 110.5 31 161.5 69s89.833 88.333 116.5 151z" />
    <glyph glyph-name="two" unicode="2" horiz-adv-x="746" 
d="M118 1303c0 167.333 23 288.665 69 363.998s116.5 113 211.5 113s162.333 -37.167 202 -111.5s59.5 -197.166 59.5 -368.499s-38.667 -342.666 -116 -513.999c-33.333 -74 -68 -145.333 -104 -214c-90.667 -178 -147 -328.333 -169 -451h365v-121h-515v92v2
c0 80 47 217.667 141 413l118 252c94.667 208.667 142 382.5 142 521.5s-10 236.167 -30 291.5s-52.167 83 -96.5 83s-76.5 -28.167 -96.5 -84.5s-30 -146.833 -30 -271.5v-234h-151v238z" />
    <glyph glyph-name="three" unicode="3" horiz-adv-x="746" 
d="M44 1321c0 156 22.9971 271.501 68.9971 346.501s123.833 112.5 233.5 112.5s189.5 -38 239.5 -114s75 -191 75 -345c0 -227.333 -58.333 -363 -175 -407c59.333 -26.667 103.833 -81.334 133.5 -164.001s44.5 -176.667 44.5 -282c0 -166.667 -25.667 -289.667 -77 -369
s-132.166 -119 -242.499 -119s-189 39.833 -236 119.5s-70.5 204.5 -70.5 374.5v43h152v-43c0 -149.333 9.5 -248.333 28.5 -297s61.167 -73 126.5 -73s109.833 26.5 133.5 79.5s35.5 139 35.5 258s-7.66699 206.5 -23 262.5s-38.166 95 -68.499 117s-71.166 33 -122.499 33
h-39v128h37c60.667 0 103.5 8.33301 128.5 25s42.5 37.667 52.5 63c21.333 53.333 32 126 32 218c0 160.667 -15.667 262 -47 304s-67.5 63 -108.5 63s-71.5 -8.33301 -91.5 -25c-46 -38.667 -69 -142.667 -69 -312v-31h-151v34z" />
    <glyph glyph-name="four" unicode="4" horiz-adv-x="746" 
d="M449 468v960l-263 -960h263zM445 1761h144v-1293h154v-116h-154v-353h-140v353h-398v97z" />
    <glyph glyph-name="five" unicode="5" horiz-adv-x="746" 
d="M135 1760l460.001 0.000976562v-136h-325v-478c10 19.333 27.833 36.666 53.5 51.999s52 23 79 23s52.833 -3.66699 77.5 -11c52 -16.667 90.5 -58.667 115.5 -126s37.5 -172.666 37.5 -315.999v-291c0 -154 -8.33301 -260 -25 -318s-35.334 -97.667 -56.001 -119
c-38.667 -40 -97 -60 -175 -60c-177.333 0 -266 103.667 -266 311v168h152v-196c0 -107.333 38.167 -161 114.5 -161s114.5 57.333 114.5 172v595c0 77.333 -8.5 133.666 -25.5 168.999s-44.5 53 -82.5 53s-68.333 -17.167 -91 -51.5s-34 -84.833 -34 -151.5l-124 22v850z
" />
    <glyph glyph-name="six" unicode="6" horiz-adv-x="746" 
d="M544 547c0 166.667 -9.33203 280.166 -27.999 340.499s-54.5 90.5 -107.5 90.5s-95 -8.5 -126 -25.5s-47.5 -25.833 -49.5 -26.5v-422c0 -161.333 8.16699 -263.666 24.5 -306.999s39.833 -70.333 70.5 -81c17.333 -6 42.666 -9 75.999 -9s60.5 9.33301 81.5 28
s36 51.667 45 99s13.5 118 13.5 212v101zM233.001 1013c44 59.333 103.332 89.001 177.999 89.001c104 0 177.167 -39.333 219.5 -118s63.5 -220.334 63.5 -425.001v-117c0 -153.333 -21 -268.666 -63 -345.999s-120.333 -116 -235 -116s-195.167 38.833 -241.5 116.5
s-69.5 214.167 -69.5 409.5v758c0 148 8.83301 251.667 26.5 311s37.834 101.666 60.501 126.999c47.333 52 117.5 78 210.5 78s162 -27.167 207 -81.5s68.5 -192.5 70.5 -414.5v-32h-152v31c0 157.333 -6.5 255.5 -19.5 294.5s-31.833 62.5 -56.5 70.5
c-13.333 4 -32 6.33301 -56 7c-73.333 0 -116.333 -41.333 -129 -124c-9.33301 -57.333 -14 -149.333 -14 -276v-242z" />
    <glyph glyph-name="seven" unicode="7" horiz-adv-x="746" 
d="M56 1761l632.999 -0.000976562v-107c0 0.666992 -1 1 -3 1s-18.5 -49.167 -49.5 -147.5s-62.167 -209.166 -93.5 -332.499c-103.333 -410 -167 -801.333 -191 -1174h-155c32.667 412 98.667 800 198 1164c54.667 190 102.334 332.333 143.001 427l21 52h-503v117z" />
    <glyph glyph-name="eight" unicode="8" horiz-adv-x="746" 
d="M494 1070c23.333 58.667 35 146.832 35 264.499s-11.667 200.167 -35 247.5s-60.5 71 -111.5 71s-87.833 -24.167 -110.5 -72.5s-34 -131.166 -34 -248.499s11.333 -205 34 -263s59.5 -87 110.5 -87s88.167 29.333 111.5 88zM380 868.998
c-106.667 0 -159.998 -135 -159.998 -405c0 -137.333 13.167 -231.833 39.5 -283.5s66.666 -77.5 120.999 -77.5s93.333 26.667 117 80s35.5 147 35.5 281s-11.833 235 -35.5 303s-62.834 102 -117.501 102zM72.002 402.998l-1 31.001c0 136 12.167 243 36.5 321
s63.833 135.333 118.5 172c-48 34 -82.833 84.167 -104.5 150.5s-32.5 165.666 -32.5 297.999s23.5 232.833 70.5 301.5s122 103 225 103s177.667 -34.333 224 -103s69.5 -168.5 69.5 -299.5s-11.5 -229.333 -34.5 -295s-60.167 -116.167 -111.5 -151.5
c52.667 -38 90.834 -96.333 114.501 -175s35.5 -186 35.5 -322v-21c-3.33301 -151.333 -28.833 -261.333 -76.5 -330s-122.834 -103 -225.501 -103s-178.5 33.5 -227.5 100.5s-75.833 174.5 -80.5 322.5z" />
    <glyph glyph-name="nine" unicode="9" horiz-adv-x="746" 
d="M522 1255c0 152.667 -7.5 252.33 -22.5 298.997s-36.167 76 -63.5 88c-16 6.66699 -34.667 10.334 -56 11.001c-45.333 0 -78 -16.167 -98 -48.5s-32.5 -76.166 -37.5 -131.499s-7.5 -127.333 -7.5 -216v-49c0 -177.333 7.66699 -289.666 23 -336.999s38 -76.333 68 -87
c16 -5.33301 42.333 -8 79 -8s75 9 115 27v452zM87 1252c0 144 4.83008 235.833 14.4971 275.5s20.5 76.834 32.5 111.501s38.333 66.834 79 96.501s100.834 44.5 180.501 44.5s142.834 -26 189.501 -78s74.334 -138.333 83.001 -259c4 -54 6 -117 6 -189v-712
c0 -184.667 -9.83301 -310.334 -29.5 -377.001s-49 -114.167 -88 -142.5s-86 -42.5 -141 -42.5s-97.833 6.66699 -128.5 20c-60.667 26 -102.167 79.167 -124.5 159.5s-33.5 196.5 -33.5 348.5h143v-25c2 -169.333 9.83301 -272.333 23.5 -309s34.834 -58.667 63.501 -66
c13.333 -3.33301 30.666 -5 51.999 -5c47.333 0 78 18.333 92 55s21 107.667 21 213v341c-34 -33.333 -79.5 -50 -136.5 -50s-102.5 8 -136.5 24c-66 32 -109.5 91.667 -130.5 179s-31.5 207.666 -31.5 360.999v26z" />
    <glyph glyph-name="colon" unicode=":" horiz-adv-x="555" 
d="M179 1279h183v-231h-183v231zM179 543h183v-231h-183v231z" />
    <glyph glyph-name="semicolon" unicode=";" horiz-adv-x="561" 
d="M181 523h200v-164l-104 -359h-77l96 350h-115v173zM179 1279h183v-231h-183v231z" />
    <glyph glyph-name="less" unicode="&#x3c;" horiz-adv-x="730" 
d="M63 823l579 396v-168l-468 -293l468 -310v-160l-579 400v135z" />
    <glyph glyph-name="equal" unicode="=" horiz-adv-x="722" 
d="M104 733h514v-132h-514v132zM104 1025h514v-133h-514v133z" />
    <glyph glyph-name="greater" unicode="&#x3e;" horiz-adv-x="730" 
d="M84 1059v160l579 -401v-134l-579 -396v168l468 293z" />
    <glyph glyph-name="question" unicode="?" horiz-adv-x="708" 
d="M227 299h126v-298h-126v298zM158 1365l-1 111v7c0 88 11.667 153 35 195c39.333 69.333 98 104 176 104s127.833 -8.83301 149.5 -26.5s38.167 -32.167 49.5 -43.5c37.333 -37.333 56 -147 56 -329v-69c0 -177.333 -19.5 -308.5 -58.5 -393.5
s-109.5 -141.833 -211.5 -170.5v-256h-125v316c56.667 21.333 108.667 51.333 156 90c24 20 47.333 65 70 135c13.333 40 20 152 20 336v8c0 118 -3.83301 193.5 -11.5 226.5s-31 49.5 -70 49.5s-62.833 -16.667 -71.5 -50s-13 -110 -13 -230v-215h-150v205z" />
    <glyph glyph-name="at" unicode="@" horiz-adv-x="1325" 
d="M847 1062c-62.667 88.667 -127.332 133 -193.999 133c-50.667 0 -91.834 -31 -123.501 -93s-47.5 -156.5 -47.5 -283.5s15.667 -216.333 47 -268s75 -77.5 131 -77.5s101.167 26.833 135.5 80.5s51.5 122.167 51.5 205.5v303zM1029 494
c62 0 92.999 124.001 92.999 372.001c0 166.667 -4 282.667 -12 348c-38 298.667 -166 448 -384 448c-159.333 0 -278.333 -50.667 -357 -152c-101.333 -130.667 -152 -352.667 -152 -666c0 -374.667 64 -612 192 -712c62 -48 135 -72 219 -72s157.667 9.33301 221 28
l17 -112c-93.333 -19.333 -166 -29 -218 -29c-371.333 0 -557 296.333 -557 889v5c0 358.667 66.333 614.334 199 767.001c99.333 115.333 241 173 425 173h3c348.667 0 523 -290.333 523 -871c0 -252.667 -38.333 -416.334 -115 -491.001c-28 -27.333 -60.5 -41 -97.5 -41
s-69.833 22 -98.5 66s-47.334 91 -56.001 141c-11.333 -64.667 -36.5 -118.167 -75.5 -160.5s-80.167 -63.5 -123.5 -63.5c-82.667 0 -153.334 33.833 -212.001 101.5s-88 178.5 -88 332.5s21.333 273.833 64 359.5s104.334 128.5 185.001 128.5
c56 0 104.333 -14.833 145 -44.5s69.334 -63.834 86.001 -102.501l30 122h72v-569c0 -66 5.33301 -115 16 -147s29.334 -48 56.001 -48z" />
    <glyph glyph-name="A" unicode="A" horiz-adv-x="860" 
d="M339 1760h152l313 -1760h-144l-58 357h-352l-53 -357h-141zM582 480l-162 996h-2l-149 -996h313z" />
    <glyph glyph-name="B" unicode="B" horiz-adv-x="885" 
d="M421 1629l-111.999 0.000976562v-625h134c46 0 76.833 5 92.5 15s26.5 21.667 32.5 35c18.667 42 28 124.5 28 247.5s-6.16699 201.167 -18.5 234.5s-28.833 57.166 -49.5 71.499s-56.334 21.5 -107.001 21.5zM470.001 884.001h-161.002v-756h158
c48.667 0 84.334 16 107.001 48s36 82 40 150s6 126 6 174v83c0 98.667 -10.167 173.5 -30.5 224.5s-60.166 76.5 -119.499 76.5zM159.999 1760l256.999 -0.000976562c105.333 0 181.833 -18 229.5 -54s77.5 -99.333 89.5 -190c5.33301 -40 8.33301 -90 9 -150v-23
c0 -114 -7.33301 -201 -22 -261s-45 -105 -91 -135c52 -25.333 87.833 -75.166 107.5 -149.499s29.5 -167.5 29.5 -279.5v-31c-2.66699 -171.333 -24.667 -295.333 -66 -372s-121.666 -115 -240.999 -115h-302v1760z" />
    <glyph glyph-name="C" unicode="C" horiz-adv-x="865" 
d="M134 1251c0 213.333 26.832 355.168 80.499 425.501s130 105.5 229 105.5s169.833 -24.333 212.5 -73c30.667 -35.333 50.667 -70.333 60 -105c22 -81.333 33 -203 33 -365v-152h-151v170c0 148 -8 247 -24 297s-38.667 81.667 -68 95c-16 7.33301 -34.333 11 -55 11
c-63.333 0 -107.166 -32.333 -131.499 -97s-36.5 -166.334 -36.5 -305.001v-706c0 -170 10.667 -287.5 32 -352.5s64 -97.5 128 -97.5s105.833 32.333 125.5 97s29.5 182 29.5 352v141h150v-140c0 -154 -8.66699 -264.833 -26 -332.5s-37 -116.167 -59 -145.5
c-46.667 -62.667 -119 -94 -217 -94s-171.667 31 -221 93c-60.667 76 -91 235 -91 477v701z" />
    <glyph glyph-name="D" unicode="D" horiz-adv-x="903" 
d="M621 1274c0 128 -14.667 220.333 -44 277s-75.333 85 -138 85h-132v-1508h123c82.667 0 136.667 37.667 162 113c20 62 30 154.667 30 278zM159 1760l271 -0.000976562c158 0 258.667 -64.667 302 -194c25.333 -75.333 38 -178 38 -308l1 -754
c0 -183.333 -26 -313.166 -78 -389.499s-141.667 -114.5 -269 -114.5h-265v1760z" />
    <glyph glyph-name="E" unicode="E" horiz-adv-x="709" 
d="M160 1760h465v-116h-316v-688h297v-121h-297v-717h313v-118h-462v1760z" />
    <glyph glyph-name="F" unicode="F" horiz-adv-x="690" 
d="M160 1760h462v-116h-314v-639h297v-119h-297v-886h-148v1760z" />
    <glyph glyph-name="G" unicode="G" horiz-adv-x="889" 
d="M134 1245c0 182 17.999 308.669 53.999 380.002c52 104.667 137.667 157 257 157c76.667 0 135.334 -15 176.001 -45s67 -62.667 79 -98c22.667 -66 36.167 -128.833 40.5 -188.5s6.5 -127.5 6.5 -203.5v-147h-152v272c0 100 -10 173 -30 219s-59.833 69 -119.5 69
s-101.667 -29.833 -126 -89.5s-36.5 -162.834 -36.5 -309.501v-718c0 -166 10.667 -281 32 -345s63.333 -96 126 -96s104.667 32.333 126 97s32 178.667 32 342v222h-151v127h299v-890h-98l-16 102c-24.667 -41.333 -53.667 -72 -87 -92s-76.333 -30 -129 -30
c-98.667 0 -170.5 43.167 -215.5 129.5s-67.5 227.166 -67.5 422.499v713z" />
    <glyph glyph-name="H" unicode="H" horiz-adv-x="940" 
d="M631 1760h149v-1760h-149v886h-322v-886h-149v1760h149v-762h322v762z" />
    <glyph glyph-name="I" unicode="I" horiz-adv-x="504" 
d="M178 1760h149v-1760h-149v1760z" />
    <glyph glyph-name="J" unicode="J" horiz-adv-x="798" 
d="M497 1760h149.002v-1340c0 -153.333 -20.833 -265.166 -62.5 -335.499s-112.834 -105.5 -213.501 -105.5s-171.834 32.5 -213.501 97.5s-62.5 169.167 -62.5 312.5v151h151v-209c0 -92.667 9.66699 -151.834 29 -177.501s36.5 -40.5 51.5 -44.5s31.5 -6 49.5 -6
c70.667 0 109.667 46.333 117 139c3.33301 37.333 5 73 5 107v1411z" />
    <glyph glyph-name="K" unicode="K" horiz-adv-x="827" 
d="M664 1760h144l-362 -869l385 -891h-154l-366 860v-860h-151v1760h149v-867z" />
    <glyph glyph-name="L" unicode="L" horiz-adv-x="639" 
d="M160 1760h149v-1642h312v-118h-461v1760z" />
    <glyph glyph-name="M" unicode="M" horiz-adv-x="1198" 
d="M871 1760h167v-1760h-135v754l23 709l-251 -1425h-142l-260 1425l23 -709v-754h-136v1760h167l277 -1478z" />
    <glyph glyph-name="N" unicode="N" horiz-adv-x="971" 
d="M681 1760h130v-1760h-116l-405 1326l10 -476v-850h-140v1760h104l432 -1361l-15 606v755z" />
    <glyph glyph-name="O" unicode="O" horiz-adv-x="887" 
d="M604 1280c0 140 -10.166 238.333 -30.499 295s-61.833 85 -124.5 85s-106 -29.167 -130 -87.5s-36 -155.5 -36 -291.5v-762c0 -162 8.33301 -265.667 25 -311s35.167 -74.333 55.5 -87s47.166 -19 80.499 -19s60 6.33301 80 19s38.333 41.5 55 86.5s25 148.833 25 311.5
v761zM134.001 1268c0 212.667 26.667 351.501 80 416.501s135.333 97.5 246 97.5s187 -36 229 -108c28 -48.667 45.667 -105.334 53 -170.001s11 -143.334 11 -236.001v-749c0 -152.667 -9.16699 -260.167 -27.5 -322.5s-38.833 -106.833 -61.5 -133.5
c-48 -55.333 -121 -83 -219 -83c-146 0 -237.333 63 -274 189c-24.667 82.667 -37 199.334 -37 350.001v749z" />
    <glyph glyph-name="P" unicode="P" horiz-adv-x="843" 
d="M622 1229v47.002c0 129.333 -9.83301 221.666 -29.5 276.999s-59.167 83 -118.5 83h-165v-821h158c61.333 0 102.5 29.167 123.5 87.5s31.5 167.166 31.5 326.499zM160 1760l306.001 0.000976562c72 0 128.833 -13.5 170.5 -40.5s69.5 -57.167 83.5 -90.5
c24 -60 38.5 -118.333 43.5 -175s7.5 -125 7.5 -205v-18c0 -152.667 -9.5 -260.334 -28.5 -323.001s-40.5 -107.667 -64.5 -135c-48.667 -56 -122.334 -84 -221.001 -84h-148v-689h-149v1760z" />
    <glyph glyph-name="Q" unicode="Q" horiz-adv-x="887" 
d="M134 1268c0 212.667 26.667 351.5 80 416.5s137.333 97.5 252 97.5c131.333 0 216.666 -60 255.999 -180c20.667 -62.667 31 -174 31 -334v-749c0 -152.667 -12 -270 -36 -352c-28 -95.333 -87.667 -154.333 -179 -177l182 -327l-98 -52l-212 370
c-79.333 6 -140.666 33.333 -183.999 82c-24 26.667 -45.333 71.667 -64 135s-28 170.333 -28 321v749zM604 1280c0 140 -10.166 238.333 -30.499 295s-61.833 85 -124.5 85s-106 -29.167 -130 -87.5s-36 -155.5 -36 -291.5v-762c0 -162 8.33301 -265.667 25 -311
s35.167 -74.333 55.5 -87s47.166 -19 80.499 -19s60 6.33301 80 19s38.333 41.5 55 86.5s25 148.833 25 311.5v761z" />
    <glyph glyph-name="R" unicode="R" horiz-adv-x="903" 
d="M623 1335c0 88.667 -4.16504 153.668 -12.498 195.001s-22.333 69.333 -42 84s-50.834 22 -93.501 22h-167v-668h156c50.667 0 85.167 8.66699 103.5 26s32.166 46.166 41.499 86.499s14 120.833 14 241.5v13zM160.002 1760l298.998 0.000976562
c120.667 0 201.334 -25.333 242.001 -76c30.667 -38 50.167 -84.5 58.5 -139.5s12.5 -134.833 12.5 -239.5s-12.167 -190.167 -36.5 -256.5s-66.166 -107.5 -125.499 -123.5c23.333 -4 43 -11.167 59 -21.5s30.333 -27.833 43 -52.5c39.333 -76.667 59 -265.334 59 -566.001
c0 -124.667 1.16699 -196.5 3.5 -215.5s8.5 -42.167 18.5 -69.5h-148c-10.667 20 -17 57.833 -19 113.5s-3 144.5 -3 266.5v194c0 122.667 -7.5 200.667 -22.5 234s-59.5 50 -133.5 50l-158 10v-868h-149v1760z" />
    <glyph glyph-name="S" unicode="S" horiz-adv-x="795" 
d="M98 1490c10 95.333 38.1641 167.831 84.4971 217.498s118.833 74.5 217.5 74.5s167.334 -24.667 206.001 -74c21.333 -26.667 38 -53.334 50 -80.001c25.333 -54 38.333 -182.667 39 -386v-99h-153v110c0 154.667 -5 248.334 -15 281.001s-20.333 57.334 -31 74.001
c-19.333 30.667 -54 46 -104 46c-101.333 0 -152 -94.333 -152 -283c0 -66 6.33301 -110.833 19 -134.5s22.167 -42.167 28.5 -55.5s48.833 -59.333 127.5 -138l96 -97c142 -146 213 -313.5 213 -502.5s-27.167 -313.5 -81.5 -373.5s-134.833 -90 -241.5 -90
c-164 0 -258.333 99 -283 297c-8.66699 66.667 -13 148.667 -13 246v183h152v-180c0 -158.667 10.5 -268 31.5 -328s63.833 -90 128.5 -90s105.834 19.5 123.501 58.5s27.334 86.167 29.001 141.5s2.5 114.666 2.5 177.999c0 130.667 -51.667 246.334 -155 347.001l-102 97
c-89.333 87.333 -149 160.833 -179 220.5s-45 120.334 -45 182.001s2.33301 114.167 7 157.5z" />
    <glyph glyph-name="T" unicode="T" horiz-adv-x="577" 
d="M40 1760h497v-116h-165v-1644h-148v1644h-184v116z" />
    <glyph glyph-name="U" unicode="U" horiz-adv-x="911" 
d="M616 1760l149 0.000976562v-1308c0 -165.333 -21 -285.5 -63 -360.5s-123.667 -112.5 -245 -112.5s-203.5 37.667 -246.5 113s-64.5 195.333 -64.5 360v1308h149v-1303c0 -122 5.33301 -203.333 16 -244c20 -74 66.667 -111 140 -111c60 0 102.5 17.167 127.5 51.5
s37.5 135.166 37.5 302.499v1304z" />
    <glyph glyph-name="V" unicode="V" horiz-adv-x="878" 
d="M672 1760h143l-284 -1760h-155l-313 1760h143l246 -1442h1z" />
    <glyph glyph-name="W" unicode="W" horiz-adv-x="1338" 
d="M1127 1760h141l-213 -1760h-147l-218 1448l-234 -1448h-137l-249 1760h146l184 -1438l220 1438h124l235 -1438z" />
    <glyph glyph-name="X" unicode="X" horiz-adv-x="754" 
d="M459 853l219 -853h-133l-176 680l-171 -680h-124l233 919l-218 841h137l169 -659l162 659h124z" />
    <glyph glyph-name="Y" unicode="Y" horiz-adv-x="802" 
d="M624 1760h154l-287 -987v-773h-149v772l-318 988h150l241 -778h3z" />
    <glyph glyph-name="Z" unicode="Z" horiz-adv-x="691" 
d="M121 1760h482v-102l-341 -1540h335v-118h-485v125l339 1519h-330v116z" />
    <glyph glyph-name="bracketleft" unicode="[" horiz-adv-x="764" 
d="M253 1761h363v-115h-214v-1531h214v-115h-363v1761z" />
    <glyph glyph-name="backslash" unicode="\" horiz-adv-x="868" 
d="M133 1761h128l410 -1761h-127z" />
    <glyph glyph-name="bracketright" unicode="]" horiz-adv-x="764" 
d="M196 1761h362v-1761h-362v115h213v1531h-213v115z" />
    <glyph glyph-name="asciicircum" unicode="^" horiz-adv-x="1030" 
d="M411 1500h206l241 -923h-149l-194 811l-194 -811h-151z" />
    <glyph glyph-name="underscore" unicode="_" horiz-adv-x="748" 
d="M48 -64h651v-121h-651v121z" />
    <glyph glyph-name="grave" unicode="`" horiz-adv-x="650" 
d="M136 14v160l332 -185v-69z" />
    <glyph glyph-name="a" unicode="a" horiz-adv-x="874" 
d="M162 1051c0 108.667 2.99707 178.833 8.99707 210.5s12.5 59.334 19.5 83.001s15.333 43.167 25 58.5s21.667 31 36 47s30.833 28.5 49.5 37.5s40.5 16.333 65.5 22s52.833 8.5 83.5 8.5s58.334 -2.66699 83.001 -8s46.334 -11.333 65.001 -18s34.834 -18.5 48.501 -35.5
s25.167 -31.833 34.5 -44.5c32 -43.333 48 -166.333 48 -369v-1043h-149v112c-8.66699 -26.667 -30.167 -53.834 -64.5 -81.501s-78.5 -41.5 -132.5 -41.5c-78.667 0 -138.167 33.167 -178.5 99.5s-60.5 162.5 -60.5 288.5v192c0 68.667 16.5 122 49.5 160
s61.5 64.667 85.5 80c63.333 40 127 73.5 191 100.5l110 46.5v168c0 96.667 -3.66699 153.667 -11 171l-18 42c-14.667 33.333 -50 50 -106 50s-92.167 -23.5 -108.5 -70.5s-24.5 -136.5 -24.5 -268.5v-37h-150v40zM579.997 836.999c-110 -50 -173.5 -81.333 -190.5 -94
s-32.167 -25.667 -45.5 -39c-34.667 -34.667 -52 -99.667 -52 -195v-119c0 -103.333 8 -175.333 24 -216s44.667 -61 86 -61s78 10.333 110 31s54.667 43 68 67v626z" />
    <glyph glyph-name="b" unicode="b" horiz-adv-x="876" 
d="M597 1061c0 117.333 -5 190.501 -15 219.501s-19.667 50.5 -29 64.5c-18 27.333 -42 41 -72 41s-52.333 -2 -67 -6c-36 -10 -62.5 -38.5 -79.5 -85.5s-25.5 -125.5 -25.5 -235.5v-599c0 -126 10.167 -215 30.5 -267s58.833 -78 115.5 -78s94.5 26.167 113.5 78.5
s28.5 143.166 28.5 272.499v595zM160 1783h149.002v-411c7.33301 40 28.666 74.5 63.999 103.5s73.666 43.5 114.999 43.5c119.333 0 195.333 -64.667 228 -194c20 -82.667 30 -187 30 -313v-522c0 -171.333 -13 -290.166 -39 -356.499s-61.667 -108.833 -107 -127.5
c-25.333 -10.667 -55.333 -16.334 -90 -17.001c-98 0 -165 41.667 -201 125v-114h-149v1783z" />
    <glyph glyph-name="c" unicode="c" horiz-adv-x="791" 
d="M128 1028c0 166.667 16.666 282.667 49.999 348s78 107.333 134 126c32.667 10.667 77 16 133 16s107.333 -15.333 154 -46c30 -20 54.333 -58.333 73 -115s28 -169 28 -337v-47h-151v92c0 116 -4 191.333 -12 226c-14.667 60 -51.667 90 -111 90
c-72.667 0 -117.667 -42 -135 -126c-9.33301 -45.333 -14 -111.333 -14 -198v-602c0 -135.333 5.16699 -215.833 15.5 -241.5s20.833 -45.167 31.5 -58.5c18.667 -24 52.167 -36 100.5 -36s80.833 21.167 97.5 63.5s25.334 88.5 26.001 138.5s1 92.667 1 128v113h151v-45
c0 -150 -5 -252.667 -15 -308c-26 -151.333 -110.333 -227 -253 -227c-121.333 0 -202 37.333 -242 112c-27.333 50 -44.5 107 -51.5 171s-10.5 146 -10.5 246v517z" />
    <glyph glyph-name="d" unicode="d" horiz-adv-x="872" 
d="M567 1037c0 128.667 -9.83301 218.833 -29.5 270.5s-57.834 77.5 -114.501 77.5s-94.667 -26.5 -114 -79.5s-29 -144.833 -29 -275.5v-594c0 -137.333 10.833 -225.333 32.5 -264s53.834 -58 96.501 -58s73.167 7.83301 91.5 23.5s34 42 47 79s19.5 109.5 19.5 217.5v603
zM566 1783h150v-1783h-150v114c-34.667 -83.333 -101 -125 -199 -125c-111.333 0.666992 -182 67 -212 199c-16.667 72.667 -25 170.334 -25 293.001v527c0 201.333 24.167 336.666 72.5 405.999s116.5 104 204.5 104c34 0 65.5 -12.167 94.5 -36.5s50.5 -53.833 64.5 -88.5
v390z" />
    <glyph glyph-name="e" unicode="e" 
d="M549 877l0.00195312 200.999c0 112.667 -4.33301 186.334 -13 221.001c-14.667 58.667 -51.334 88 -110.001 88c-78.667 0 -125.334 -51.667 -140.001 -155c-6 -42 -9 -93.333 -9 -154v-18v-183h272zM128.002 1014c0 174.667 16 294.669 48 360.002
c33.333 65.333 78 107.666 134 126.999c33.333 11.333 71.833 17 115.5 17s81.5 -5.33301 113.5 -16c48.667 -16 89.667 -59.667 123 -131c24 -50 36 -173 36 -369v-250h-421v-302c0 -154.667 11.5 -249.5 34.5 -284.5s57 -52.5 102 -52.5s76.667 14 95 42
s29.666 64.167 33.999 108.5s6.5 104.5 6.5 180.5v112h145v-49c0 -148 -5 -249.333 -15 -304c-25.333 -147.333 -107.666 -221 -246.999 -221c-121.333 0 -202 37.333 -242 112c-27.333 49.333 -44.5 105.666 -51.5 168.999s-10.5 146 -10.5 248v503z" />
    <glyph glyph-name="f" unicode="f" horiz-adv-x="610" 
d="M224 1512c0 92 16.333 161.168 49 207.501s87.667 69.5 165 69.5c54 0 99 -6 135 -18v-121c-30 4.66699 -63.667 7 -101 7s-63 -9.83301 -77 -29.5s-21 -50.834 -21 -93.501v-92h199v-113h-199v-1329h-150v1329h-140v113h140v70z" />
    <glyph glyph-name="g" unicode="g" horiz-adv-x="860" 
d="M563 1050c0 150 -11.832 243.667 -35.499 281s-59.667 56 -108 56s-83 -18 -104 -54s-33 -80.667 -36 -134s-4.5 -102.333 -4.5 -147v-441c0 -128.667 11.167 -220.167 33.5 -274.5s64.166 -81.5 125.499 -81.5c32 0.666992 56.667 9.66699 74 27
c36.667 37.333 55 148 55 332v436zM190.501 1376.5c43 94.333 109.167 141.5 198.5 141.5s147.333 -35.333 174 -106v88h149v-1403c0 -148.667 -55.333 -249 -166 -301c-43.333 -20.667 -88.666 -31 -135.999 -31s-96.833 8 -148.5 24s-94.834 37.333 -129.501 64l57 115
c65.333 -48.667 138.666 -73 219.999 -73c51.333 0 89.833 16.833 115.5 50.5s38.5 78.5 38.5 134.5v165c-20 -44.667 -45.167 -75.5 -75.5 -92.5s-66.166 -25.5 -107.499 -25.5c-114.667 0 -189 64.667 -223 194c-20.667 81.333 -31 185 -31 311v381
c0 148 21.5 269.167 64.5 363.5z" />
    <glyph glyph-name="h" unicode="h" horiz-adv-x="923" 
d="M502 1381c-128 0 -192.332 -63.333 -192.999 -190v-1191h-149v1783h149v-430c13.333 44.667 43.166 83.5 89.499 116.5s100.5 49.5 162.5 49.5s112.833 -25.667 152.5 -77s59.5 -128.333 59.5 -231v-1211h-150v1201c0 68 -11.833 115 -35.5 141s-52.167 39 -85.5 39z" />
    <glyph glyph-name="i" unicode="i" horiz-adv-x="474" 
d="M162 1500h150v-1500h-150v1500zM162 1782h149v-144h-149v144z" />
    <glyph glyph-name="j" unicode="j" horiz-adv-x="504" 
d="M195 1782h149v-144h-149v144zM292 -185c-14.667 -12 -29.667 -21.5 -45 -28.5s-40.333 -10.5 -75 -10.5s-62 2 -82 6h-4v108c13.333 -2.66699 26 -4 38 -4s23.333 1 34 3c24 4 36 26.333 36 67v1544h149v-1534c-0.666992 -74 -17.667 -124.333 -51 -151z" />
    <glyph glyph-name="k" unicode="k" horiz-adv-x="799" 
d="M161 1783h149v-1023l331 740h149l-341 -744l359 -756h-156l-342 742v-742h-149v1783z" />
    <glyph glyph-name="l" unicode="l" horiz-adv-x="470" 
d="M160 1783h150v-1783h-150v1783z" />
    <glyph glyph-name="m" unicode="m" horiz-adv-x="1362" 
d="M1062 1226c0 103.333 -45.666 155.001 -136.999 155.001c-76.667 0 -125.667 -22.333 -147 -67c-9.33301 -20 -15.333 -45 -18 -75v-1239h-149v1226c0 57.333 -11.833 97.5 -35.5 120.5s-59.667 34.5 -108 34.5s-86.833 -14.5 -115.5 -43.5s-43 -71.833 -43 -128.5v-1209
h-149v1500h149v-149c13.333 45.333 41.166 84.666 83.499 117.999s90.833 50 145.5 50c100 0 167 -50.667 201 -152c24.667 45.333 59.667 82 105 110s98 42 158 42s110 -25 150 -75s60 -125.667 60 -227v-1217h-150v1226z" />
    <glyph glyph-name="n" unicode="n" horiz-adv-x="922" 
d="M309 1353c13.333 44.667 42.833 83.5 88.5 116.5s99.5 49.5 161.5 49.5s113 -25.667 153 -77s60 -128.333 60 -231v-1211h-149v1223c0 58 -13.167 99.833 -39.5 125.5s-61.5 38.5 -105.5 38.5c-112.667 0 -169 -55.667 -169 -167v-1220h-149v1500h149v-147z" />
    <glyph glyph-name="o" unicode="o" horiz-adv-x="845" 
d="M568 1053c0 172 -22.667 275.667 -68 311c-20 15.333 -44 23 -72 23c-76 0 -121.333 -42.333 -136 -127c-10 -52.667 -15 -121.667 -15 -207v-590c0 -147.333 12.5 -242.5 37.5 -285.5s64.833 -64.5 119.5 -64.5s90.667 30.5 108 91.5s26 147.167 26 258.5v590zM128 1018
c0 173.333 16.334 292.667 49.001 358s77 107.333 133 126c33.333 10.667 70.666 16 111.999 16c168.667 0 263.334 -91.667 284.001 -275c7.33301 -62.667 11 -137.667 11 -225v-503c0 -118 -2.5 -194.333 -7.5 -229s-9.83301 -64.667 -14.5 -90
c-26.667 -142.667 -119.334 -214 -278.001 -214c-64.667 0 -116.334 13.333 -155.001 40c-73.333 50.667 -115.666 143.667 -126.999 279c-4.66699 60 -7 131.333 -7 214v503z" />
    <glyph glyph-name="p" unicode="p" horiz-adv-x="873" 
d="M596 1061c0 117.333 -4.83301 190.5 -14.5 219.5s-21.167 53.833 -34.5 74.5s-35.333 31 -66 31s-53.334 -2 -68.001 -6c-36 -10 -62.333 -38.833 -79 -86.5s-25 -125.834 -25 -234.501v-596c0 -127.333 10.167 -217.166 30.5 -269.499s58.833 -78.5 115.5 -78.5
s94.334 26 113.001 78s28 143.667 28 275v593zM309 1385c35.333 84 101.666 126.002 198.999 126.002c68 0 119.167 -22.5 153.5 -67.5s56.833 -103 67.5 -174s16 -156.5 16 -256.5v-538v-7c0 -188.667 -24.667 -316.834 -74 -384.501s-116.666 -101.5 -201.999 -101.5
c-34 0 -65.833 12.167 -95.5 36.5s-51.167 54.166 -64.5 89.499v-373h-149v1765h149v-115z" />
    <glyph glyph-name="q" unicode="q" horiz-adv-x="858" 
d="M564 1037c0 154.667 -13.166 251.332 -39.499 289.999s-65 58 -116 58s-85.833 -26.167 -104.5 -78.5s-28 -144.166 -28 -275.499v-594c0 -138.667 10.667 -227.167 32 -265.5s53.5 -57.5 96.5 -57.5s73.667 8.33301 92 25s34.166 43.667 47.499 81s20 111 20 221v596z
M128.001 1013c0 170 13.332 287.666 39.999 352.999c25.333 65.333 60.666 108 105.999 128c25.333 10.667 55.333 16.334 90 17.001c98 0 165 -43.333 201 -130v119h150v-1765h-150v371c-14.667 -35.333 -36.667 -64.833 -66 -88.5s-66.166 -35.5 -110.499 -35.5
s-85.166 12.333 -122.499 37c-92 60.667 -138 214 -138 460v534z" />
    <glyph glyph-name="r" unicode="r" horiz-adv-x="617" 
d="M565 1518c2.66699 0 4 -10.668 4 -32.001s-0.333008 -42.666 -1 -63.999v-31c-52.667 0 -99.167 -10.5 -139.5 -31.5s-79.833 -58.833 -118.5 -113.5v-1246h-149v1500h149v-167c17.333 58.667 47.833 104.167 91.5 136.5s98.167 48.5 163.5 48.5z" />
    <glyph glyph-name="s" unicode="s" 
d="M120 1180c0 110.667 26.502 194.668 79.502 252.001s126.167 86 219.5 86s161.666 -37 204.999 -111s65 -197.333 65 -370v-80h-155v107c0 106 -9.16699 185.333 -27.5 238s-50.333 79 -96 79s-80.334 -15.167 -104.001 -45.5s-35.5 -82.833 -35.5 -157.5v-6
c0 -116.667 54.333 -227.667 163 -333l77 -75c132.667 -132.667 199 -279 199 -439c0 -106.667 -23 -190.834 -69 -252.501s-118.333 -92.5 -217 -92.5s-172.5 34 -221.5 102s-73.5 176.333 -73.5 325v129h153v-103c0 -211.333 46 -317 138 -317c49.333 0 84.333 16 105 48
s31 88.667 31 170c0 120.667 -52 234 -156 340l-79 80c-134 136 -201 278 -201 426z" />
    <glyph glyph-name="t" unicode="t" horiz-adv-x="582" 
d="M195 1760l150 0.00195312v-254h177v-116h-177v-1181c0 -30 3.66699 -50.667 11 -62s21 -19 41 -23s61.333 -6 124 -6v-127h-104c-94.667 0 -155.667 16.667 -183 50c-16 19.333 -26.5 42.166 -31.5 68.499s-7.5 62.166 -7.5 107.499v1173h-150v116h150v254z" />
    <glyph glyph-name="u" unicode="u" horiz-adv-x="924" 
d="M300 292c0 -115.333 50.6689 -173 152.002 -173c49.333 0 88.833 16.5 118.5 49.5s44.5 77.833 44.5 134.5l-1 1197h150v-1500h-149v150c-12.667 -45.333 -39.834 -85 -81.501 -119s-89.834 -51 -144.501 -51s-108 22.5 -160 67.5s-78 124.167 -78 237.5v1215h149v-1208z
" />
    <glyph glyph-name="v" unicode="v" horiz-adv-x="677" 
d="M497 1500h134l-218 -1500h-149l-219 1500h134l118 -876l40 -365h10l40 366z" />
    <glyph glyph-name="w" unicode="w" horiz-adv-x="1075" 
d="M885 1500h132l-174 -1500h-148l-147 1283l-173 -1283h-142l-176 1500h137l90 -887l24 -311h12l30 312l126 886h127l137 -854l40 -344h10l20 346z" />
    <glyph glyph-name="x" unicode="x" horiz-adv-x="670" 
d="M401 779l236 -779h-139l-171 574l-161 -574h-132l237 762l-219 738h130l160 -527l149 527h142z" />
    <glyph glyph-name="y" unicode="y" horiz-adv-x="733" 
d="M541 1500l149 0.00195312l-239 -1497c-15.333 -102.667 -33 -166.334 -53 -191.001s-42.5 -39.167 -67.5 -43.5s-50.5 -6.5 -76.5 -6.5h-124v128h55c71.333 0 112.333 3.66699 123 11c9.33301 9.33301 14 22.666 14 39.999s-1 32 -3 44s-4.66699 29.667 -8 53l-250 1462
h150l119 -793l48 -408h13l43 408z" />
    <glyph glyph-name="z" unicode="z" horiz-adv-x="635" 
d="M107 1500h463v-93l-334 -1277h314v-130h-468v108l329 1263h-304v129z" />
    <glyph glyph-name="braceleft" unicode="{" horiz-adv-x="798" 
d="M562 1781h59.998v-137c-46.667 0 -78.167 -5 -94.5 -15s-27.833 -27.667 -34.5 -53s-10 -74 -10 -146v-246c0 -136.667 -8.16699 -222.167 -24.5 -256.5s-43.166 -59.5 -80.499 -75.5c-16 -6.66699 -38.333 -14 -67 -22c52.667 -15.333 88.334 -31 107.001 -47
c18 -16.667 30.333 -31.667 37 -45c18.667 -38 28 -125.333 28 -262v-246c0 -114.667 11.5 -179 34.5 -193s57.833 -21 104.5 -21v-137h-60c-89.333 0 -149.666 23.5 -180.999 70.5s-47 136.167 -47 267.5v275c0 106.667 -7 171.5 -21 194.5s-31.667 35.833 -53 38.5
s-43 4 -65 4v202c61.333 0 99 11.5 113 34.5s21.833 53 23.5 90s2.5 74.5 2.5 112.5v275c0 131.333 15.667 220.5 47 267.5s91.666 70.5 180.999 70.5z" />
    <glyph glyph-name="bar" unicode="|" horiz-adv-x="537" 
d="M199 1683h153v-1767h-153v1767z" />
    <glyph glyph-name="braceright" unicode="}" horiz-adv-x="798" 
d="M195 1781l60 -0.000976562c89.333 0 149.666 -23.5 180.999 -70.5s47 -136.167 47 -267.5v-275c0 -106.667 7 -171.5 21 -194.5s31.667 -35.833 53 -38.5s43 -4 65 -4v-202c-61.333 0 -99 -11.5 -113 -34.5s-21.833 -53 -23.5 -90s-2.5 -74.5 -2.5 -112.5v-275
c0 -131.333 -15.667 -220.5 -47 -267.5s-91.666 -70.5 -180.999 -70.5h-60v137c33.333 0 58.166 1.83301 74.499 5.5s29.833 13.667 40.5 30s17.334 37.333 20.001 63s4 64.167 4 115.5v246c0 136.667 8.33301 222.167 25 256.5s43.667 59.5 81 75.5c16 6.66699 38 14 66 22
c-76.667 22 -124.5 52.333 -143.5 91s-28.5 126.334 -28.5 263.001v246c0 51.333 -1.33301 89.833 -4 115.5s-9.33398 46.667 -20.001 63s-24.167 26.333 -40.5 30s-41.166 5.5 -74.499 5.5v137z" />
    <glyph glyph-name="asciitilde" unicode="~" horiz-adv-x="1117" 
d="M978 1098c-41.333 -163.333 -109.998 -245 -205.998 -245c-45.333 0 -119.333 13.333 -222 40s-171.834 40 -207.501 40s-66.834 -31 -93.501 -93l-128 75c52 124 123.333 186 214 186c38 0 109.667 -13.167 215 -39.5s167 -39.5 185 -39.5c44.667 6 78 45.333 100 118z
" />
    <glyph glyph-name="uni00A0" unicode="&#xa0;" horiz-adv-x="337" 
 />
    <glyph glyph-name="exclamdown" unicode="&#xa1;" horiz-adv-x="564" 
d="M405 1351h-186v202h186v-202zM404 -207h-188l65 1392h60z" />
    <glyph glyph-name="cent" unicode="&#xa2;" horiz-adv-x="788" 
d="M128 1028c0 95.333 6.00098 178.002 18.001 248.002c24 138 96.333 216.667 217 236v256h113v-252c44 -4.66699 83.167 -18 117.5 -40s64.5 -73 90.5 -153c10.667 -34 16 -135 16 -303v-47h-151v92c0 116 -4 191.333 -12 226c-14.667 60 -49.334 90 -104.001 90
s-94.334 -19.833 -119.001 -59.5s-37 -127.834 -37 -264.501v-602c0 -78.667 2.5 -141.5 7.5 -188.5s17.333 -83.333 37 -109s54.834 -38.5 105.501 -38.5c56.667 0 93 35.667 109 107c8.66699 39.333 13 113.666 13 222.999v113h151v-45c0 -150 -5 -252.667 -15 -308
c-17.333 -100.667 -59 -167 -125 -199c-22.667 -11.333 -50.667 -19.333 -84 -24v-235h-113v234c-44.667 5.33301 -85.167 21 -121.5 47s-64.333 71 -84 135s-29.5 178.667 -29.5 344v517z" />
    <glyph glyph-name="sterling" unicode="&#xa3;" horiz-adv-x="809" 
d="M162 1386c0 264 103.667 396.003 311 396.003c148 0 242.333 -77.667 283 -233c12.667 -48.667 19 -104.667 19 -168v-135h-133v147c0 175.333 -59.333 263 -178 263c-109.333 0 -164 -82.333 -164 -247c0 -114.667 26 -272.334 78 -473.001h306v-103h-286
c11.333 -88.667 17 -172 17 -250c0 -220.667 -46 -379.334 -138 -476.001h489v-107h-704v86c81.333 35.333 138 94.166 170 176.499s48 205.833 48 370.5c0 68 -6.33301 134.667 -19 200h-183v103h155c-47.333 177.333 -71 327.333 -71 450z" />
    <glyph glyph-name="currency" unicode="&#xa4;" horiz-adv-x="1159" 
d="M794 1042.5c54.667 61 81.999 136.832 81.999 227.499s-27 165.334 -81 224.001s-125.5 88 -214.5 88s-160.833 -30.167 -215.5 -90.5s-82 -135.333 -82 -225s27.167 -164.667 81.5 -225s125.833 -90.5 214.5 -90.5s160.334 30.5 215.001 91.5zM796.999 1634
l86.998 86.999l150 -149l-90 -90c36 -64.667 54 -136.5 54 -215.5s-18 -150.833 -54 -215.5l90 -90l-150 -149l-89 88c-61.333 -34.667 -133.333 -52 -216 -52s-154.667 17.667 -216 53l-89 -89l-149 150l91 91c-35.333 65.333 -53 136.833 -53 214.5
s17.333 148.834 52 213.501l-90 90l149 150l87 -88c64.667 36.667 137.334 55 218.001 55s153.334 -18 218.001 -54z" />
    <glyph glyph-name="yen" unicode="&#xa5;" horiz-adv-x="821" 
d="M624 1760h154l-272 -936h247v-83h-262v-197h262v-82h-262v-462h-149v462h-265v82h265v197h-265v83h248l-301 936h150l241 -778h3z" />
    <glyph glyph-name="brokenbar" unicode="&#xa6;" horiz-adv-x="530" 
d="M122 724h153v-808h-153v808zM122 1761h153v-830h-153v830z" />
    <glyph glyph-name="section" unicode="&#xa7;" 
d="M585 682c4.66699 14 7 36.668 7 68.001s-4.66699 59 -14 83s-23 48.167 -41 72.5s-36 46.666 -54 66.999l-67.5 75c-27 29.667 -49.167 55.5 -66.5 77.5c-8.66699 -21.333 -13 -48.5 -13 -81.5s4.33301 -60.833 13 -83.5s22.5 -46 41.5 -70s36.833 -45 53.5 -63l70 -72z
M274 1227c-48.667 78 -72.9971 149.998 -72.9971 215.998c0 108.667 25.5 192.167 76.5 250.5s115.167 87.5 192.5 87.5s136.666 -15.667 177.999 -47c81.333 -61.333 122 -206 122 -434v-80h-155v107c0 110 -10 190.667 -30 242s-56.667 77 -110 77
c-36.667 0 -66.334 -16 -89.001 -48s-34 -73.333 -34 -124s18.167 -102 54.5 -154s78.666 -105.833 126.999 -161.5s91.333 -116.667 129 -183s56.5 -137.166 56.5 -212.499s-12 -139.666 -36 -192.999c72 -91.333 108 -173 108 -245c0 -106.667 -23 -190.834 -69 -252.501
s-118.333 -92.5 -217 -92.5s-172.5 34 -221.5 102s-73.5 176.333 -73.5 325v129h153v-103c0 -211.333 46 -317 138 -317c50.667 0 86 13 106 39s30 74.333 30 145s-28.333 138 -85 202c-25.333 28 -65.5 68.667 -120.5 122s-101.167 103.333 -138.5 150
c-56.667 70.667 -85 146.834 -85 228.501s22 156.5 66 224.5z" />
    <glyph glyph-name="dieresis" unicode="&#xa8;" horiz-adv-x="976" 
d="M155 95h182v-133h-182v133zM585 95h182v-133h-182v133z" />
    <glyph glyph-name="copyright" unicode="&#xa9;" horiz-adv-x="1466" 
d="M1309 862c0 108 -25.167 207.333 -75.5 298s-119.666 162.167 -207.999 214.5s-185.833 78.5 -292.5 78.5s-204.167 -26.167 -292.5 -78.5s-157.666 -123.833 -207.999 -214.5s-75.5 -190 -75.5 -298s25.167 -207.333 75.5 -298s119.666 -162.167 207.999 -214.5
s185.833 -78.5 292.5 -78.5s204.167 26.167 292.5 78.5s157.666 123.833 207.999 214.5s75.5 190 75.5 298zM509 1049c0 170.667 73.002 256 219.002 256s219 -65.333 219 -196v-133h-97v81c0 57.333 -8.16699 97.833 -24.5 121.5s-47 35.5 -92 35.5s-75.833 -12 -92.5 -36
s-25 -60 -25 -108v-417c0 -47.333 9.16699 -83.333 27.5 -108s49.166 -37 92.499 -37s73.166 11 89.499 33s24.5 59.333 24.5 112v109h101v-123c0 -75.333 -16.167 -130 -48.5 -164s-87.833 -51 -166.5 -51c-151.333 0 -227 74.667 -227 224v401zM76.002 862
c0 122.667 28.667 234.167 86 334.5s136.166 179.166 236.499 236.499s211.833 86 334.5 86s234.167 -28.667 334.5 -86s179.166 -136.166 236.499 -236.499s86 -211.833 86 -334.5s-28.667 -234.167 -86 -334.5s-136.166 -179.166 -236.499 -236.499
s-211.833 -86 -334.5 -86s-234.167 28.667 -334.5 86s-179.166 136.166 -236.499 236.499s-86 211.833 -86 334.5z" />
    <glyph glyph-name="ordfeminine" unicode="&#xaa;" horiz-adv-x="927" 
d="M247 1200l0.998047 33.001c0 110 5 180.333 15 211c20.667 63.333 47.5 106.5 80.5 129.5s73.167 34.5 120.5 34.5s84 -3.33301 110 -10c39.333 -10.667 73.333 -43.334 102 -98.001c18.667 -35.333 28 -117.333 28 -246v-865h-120v92
c-8 -23.333 -25.5 -46.166 -52.5 -68.499s-62.5 -33.5 -106.5 -33.5c-127.333 0 -191 104.333 -191 313v153c0 60.667 18 109.5 54 146.5s78.833 67.167 128.5 90.5s87.834 40.666 114.501 51.999s44.334 19 53.001 23v92c0 107.333 -3.5 169.833 -10.5 187.5
s-15.833 33.167 -26.5 46.5s-36.5 20 -77.5 20s-68.167 -19 -81.5 -57s-20 -110 -20 -216v-30h-121zM583.998 558.001l-0.00195312 505.001c-107.333 -48 -171.666 -84.333 -192.999 -109s-33.166 -49.834 -35.499 -75.501s-3.5 -52.167 -3.5 -79.5v-97
c0 -83.333 6.5 -141.333 19.5 -174s36 -49 69 -49s62.333 8.5 88 25.5s44.167 34.833 55.5 53.5z" />
    <glyph glyph-name="guillemotleft" unicode="&#xab;" horiz-adv-x="1304" 
d="M76 794l466 271v-150l-312 -166l312 -175v-160l-466 285v95zM599 794l466 271v-150l-312 -166l312 -175v-160l-466 285v95z" />
    <glyph glyph-name="logicalnot" unicode="&#xac;" horiz-adv-x="947" 
d="M97 858h729v-419h-125v304h-604v115z" />
    <glyph glyph-name="uni00AD" unicode="&#xad;" horiz-adv-x="696" 
d="M90 741h516v-115h-516v115z" />
    <glyph glyph-name="registered" unicode="&#xae;" horiz-adv-x="1502" 
d="M1309 862c0 108 -25.167 207.333 -75.5 298s-119.666 162.167 -207.999 214.5s-185.833 78.5 -292.5 78.5s-204.167 -26.167 -292.5 -78.5s-157.666 -123.833 -207.999 -214.5s-75.5 -190 -75.5 -298s25.167 -207.333 75.5 -298s119.666 -162.167 207.999 -214.5
s185.833 -78.5 292.5 -78.5s204.167 26.167 292.5 78.5s157.666 123.833 207.999 214.5s75.5 190 75.5 298zM76 862c0 122.667 28.667 234.167 86 334.5s136.166 179.166 236.499 236.499s211.833 86 334.5 86s234.167 -28.667 334.5 -86s179.166 -136.166 236.499 -236.499
s86 -211.833 86 -334.5s-28.667 -234.167 -86 -334.5s-136.166 -179.166 -236.499 -236.499s-211.833 -86 -334.5 -86s-234.167 28.667 -334.5 86s-179.166 136.166 -236.499 236.499s-86 211.833 -86 334.5zM726 951h2c90 0 135 45 135 135c0 48 -14.333 80.667 -43 98
s-86 26 -172 26v-259h78zM753 866l-106.001 -1.99902v-418h-120v852h213c77.333 0 136.833 -17.333 178.5 -52s62.5 -92.834 62.5 -174.501s-41 -135.5 -123 -161.5c29.333 -5.33301 54.833 -18.833 76.5 -40.5s32.5 -49.167 32.5 -82.5v-341h-118v302
c0 51.333 -10.667 83.833 -32 97.5s-42.666 20.5 -63.999 20.5z" />
    <glyph glyph-name="macron" unicode="&#xaf;" horiz-adv-x="696" 
d="M90 43h495v-113h-495v113z" />
    <glyph glyph-name="degree" unicode="&#xb0;" horiz-adv-x="915" 
d="M689 1269c0 40 -6.5 76.167 -19.5 108.5s-30.667 58.333 -53 78s-47 34.667 -74 45s-55.333 15.5 -85 15.5s-58 -5.16699 -85 -15.5s-51.5 -25.333 -73.5 -45s-39.5 -45.667 -52.5 -78s-19.5 -68.5 -19.5 -108.5s6.5 -76.167 19.5 -108.5s30.667 -58.333 53 -78
s47 -34.667 74 -45s55.333 -15.5 85 -15.5s58 5.16699 85 15.5s51.5 25.333 73.5 45s39.5 45.667 52.5 78s19.5 68.5 19.5 108.5zM457.5 1603c89 0 168.502 -28.501 238.502 -85.501s105 -138.667 105 -245s-33.833 -189.166 -101.5 -248.499s-147.334 -89 -239.001 -89
s-172.334 28.333 -242.001 85s-104.5 139.5 -104.5 248.5s35 192 105 249s149.5 85.5 238.5 85.5z" />
    <glyph glyph-name="plusminus" unicode="&#xb1;" horiz-adv-x="854" 
d="M173 377h516v-118h-516v118zM368 1185h118v-259h234v-106h-234v-266h-118v266h-230v106h230v259z" />
    <glyph glyph-name="uni00B2" unicode="&#xb2;" horiz-adv-x="861" 
d="M507 1135c35.333 77.333 53 179.001 53 305.001c0 58.667 -4.33301 107.834 -13 147.501s-19 65.167 -31 76.5s-26 17 -42 17c-30 0 -54 -16.833 -72 -50.5s-27 -107.167 -27 -220.5v-178h-116l1 82c0 114.667 2 185.667 6 213c2.66699 27.333 6 52.333 10 75
c12 71.333 44 121.666 96 150.999c29.333 16.667 64 25 104 25c94.667 0 153 -52.667 175 -158c12.667 -62 19 -129.667 19 -203c0 -130 -31.333 -258.333 -94 -385l-82 -162c-68 -132.667 -107.667 -256.667 -119 -372h276v-78h-387v72c0 36 65.333 211 196 525
c31.333 75.333 47 114.666 47 117.999v0z" />
    <glyph glyph-name="uni00B3" unicode="&#xb3;" horiz-adv-x="880" 
d="M530 1181c80.667 -36 121 -148.333 121 -337c0 -92.667 -17.167 -166.167 -51.5 -220.5s-88.333 -81.5 -162 -81.5s-126.167 27.167 -157.5 81.5s-47 139.833 -47 256.5v29h100v-30c0 -102 6.5 -169.667 19.5 -203s41.5 -50 85.5 -50s74.167 18.333 90.5 55
s24.5 103.834 24.5 201.501s-10.833 165 -32.5 202s-58.5 55.5 -110.5 55.5h-31v87h29c27.333 0 48.833 2.33301 64.5 7s30.167 15 43.5 31c22.667 28 34 99.333 34 214s-23.333 182 -70 202c-12 5.33301 -27.667 8 -47 8s-35.666 -5.66699 -48.999 -17
c-30.667 -26 -46.334 -97 -47.001 -213v-22h-100v23c0 107.333 15.167 186.666 45.5 237.999s82.333 77 156 77s127.167 -26 160.5 -78s50 -131 50 -237c0 -155.333 -39.667 -248.333 -119 -279z" />
    <glyph glyph-name="acute" unicode="&#xb4;" horiz-adv-x="650" 
d="M100 1989l398 158v-144l-398 -83v69z" />
    <glyph glyph-name="paragraph" unicode="&#xb6;" horiz-adv-x="1119" 
d="M666 1761l276 0.000976562v-1761h-163v1620h-143v-1620h-163v1180c-102 11.333 -179.833 42.166 -233.5 92.499s-80.5 115.5 -80.5 195.5s14.5 139.833 43.5 179.5s79.5 68.5 151.5 86.5s176 27 312 27z" />
    <glyph glyph-name="periodcentered" unicode="&#xb7;" horiz-adv-x="480" 
d="M163 961h170v-175h-170v175z" />
    <glyph glyph-name="cedilla" unicode="&#xb8;" horiz-adv-x="1015" 
d="M383 -501c154 0 231 47.001 231 141.001c0 42.667 -15.5 78.167 -46.5 106.5s-68.833 47.5 -113.5 57.5l40 196h57l9 -147c119.333 -60 179 -140.667 179 -242c0 -50.667 -25.667 -97.834 -77 -141.501s-115.333 -65.5 -192 -65.5c-26.667 0 -55.667 3 -87 9v86z" />
    <glyph glyph-name="uni00B9" unicode="&#xb9;" horiz-adv-x="626" 
d="M309 1759h68v-1345h-111v1171c-16 -21.333 -39.667 -38 -71 -50s-62 -18 -92 -18v74c42 6.66699 81.333 24.167 118 52.5s66 66.833 88 115.5z" />
    <glyph glyph-name="ordmasculine" unicode="&#xba;" horiz-adv-x="908" 
d="M590 1234c0 138.667 -17.999 222 -53.999 250c-16 12 -35 18 -57 18c-60 0 -96.333 -33.667 -109 -101c-8 -42 -12 -97.667 -12 -167v-474c0 -102 4.5 -165.333 13.5 -190s19.833 -46.167 32.5 -64.5s34.167 -27.5 64.5 -27.5s53.166 6.33301 68.499 19
c35.333 29.333 53 117 53 263v474zM239.001 1205c0 140 12.833 235.835 38.5 287.502s61.167 85.5 106.5 101.5c24.667 8.66699 46.5 13 65.5 13h32.5c76 0 133 -25.333 171 -76s57 -159.334 57 -326.001v-404c0 -171.333 -14.667 -281.333 -44 -330
c-38.667 -64.667 -94.167 -97 -166.5 -97s-120 8.16699 -143 24.5s-40.5 31.166 -52.5 44.499s-25.833 41.5 -41.5 84.5s-23.5 134.167 -23.5 273.5v404z" />
    <glyph glyph-name="guillemotright" unicode="&#xbb;" horiz-adv-x="1304" 
d="M193 915v150l466 -271v-95l-466 -285v160l312 175zM716 915v150l466 -271v-95l-466 -285v160l312 175z" />
    <glyph glyph-name="onequarter" unicode="&#xbc;" horiz-adv-x="1535" 
d="M1192 1224h92v-898h109v-82h-109v-244h-96v244h-272v70zM1188 326v663l-181 -663h181zM312 1774l71 -0.000976562v-1358h-116v1181c-16.667 -21.333 -41 -38 -73 -50s-63.333 -18 -94 -18v75c43.333 6.66699 84 24.334 122 53.001s68 67.667 90 117zM948 1768h120
l-461 -1768h-118z" />
    <glyph glyph-name="onehalf" unicode="&#xbd;" horiz-adv-x="1620" 
d="M1377 724c36 74.667 53.999 176.669 53.999 306.002c0 58.667 -4.33301 108.167 -13 148.5s-19 66.166 -31 77.499s-26.333 17 -43 17c-30 0 -54.167 -17 -72.5 -51s-27.5 -107.667 -27.5 -221v-180h-117v83c0.666992 196 15 319.333 43 370
c36.667 65.333 90.834 98 162.501 98s121 -20 148 -60s44.167 -86 51.5 -138s11 -111.167 11 -177.5s-9.16699 -132 -27.5 -197s-41 -125 -68 -180l-82.5 -163.5c-69.333 -133.333 -109.333 -258 -120 -374h278v-81h-392v73c0 38 66.667 216.333 200 535
c30.667 73.333 46 111.666 46 114.999v0zM311.999 1774l71 -0.000976562v-1358h-116v1181c-16.667 -21.333 -41 -38 -73 -50s-63.333 -18 -94 -18v75c43.333 6.66699 84 24.334 122 53.001s68 67.667 90 117zM947.999 1768h120l-461 -1768h-118z" />
    <glyph glyph-name="threequarters" unicode="&#xbe;" horiz-adv-x="1555" 
d="M1212 1224h92v-898h109v-82h-109v-244h-96v244h-272v70zM1208 326v663l-181 -663h181zM461 1199c82.667 -38 123.999 -151.668 123.999 -341.001c0 -94.667 -17.833 -169.5 -53.5 -224.5s-91.667 -82.5 -168 -82.5s-130.666 27.333 -162.999 82
s-48.5 141.334 -48.5 260.001v31h105v-31c0 -102.667 6.66699 -170.834 20 -204.501s42.333 -50.5 87 -50.5s75.167 18.5 91.5 55.5s24.5 104.667 24.5 203s-11 166.333 -33 204s-59.667 56.5 -113 56.5h-31v87h31c37.333 0 65.333 5 84 15c40 21.333 60 87.833 60 199.5
s-10.833 181.667 -32.5 210s-49.5 42.5 -83.5 42.5s-59.333 -16.167 -76 -48.5s-25 -93.166 -25 -182.499v-23h-105v24c0 108.667 15.833 189 47.5 241s85.5 78 161.5 78s131.333 -26.333 166 -79s52 -132.667 52 -240c0 -157.333 -40.667 -251.333 -122 -282zM1013 1768
h120l-460 -1768h-119z" />
    <glyph glyph-name="questiondown" unicode="&#xbf;" horiz-adv-x="1044" 
d="M649 1195h-126v298h126v-298zM718 129l1 -111v-7c0 -88 -11.667 -153 -35 -195c-39.333 -69.333 -98 -104 -176 -104s-127.833 8.83301 -149.5 26.5s-38.167 32.167 -49.5 43.5c-37.333 37.333 -56 147 -56 329v69c0 177.333 19.5 308.5 58.5 393.5
s109.5 141.833 211.5 170.5v256h125v-316c-56.667 -21.333 -108.667 -51.333 -156 -90c-24 -20 -47.333 -65 -70 -135c-13.333 -40 -20 -152 -20 -336v-8c0 -118 3.83301 -193.5 11.5 -226.5s31 -49.5 70 -49.5s62.833 16.667 71.5 50s13 110 13 230v215h150v-205z" />
    <glyph glyph-name="Agrave" unicode="&#xc0;" horiz-adv-x="860" 
d="M254 1924v160l332 -185v-69zM339 1760h152l313 -1760h-144l-58 357h-352l-53 -357h-141zM582 480l-162 996h-2l-149 -996h313z" />
    <glyph glyph-name="Aacute" unicode="&#xc1;" horiz-adv-x="860" 
d="M242 1963l398 158v-144l-398 -83v69zM339 1760h152l313 -1760h-144l-58 357h-352l-53 -357h-141zM582 480l-162 996h-2l-149 -996h313z" />
    <glyph glyph-name="Acircumflex" unicode="&#xc2;" horiz-adv-x="860" 
d="M333 2091h166l120 -254h-117l-86 175l-86 -175h-118zM339 1760h152l313 -1760h-144l-58 357h-352l-53 -357h-141zM582 480l-162 996h-2l-149 -996h313z" />
    <glyph glyph-name="Atilde" unicode="&#xc3;" horiz-adv-x="860" 
d="M124 1945c18.667 64.667 42.1699 103.333 70.5029 116s59 19 92 19s80.333 -12.333 142 -37s99.5 -37 113.5 -37h4c11.333 2 21.166 7.5 29.499 16.5s17.166 27.167 26.499 54.5l105 -28l-9 -26c-19.333 -60.667 -38.833 -100 -58.5 -118s-45.834 -27 -78.501 -27
s-79 13.667 -139 41s-99.5 41 -118.5 41s-33.833 -1.33301 -44.5 -4s-24.667 -21.667 -42 -57zM339.003 1760h152l313 -1760h-144l-58 357h-352l-53 -357h-141zM582.003 479.999l-162 996h-2l-149 -996h313z" />
    <glyph glyph-name="Adieresis" unicode="&#xc4;" horiz-adv-x="860" 
d="M83 2005h182v-133h-182v133zM513 2005h182v-133h-182v133zM339 1760h152l313 -1760h-144l-58 357h-352l-53 -357h-141zM582 480l-162 996h-2l-149 -996h313z" />
    <glyph glyph-name="Aring" unicode="&#xc5;" horiz-adv-x="860" 
d="M515 1982c0 28 -8.83301 51.998 -26.5 71.998s-41.834 30 -72.501 30s-54.667 -10.167 -72 -30.5s-26 -44.166 -26 -71.499s8.66699 -51.166 26 -71.499s41.333 -30.5 72 -30.5s54.834 10 72.501 30s26.5 44 26.5 72zM290.5 1875
c-29.667 30.667 -44.5 66.168 -44.5 106.501s14.833 75.833 44.5 106.5s71.334 46 125.001 46s95.167 -15.333 124.5 -46s44 -66.334 44 -107.001s-14.667 -76.167 -44 -106.5s-70.833 -45.5 -124.5 -45.5s-95.334 15.333 -125.001 46zM339 1760h152l313 -1760h-144l-58 357
h-352l-53 -357h-141zM582 479.999l-162 996h-2l-149 -996h313z" />
    <glyph glyph-name="AE" unicode="&#xc6;" horiz-adv-x="1124" 
d="M564 483v1163l-18 -1l-245 -1162h263zM446 1760h592v-116h-325v-688h306v-120h-306v-718h322v-118h-471v357h-292l-76 -357h-140z" />
    <glyph glyph-name="Ccedilla" unicode="&#xc7;" horiz-adv-x="865" 
d="M311 -501c154 0 231 47.001 231 141.001c0 42.667 -15.5 78.167 -46.5 106.5s-68.833 47.5 -113.5 57.5l40 196h57l9 -147c119.333 -60 179 -140.667 179 -242c0 -50.667 -25.667 -97.834 -77 -141.501s-115.333 -65.5 -192 -65.5c-26.667 0 -55.667 3 -87 9v86z
M134 1251c0 213.333 26.832 355.168 80.499 425.501s130 105.5 229 105.5s169.833 -24.333 212.5 -73c30.667 -35.333 50.667 -70.333 60 -105c22 -81.333 33 -203 33 -365v-152h-151v170c0 148 -8 247 -24 297s-38.667 81.667 -68 95c-16 7.33301 -34.333 11 -55 11
c-63.333 0 -107.166 -32.333 -131.499 -97s-36.5 -166.334 -36.5 -305.001v-706c0 -170 10.667 -287.5 32 -352.5s64 -97.5 128 -97.5s105.833 32.333 125.5 97s29.5 182 29.5 352v141h150v-140c0 -154 -8.66699 -264.833 -26 -332.5s-37 -116.167 -59 -145.5
c-46.667 -62.667 -119 -94 -217 -94s-171.667 31 -221 93c-60.667 76 -91 235 -91 477v701z" />
    <glyph glyph-name="Egrave" unicode="&#xc8;" horiz-adv-x="709" 
d="M236 1924v160l332 -185v-69zM160 1760h465v-116h-316v-688h297v-121h-297v-717h313v-118h-462v1760z" />
    <glyph glyph-name="Eacute" unicode="&#xc9;" horiz-adv-x="709" 
d="M160 1760h465v-116h-316v-688h297v-121h-297v-717h313v-118h-462v1760zM218 1963l398 158v-144l-398 -83v69z" />
    <glyph glyph-name="Ecircumflex" unicode="&#xca;" horiz-adv-x="709" 
d="M160 1760h465v-116h-316v-688h297v-121h-297v-717h313v-118h-462v1760zM308 2091h166l120 -254h-117l-86 175l-86 -175h-118z" />
    <glyph glyph-name="Edieresis" unicode="&#xcb;" horiz-adv-x="709" 
d="M160 1760h465v-116h-316v-688h297v-121h-297v-717h313v-118h-462v1760zM58 2005h182v-133h-182v133zM488 2005h182v-133h-182v133z" />
    <glyph glyph-name="Igrave" unicode="&#xcc;" horiz-adv-x="504" 
d="M90 1924v160l332 -185v-69zM178 1760h149v-1760h-149v1760z" />
    <glyph glyph-name="Iacute" unicode="&#xcd;" horiz-adv-x="504" 
d="M78 1963l398 158v-144l-398 -83v69zM178 1760h149v-1760h-149v1760z" />
    <glyph glyph-name="Icircumflex" unicode="&#xce;" horiz-adv-x="504" 
d="M169 2091h166l120 -254h-117l-86 175l-86 -175h-118zM178 1760h149v-1760h-149v1760z" />
    <glyph glyph-name="Idieresis" unicode="&#xcf;" horiz-adv-x="504" 
d="M-81 2005h182v-133h-182v133zM349 2005h182v-133h-182v133zM178 1760h149v-1760h-149v1760z" />
    <glyph glyph-name="Eth" unicode="&#xd0;" horiz-adv-x="903" 
d="M621 1274c0 128 -14.667 220.333 -44 277s-75.333 85 -138 85h-132v-1508h123c82.667 0 136.667 37.667 162 113c20 62 30 154.667 30 278zM159 1760l271 -0.000976562c158 0 258.667 -64.667 302 -194c25.333 -75.333 38 -178 38 -308l1 -754
c0 -183.333 -26 -313.166 -78 -389.499s-141.667 -114.5 -269 -114.5h-265v1760zM88 957.999h428v-100h-428v100z" />
    <glyph glyph-name="Ntilde" unicode="&#xd1;" horiz-adv-x="971" 
d="M193 1945c18.667 64.667 42.1699 103.333 70.5029 116s59 19 92 19s80.333 -12.333 142 -37s99.5 -37 113.5 -37h4c11.333 2 21.166 7.5 29.499 16.5s17.166 27.167 26.499 54.5l105 -28l-9 -26c-19.333 -60.667 -38.833 -100 -58.5 -118s-45.834 -27 -78.501 -27
s-79 13.667 -139 41s-99.5 41 -118.5 41s-33.833 -1.33301 -44.5 -4s-24.667 -21.667 -42 -57zM681.003 1760h130v-1760h-116l-405 1326l10 -476v-850h-140v1760h104l432 -1361l-15 606v755z" />
    <glyph glyph-name="Ograve" unicode="&#xd2;" horiz-adv-x="887" 
d="M282 1923v160l332 -185v-69zM604 1280c0 140 -10.166 238.333 -30.499 295s-61.833 85 -124.5 85s-106 -29.167 -130 -87.5s-36 -155.5 -36 -291.5v-762c0 -162 8.33301 -265.667 25 -311s35.167 -74.333 55.5 -87s47.166 -19 80.499 -19s60 6.33301 80 19
s38.333 41.5 55 86.5s25 148.833 25 311.5v761zM134.001 1268c0 212.667 26.667 351.501 80 416.501s135.333 97.5 246 97.5s187 -36 229 -108c28 -48.667 45.667 -105.334 53 -170.001s11 -143.334 11 -236.001v-749c0 -152.667 -9.16699 -260.167 -27.5 -322.5
s-38.833 -106.833 -61.5 -133.5c-48 -55.333 -121 -83 -219 -83c-146 0 -237.333 63 -274 189c-24.667 82.667 -37 199.334 -37 350.001v749z" />
    <glyph glyph-name="Oacute" unicode="&#xd3;" horiz-adv-x="887" 
d="M604 1280c0 140 -10.166 238.333 -30.499 295s-61.833 85 -124.5 85s-106 -29.167 -130 -87.5s-36 -155.5 -36 -291.5v-762c0 -162 8.33301 -265.667 25 -311s35.167 -74.333 55.5 -87s47.166 -19 80.499 -19s60 6.33301 80 19s38.333 41.5 55 86.5s25 148.833 25 311.5
v761zM134.001 1268c0 212.667 26.667 351.501 80 416.501s135.333 97.5 246 97.5s187 -36 229 -108c28 -48.667 45.667 -105.334 53 -170.001s11 -143.334 11 -236.001v-749c0 -152.667 -9.16699 -260.167 -27.5 -322.5s-38.833 -106.833 -61.5 -133.5
c-48 -55.333 -121 -83 -219 -83c-146 0 -237.333 63 -274 189c-24.667 82.667 -37 199.334 -37 350.001v749zM267.001 1962l398 158v-144l-398 -83v69z" />
    <glyph glyph-name="Ocircumflex" unicode="&#xd4;" horiz-adv-x="887" 
d="M604 1280c0 140 -10.166 238.333 -30.499 295s-61.833 85 -124.5 85s-106 -29.167 -130 -87.5s-36 -155.5 -36 -291.5v-762c0 -162 8.33301 -265.667 25 -311s35.167 -74.333 55.5 -87s47.166 -19 80.499 -19s60 6.33301 80 19s38.333 41.5 55 86.5s25 148.833 25 311.5
v761zM134.001 1268c0 212.667 26.667 351.501 80 416.501s135.333 97.5 246 97.5s187 -36 229 -108c28 -48.667 45.667 -105.334 53 -170.001s11 -143.334 11 -236.001v-749c0 -152.667 -9.16699 -260.167 -27.5 -322.5s-38.833 -106.833 -61.5 -133.5
c-48 -55.333 -121 -83 -219 -83c-146 0 -237.333 63 -274 189c-24.667 82.667 -37 199.334 -37 350.001v749zM357.001 2090h166l120 -254h-117l-86 175l-86 -175h-118z" />
    <glyph glyph-name="Otilde" unicode="&#xd5;" horiz-adv-x="887" 
d="M152 1944c18.667 64.667 42.1699 103.333 70.5029 116s59 19 92 19s80.333 -12.333 142 -37s99.5 -37 113.5 -37h4c11.333 2 21.166 7.5 29.499 16.5s17.166 27.167 26.499 54.5l105 -28l-9 -26c-19.333 -60.667 -38.833 -100 -58.5 -118s-45.834 -27 -78.501 -27
s-79 13.667 -139 41s-99.5 41 -118.5 41s-33.833 -1.33301 -44.5 -4s-24.667 -21.667 -42 -57zM604.003 1280c0 140 -10.166 238.333 -30.499 295s-61.833 85 -124.5 85s-106 -29.167 -130 -87.5s-36 -155.5 -36 -291.5v-762c0 -162 8.33301 -265.667 25 -311
s35.167 -74.333 55.5 -87s47.166 -19 80.499 -19s60 6.33301 80 19s38.333 41.5 55 86.5s25 148.833 25 311.5v761zM134.004 1268c0 212.667 26.667 351.501 80 416.501s135.333 97.5 246 97.5s187 -36 229 -108c28 -48.667 45.667 -105.334 53 -170.001
s11 -143.334 11 -236.001v-749c0 -152.667 -9.16699 -260.167 -27.5 -322.5s-38.833 -106.833 -61.5 -133.5c-48 -55.333 -121 -83 -219 -83c-146 0 -237.333 63 -274 189c-24.667 82.667 -37 199.334 -37 350.001v749z" />
    <glyph glyph-name="Odieresis" unicode="&#xd6;" horiz-adv-x="887" 
d="M604 1280c0 140 -10.166 238.333 -30.499 295s-61.833 85 -124.5 85s-106 -29.167 -130 -87.5s-36 -155.5 -36 -291.5v-762c0 -162 8.33301 -265.667 25 -311s35.167 -74.333 55.5 -87s47.166 -19 80.499 -19s60 6.33301 80 19s38.333 41.5 55 86.5s25 148.833 25 311.5
v761zM134.001 1268c0 212.667 26.667 351.501 80 416.501s135.333 97.5 246 97.5s187 -36 229 -108c28 -48.667 45.667 -105.334 53 -170.001s11 -143.334 11 -236.001v-749c0 -152.667 -9.16699 -260.167 -27.5 -322.5s-38.833 -106.833 -61.5 -133.5
c-48 -55.333 -121 -83 -219 -83c-146 0 -237.333 63 -274 189c-24.667 82.667 -37 199.334 -37 350.001v749zM107.001 2004h182v-133h-182v133zM537.001 2004h182v-133h-182v133z" />
    <glyph glyph-name="multiply" unicode="&#xd7;" horiz-adv-x="710" 
d="M542 936l84 -84l-188 -187l188 -187l-84 -84l-187 188l-187 -188l-84 84l188 187l-188 187l84 84l187 -188z" />
    <glyph glyph-name="Oslash" unicode="&#xd8;" horiz-adv-x="900" 
d="M602 1384c-4 86 -13.333 149.667 -28 191c-20 56.667 -61.5 85 -124.5 85s-106.5 -29.167 -130.5 -87.5s-36 -155.5 -36 -291.5v-762v-41zM305 216c14.667 -48 33.168 -79 55.501 -93s50.166 -21 83.499 -21s60 6.33301 80 19s38.333 41.5 55 86.5s25 148.833 25 311.5
v539zM173.001 163c-26 83.333 -38.999 202 -38.999 356v749c0 212.667 26.667 351.5 80 416.5s136.666 97.5 249.999 97.5s191.333 -41.333 234 -124l87 248l107 -36l-146 -411c4.66699 -55.333 7 -119 7 -191v-749c0 -152.667 -9.16699 -260.167 -27.5 -322.5
s-38.833 -106.833 -61.5 -133.5c-48 -55.333 -117.833 -83 -209.5 -83s-161.5 21.667 -209.5 65l-89 -251l-99 40z" />
    <glyph glyph-name="Ugrave" unicode="&#xd9;" horiz-adv-x="911" 
d="M293 1925v160l332 -185v-69zM616 1760l149 0.000976562v-1308c0 -165.333 -21 -285.5 -63 -360.5s-123.667 -112.5 -245 -112.5s-203.5 37.667 -246.5 113s-64.5 195.333 -64.5 360v1308h149v-1303c0 -122 5.33301 -203.333 16 -244c20 -74 66.667 -111 140 -111
c60 0 102.5 17.167 127.5 51.5s37.5 135.166 37.5 302.499v1304z" />
    <glyph glyph-name="Uacute" unicode="&#xda;" horiz-adv-x="911" 
d="M616 1760l149 0.000976562v-1308c0 -165.333 -21 -285.5 -63 -360.5s-123.667 -112.5 -245 -112.5s-203.5 37.667 -246.5 113s-64.5 195.333 -64.5 360v1308h149v-1303c0 -122 5.33301 -203.333 16 -244c20 -74 66.667 -111 140 -111c60 0 102.5 17.167 127.5 51.5
s37.5 135.166 37.5 302.499v1304zM293 1963l398 158v-144l-398 -83v69z" />
    <glyph glyph-name="Ucircumflex" unicode="&#xdb;" horiz-adv-x="911" 
d="M616 1760l149 0.000976562v-1308c0 -165.333 -21 -285.5 -63 -360.5s-123.667 -112.5 -245 -112.5s-203.5 37.667 -246.5 113s-64.5 195.333 -64.5 360v1308h149v-1303c0 -122 5.33301 -203.333 16 -244c20 -74 66.667 -111 140 -111c60 0 102.5 17.167 127.5 51.5
s37.5 135.166 37.5 302.499v1304zM383 2092h166l120 -254h-117l-86 175l-86 -175h-118z" />
    <glyph glyph-name="Udieresis" unicode="&#xdc;" horiz-adv-x="911" 
d="M616 1760l149 0.000976562v-1308c0 -165.333 -21 -285.5 -63 -360.5s-123.667 -112.5 -245 -112.5s-203.5 37.667 -246.5 113s-64.5 195.333 -64.5 360v1308h149v-1303c0 -122 5.33301 -203.333 16 -244c20 -74 66.667 -111 140 -111c60 0 102.5 17.167 127.5 51.5
s37.5 135.166 37.5 302.499v1304zM133 2006h182v-133h-182v133zM563 2006h182v-133h-182v133z" />
    <glyph glyph-name="Yacute" unicode="&#xdd;" horiz-adv-x="802" 
d="M235 1963l398 158v-144l-398 -83v69zM624 1760h154l-287 -987v-773h-149v772l-318 988h150l241 -778h3z" />
    <glyph glyph-name="Thorn" unicode="&#xde;" horiz-adv-x="876" 
d="M640 1008c0 135.333 -10 230.667 -30 286s-59.667 83 -119 83h-165v-817h159c61.333 0 102.5 28.833 123.5 86.5s31.5 166.167 31.5 325.5v36zM177 1760l148.999 -0.00195312v-259h157c115.333 0 195 -35.667 239 -107c28.667 -47.333 46.834 -102.666 54.501 -165.999
s11.5 -141.666 11.5 -234.999v-20c0 -152.667 -9.66699 -260 -29 -322s-41 -106.333 -65 -133c-48.667 -56 -122 -84 -220 -84h-148v-434h-149v1760z" />
    <glyph glyph-name="germandbls" unicode="&#xdf;" horiz-adv-x="933" 
d="M153 1417c0 92.667 1.83105 150.168 5.49805 172.501s8.16699 42.5 13.5 60.5c24 87.333 115 131 273 131c65.333 0 118.833 -5.5 160.5 -16.5s75.167 -31 100.5 -60s42.5 -65.833 51.5 -110.5s13.5 -103.667 13.5 -177v-197c0 -86 -11.667 -148 -35 -186
s-68 -67.667 -134 -89c60 -14.667 106.167 -35.5 138.5 -62.5s55.5 -66.167 69.5 -117.5s21 -122 21 -212v-77c0 -127.333 -5.66699 -216.5 -17 -267.5s-28.666 -91.5 -51.999 -121.5c-45.333 -58 -126.666 -87 -243.999 -87h-104v127c86.667 0 143.334 4.66699 170.001 14
s45.167 19.166 55.5 29.499s20.166 29.166 29.499 56.499s14 83.333 14 168v261c0 82.667 -18.167 138.834 -54.5 168.501s-104.833 44.5 -205.5 44.5v138c76.667 0 130 11.5 160 34.5s45 65.833 45 128.5v330c0 72.667 -12.167 122 -36.5 148s-68 39 -131 39
s-105.5 -13.167 -127.5 -39.5s-33 -75.5 -33 -147.5v-1500h-147v1417z" />
    <glyph glyph-name="agrave" unicode="&#xe0;" horiz-adv-x="874" 
d="M293 1664v160l332 -185v-69zM162 1051c0 108.667 2.99707 178.833 8.99707 210.5s12.5 59.334 19.5 83.001s15.333 43.167 25 58.5s21.667 31 36 47s30.833 28.5 49.5 37.5s40.5 16.333 65.5 22s52.833 8.5 83.5 8.5s58.334 -2.66699 83.001 -8
s46.334 -11.333 65.001 -18s34.834 -18.5 48.501 -35.5s25.167 -31.833 34.5 -44.5c32 -43.333 48 -166.333 48 -369v-1043h-149v112c-8.66699 -26.667 -30.167 -53.834 -64.5 -81.501s-78.5 -41.5 -132.5 -41.5c-78.667 0 -138.167 33.167 -178.5 99.5
s-60.5 162.5 -60.5 288.5v192c0 68.667 16.5 122 49.5 160s61.5 64.667 85.5 80c63.333 40 127 73.5 191 100.5l110 46.5v168c0 96.667 -3.66699 153.667 -11 171l-18 42c-14.667 33.333 -50 50 -106 50s-92.167 -23.5 -108.5 -70.5s-24.5 -136.5 -24.5 -268.5v-37h-150v40z
M579.997 836.999c-110 -50 -173.5 -81.333 -190.5 -94s-32.167 -25.667 -45.5 -39c-34.667 -34.667 -52 -99.667 -52 -195v-119c0 -103.333 8 -175.333 24 -216s44.667 -61 86 -61s78 10.333 110 31s54.667 43 68 67v626z" />
    <glyph glyph-name="aacute" unicode="&#xe1;" horiz-adv-x="874" 
d="M281 1703l398 158v-144l-398 -83v69zM162 1051c0 108.667 2.99707 178.833 8.99707 210.5s12.5 59.334 19.5 83.001s15.333 43.167 25 58.5s21.667 31 36 47s30.833 28.5 49.5 37.5s40.5 16.333 65.5 22s52.833 8.5 83.5 8.5s58.334 -2.66699 83.001 -8
s46.334 -11.333 65.001 -18s34.834 -18.5 48.501 -35.5s25.167 -31.833 34.5 -44.5c32 -43.333 48 -166.333 48 -369v-1043h-149v112c-8.66699 -26.667 -30.167 -53.834 -64.5 -81.501s-78.5 -41.5 -132.5 -41.5c-78.667 0 -138.167 33.167 -178.5 99.5
s-60.5 162.5 -60.5 288.5v192c0 68.667 16.5 122 49.5 160s61.5 64.667 85.5 80c63.333 40 127 73.5 191 100.5l110 46.5v168c0 96.667 -3.66699 153.667 -11 171l-18 42c-14.667 33.333 -50 50 -106 50s-92.167 -23.5 -108.5 -70.5s-24.5 -136.5 -24.5 -268.5v-37h-150v40z
M579.997 836.999c-110 -50 -173.5 -81.333 -190.5 -94s-32.167 -25.667 -45.5 -39c-34.667 -34.667 -52 -99.667 -52 -195v-119c0 -103.333 8 -175.333 24 -216s44.667 -61 86 -61s78 10.333 110 31s54.667 43 68 67v626z" />
    <glyph glyph-name="acircumflex" unicode="&#xe2;" horiz-adv-x="874" 
d="M372 1831h166l120 -254h-117l-86 175l-86 -175h-118zM162 1051c0 108.667 2.99707 178.833 8.99707 210.5s12.5 59.334 19.5 83.001s15.333 43.167 25 58.5s21.667 31 36 47s30.833 28.5 49.5 37.5s40.5 16.333 65.5 22s52.833 8.5 83.5 8.5s58.334 -2.66699 83.001 -8
s46.334 -11.333 65.001 -18s34.834 -18.5 48.501 -35.5s25.167 -31.833 34.5 -44.5c32 -43.333 48 -166.333 48 -369v-1043h-149v112c-8.66699 -26.667 -30.167 -53.834 -64.5 -81.501s-78.5 -41.5 -132.5 -41.5c-78.667 0 -138.167 33.167 -178.5 99.5
s-60.5 162.5 -60.5 288.5v192c0 68.667 16.5 122 49.5 160s61.5 64.667 85.5 80c63.333 40 127 73.5 191 100.5l110 46.5v168c0 96.667 -3.66699 153.667 -11 171l-18 42c-14.667 33.333 -50 50 -106 50s-92.167 -23.5 -108.5 -70.5s-24.5 -136.5 -24.5 -268.5v-37h-150v40z
M579.997 836.999c-110 -50 -173.5 -81.333 -190.5 -94s-32.167 -25.667 -45.5 -39c-34.667 -34.667 -52 -99.667 -52 -195v-119c0 -103.333 8 -175.333 24 -216s44.667 -61 86 -61s78 10.333 110 31s54.667 43 68 67v626z" />
    <glyph glyph-name="atilde" unicode="&#xe3;" horiz-adv-x="874" 
d="M163 1685c18.667 64.667 42.1699 103.333 70.5029 116s59 19 92 19s80.333 -12.333 142 -37s99.5 -37 113.5 -37h4c11.333 2 21.166 7.5 29.499 16.5s17.166 27.167 26.499 54.5l105 -28l-9 -26c-19.333 -60.667 -38.833 -100 -58.5 -118s-45.834 -27 -78.501 -27
s-79 13.667 -139 41s-99.5 41 -118.5 41s-33.833 -1.33301 -44.5 -4s-24.667 -21.667 -42 -57zM162.003 1051c0 108.667 2.99707 178.833 8.99707 210.5s12.5 59.334 19.5 83.001s15.333 43.167 25 58.5s21.667 31 36 47s30.833 28.5 49.5 37.5s40.5 16.333 65.5 22
s52.833 8.5 83.5 8.5s58.334 -2.66699 83.001 -8s46.334 -11.333 65.001 -18s34.834 -18.5 48.501 -35.5s25.167 -31.833 34.5 -44.5c32 -43.333 48 -166.333 48 -369v-1043h-149v112c-8.66699 -26.667 -30.167 -53.834 -64.5 -81.501s-78.5 -41.5 -132.5 -41.5
c-78.667 0 -138.167 33.167 -178.5 99.5s-60.5 162.5 -60.5 288.5v192c0 68.667 16.5 122 49.5 160s61.5 64.667 85.5 80c63.333 40 127 73.5 191 100.5l110 46.5v168c0 96.667 -3.66699 153.667 -11 171l-18 42c-14.667 33.333 -50 50 -106 50s-92.167 -23.5 -108.5 -70.5
s-24.5 -136.5 -24.5 -268.5v-37h-150v40zM580 836.998c-110 -50 -173.5 -81.333 -190.5 -94s-32.167 -25.667 -45.5 -39c-34.667 -34.667 -52 -99.667 -52 -195v-119c0 -103.333 8 -175.333 24 -216s44.667 -61 86 -61s78 10.333 110 31s54.667 43 68 67v626z" />
    <glyph glyph-name="adieresis" unicode="&#xe4;" horiz-adv-x="874" 
d="M122 1745h182v-133h-182v133zM552 1745h182v-133h-182v133zM162 1051c0 108.667 2.99707 178.833 8.99707 210.5s12.5 59.334 19.5 83.001s15.333 43.167 25 58.5s21.667 31 36 47s30.833 28.5 49.5 37.5s40.5 16.333 65.5 22s52.833 8.5 83.5 8.5
s58.334 -2.66699 83.001 -8s46.334 -11.333 65.001 -18s34.834 -18.5 48.501 -35.5s25.167 -31.833 34.5 -44.5c32 -43.333 48 -166.333 48 -369v-1043h-149v112c-8.66699 -26.667 -30.167 -53.834 -64.5 -81.501s-78.5 -41.5 -132.5 -41.5
c-78.667 0 -138.167 33.167 -178.5 99.5s-60.5 162.5 -60.5 288.5v192c0 68.667 16.5 122 49.5 160s61.5 64.667 85.5 80c63.333 40 127 73.5 191 100.5l110 46.5v168c0 96.667 -3.66699 153.667 -11 171l-18 42c-14.667 33.333 -50 50 -106 50s-92.167 -23.5 -108.5 -70.5
s-24.5 -136.5 -24.5 -268.5v-37h-150v40zM579.997 836.999c-110 -50 -173.5 -81.333 -190.5 -94s-32.167 -25.667 -45.5 -39c-34.667 -34.667 -52 -99.667 -52 -195v-119c0 -103.333 8 -175.333 24 -216s44.667 -61 86 -61s78 10.333 110 31s54.667 43 68 67v626z" />
    <glyph glyph-name="aring" unicode="&#xe5;" horiz-adv-x="874" 
d="M554 1722c0 28 -8.83301 51.998 -26.5 71.998s-41.834 30 -72.501 30s-54.667 -10.167 -72 -30.5s-26 -44.166 -26 -71.499s8.66699 -51.166 26 -71.499s41.333 -30.5 72 -30.5s54.834 10 72.501 30s26.5 44 26.5 72zM329.5 1615
c-29.667 30.667 -44.5 66.168 -44.5 106.501s14.833 75.833 44.5 106.5s71.334 46 125.001 46s95.167 -15.333 124.5 -46s44 -66.334 44 -107.001s-14.667 -76.167 -44 -106.5s-70.833 -45.5 -124.5 -45.5s-95.334 15.333 -125.001 46zM162 1051
c0 108.667 2.99707 178.833 8.99707 210.5s12.5 59.334 19.5 83.001s15.333 43.167 25 58.5s21.667 31 36 47s30.833 28.5 49.5 37.5s40.5 16.333 65.5 22s52.833 8.5 83.5 8.5s58.334 -2.66699 83.001 -8s46.334 -11.333 65.001 -18s34.834 -18.5 48.501 -35.5
s25.167 -31.833 34.5 -44.5c32 -43.333 48 -166.333 48 -369v-1043h-149v112c-8.66699 -26.667 -30.167 -53.834 -64.5 -81.501s-78.5 -41.5 -132.5 -41.5c-78.667 0 -138.167 33.167 -178.5 99.5s-60.5 162.5 -60.5 288.5v192c0 68.667 16.5 122 49.5 160
s61.5 64.667 85.5 80c63.333 40 127 73.5 191 100.5l110 46.5v168c0 96.667 -3.66699 153.667 -11 171l-18 42c-14.667 33.333 -50 50 -106 50s-92.167 -23.5 -108.5 -70.5s-24.5 -136.5 -24.5 -268.5v-37h-150v40zM579.997 836.998c-110 -50 -173.5 -81.333 -190.5 -94
s-32.167 -25.667 -45.5 -39c-34.667 -34.667 -52 -99.667 -52 -195v-119c0 -103.333 8 -175.333 24 -216s44.667 -61 86 -61s78 10.333 110 31s54.667 43 68 67v626z" />
    <glyph glyph-name="ae" unicode="&#xe6;" horiz-adv-x="1265" 
d="M1000 874l-0.000976562 208c0 126 -3.83301 198.5 -11.5 217.5s-17.5 38.333 -29.5 58s-39.5 29.5 -82.5 29.5s-75.167 -14.333 -96.5 -43s-35.166 -65.5 -41.499 -110.5s-9.5 -101.833 -9.5 -170.5v-189h271zM579.999 211l-0.00195312 629
c-109.333 -50.667 -172.666 -82.667 -189.999 -96s-32.666 -26.333 -45.999 -39c-34.667 -33.333 -52 -98 -52 -194v-121c0 -104 8 -176.333 24 -217s44.667 -61 86 -61s78 10.5 110 31.5s54.667 43.5 68 67.5zM449.997 1518c106.667 0 175.005 -30.334 205.005 -91.001
c48 60.667 119.5 91 214.5 91s159 -21 192 -63s55.833 -91.167 68.5 -147.5s19 -158.166 19 -305.499l1 -248h-421v-311c0.666992 -114 5.66699 -189.667 15 -227c18 -68.667 55.333 -103 112 -103h2c25.333 -0.666992 44.666 1.66602 57.999 6.99902
c46 17.333 72.667 70.333 80 159c2.66699 36.667 4 90 4 160v117h145v-51c0 -162 -3.66699 -257.667 -11 -287c-20.667 -84.667 -38.834 -134.667 -54.501 -150s-32.834 -30.666 -51.501 -45.999c-33.333 -26.667 -86.666 -40 -159.999 -40
c-116.667 0 -197.334 40.333 -242.001 121c-40.667 -39.333 -86 -68.166 -136 -86.499s-89.333 -27.5 -118 -27.5c-152 0 -228 128.667 -228 386v191c0 84 28.667 151.333 86 202c58.667 50.667 154 104 286 160c32 13.333 53.333 22.666 64 27.999v109
c0 137.333 -4.16699 216.5 -12.5 237.5s-18.833 40.5 -31.5 58.5s-41 27 -85 27c-74.667 0 -117.334 -39.333 -128.001 -118c-7.33301 -58 -11 -132.333 -11 -223v-36h-150v40c0 140.667 6 229 18 265c26 76.667 59.167 129.5 99.5 158.5s97.166 43.5 170.499 43.5z" />
    <glyph glyph-name="ccedilla" unicode="&#xe7;" horiz-adv-x="791" 
d="M271 -501c154 0 231 47.001 231 141.001c0 42.667 -15.5 78.167 -46.5 106.5s-68.833 47.5 -113.5 57.5l40 196h57l9 -147c119.333 -60 179 -140.667 179 -242c0 -50.667 -25.667 -97.834 -77 -141.501s-115.333 -65.5 -192 -65.5c-26.667 0 -55.667 3 -87 9v86z
M128 1028c0 166.667 16.666 282.667 49.999 348s78 107.333 134 126c32.667 10.667 77 16 133 16s107.333 -15.333 154 -46c30 -20 54.333 -58.333 73 -115s28 -169 28 -337v-47h-151v92c0 116 -4 191.333 -12 226c-14.667 60 -51.667 90 -111 90
c-72.667 0 -117.667 -42 -135 -126c-9.33301 -45.333 -14 -111.333 -14 -198v-602c0 -135.333 5.16699 -215.833 15.5 -241.5s20.833 -45.167 31.5 -58.5c18.667 -24 52.167 -36 100.5 -36s80.833 21.167 97.5 63.5s25.334 88.5 26.001 138.5s1 92.667 1 128v113h151v-45
c0 -150 -5 -252.667 -15 -308c-26 -151.333 -110.333 -227 -253 -227c-121.333 0 -202 37.333 -242 112c-27.333 50 -44.5 107 -51.5 171s-10.5 146 -10.5 246v517z" />
    <glyph glyph-name="egrave" unicode="&#xe8;" 
d="M260 1664v160l332 -185v-69zM549 877l0.00195312 200.999c0 112.667 -4.33301 186.334 -13 221.001c-14.667 58.667 -51.334 88 -110.001 88c-78.667 0 -125.334 -51.667 -140.001 -155c-6 -42 -9 -93.333 -9 -154v-18v-183h272zM128.002 1014
c0 174.667 16 294.669 48 360.002c33.333 65.333 78 107.666 134 126.999c33.333 11.333 71.833 17 115.5 17s81.5 -5.33301 113.5 -16c48.667 -16 89.667 -59.667 123 -131c24 -50 36 -173 36 -369v-250h-421v-302c0 -154.667 11.5 -249.5 34.5 -284.5s57 -52.5 102 -52.5
s76.667 14 95 42s29.666 64.167 33.999 108.5s6.5 104.5 6.5 180.5v112h145v-49c0 -148 -5 -249.333 -15 -304c-25.333 -147.333 -107.666 -221 -246.999 -221c-121.333 0 -202 37.333 -242 112c-27.333 49.333 -44.5 105.666 -51.5 168.999s-10.5 146 -10.5 248v503z" />
    <glyph glyph-name="eacute" unicode="&#xe9;" 
d="M549 877l0.00195312 200.999c0 112.667 -4.33301 186.334 -13 221.001c-14.667 58.667 -51.334 88 -110.001 88c-78.667 0 -125.334 -51.667 -140.001 -155c-6 -42 -9 -93.333 -9 -154v-18v-183h272zM128.002 1014c0 174.667 16 294.669 48 360.002
c33.333 65.333 78 107.666 134 126.999c33.333 11.333 71.833 17 115.5 17s81.5 -5.33301 113.5 -16c48.667 -16 89.667 -59.667 123 -131c24 -50 36 -173 36 -369v-250h-421v-302c0 -154.667 11.5 -249.5 34.5 -284.5s57 -52.5 102 -52.5s76.667 14 95 42
s29.666 64.167 33.999 108.5s6.5 104.5 6.5 180.5v112h145v-49c0 -148 -5 -249.333 -15 -304c-25.333 -147.333 -107.666 -221 -246.999 -221c-121.333 0 -202 37.333 -242 112c-27.333 49.333 -44.5 105.666 -51.5 168.999s-10.5 146 -10.5 248v503zM256.002 1703l398 158
v-144l-398 -83v69z" />
    <glyph glyph-name="ecircumflex" unicode="&#xea;" 
d="M549 877l0.00195312 200.999c0 112.667 -4.33301 186.334 -13 221.001c-14.667 58.667 -51.334 88 -110.001 88c-78.667 0 -125.334 -51.667 -140.001 -155c-6 -42 -9 -93.333 -9 -154v-18v-183h272zM128.002 1014c0 174.667 16 294.669 48 360.002
c33.333 65.333 78 107.666 134 126.999c33.333 11.333 71.833 17 115.5 17s81.5 -5.33301 113.5 -16c48.667 -16 89.667 -59.667 123 -131c24 -50 36 -173 36 -369v-250h-421v-302c0 -154.667 11.5 -249.5 34.5 -284.5s57 -52.5 102 -52.5s76.667 14 95 42
s29.666 64.167 33.999 108.5s6.5 104.5 6.5 180.5v112h145v-49c0 -148 -5 -249.333 -15 -304c-25.333 -147.333 -107.666 -221 -246.999 -221c-121.333 0 -202 37.333 -242 112c-27.333 49.333 -44.5 105.666 -51.5 168.999s-10.5 146 -10.5 248v503zM347.002 1831h166
l120 -254h-117l-86 175l-86 -175h-118z" />
    <glyph glyph-name="edieresis" unicode="&#xeb;" 
d="M549 877l0.00195312 200.999c0 112.667 -4.33301 186.334 -13 221.001c-14.667 58.667 -51.334 88 -110.001 88c-78.667 0 -125.334 -51.667 -140.001 -155c-6 -42 -9 -93.333 -9 -154v-18v-183h272zM128.002 1014c0 174.667 16 294.669 48 360.002
c33.333 65.333 78 107.666 134 126.999c33.333 11.333 71.833 17 115.5 17s81.5 -5.33301 113.5 -16c48.667 -16 89.667 -59.667 123 -131c24 -50 36 -173 36 -369v-250h-421v-302c0 -154.667 11.5 -249.5 34.5 -284.5s57 -52.5 102 -52.5s76.667 14 95 42
s29.666 64.167 33.999 108.5s6.5 104.5 6.5 180.5v112h145v-49c0 -148 -5 -249.333 -15 -304c-25.333 -147.333 -107.666 -221 -246.999 -221c-121.333 0 -202 37.333 -242 112c-27.333 49.333 -44.5 105.666 -51.5 168.999s-10.5 146 -10.5 248v503zM97.002 1745h182v-133
h-182v133zM527.002 1745h182v-133h-182v133z" />
    <glyph glyph-name="igrave" unicode="&#xec;" horiz-adv-x="474" 
d="M65 1664v160l332 -185v-69zM162 1500h150v-1500h-150v1500z" />
    <glyph glyph-name="iacute" unicode="&#xed;" horiz-adv-x="474" 
d="M162 1500h150v-1500h-150v1500zM53 1703l398 158v-144l-398 -83v69z" />
    <glyph glyph-name="icircumflex" unicode="&#xee;" horiz-adv-x="474" 
d="M162 1500h150v-1500h-150v1500zM144 1831h166l120 -254h-117l-86 175l-86 -175h-118z" />
    <glyph glyph-name="idieresis" unicode="&#xef;" horiz-adv-x="474" 
d="M162 1500h150v-1500h-150v1500zM-106 1745h182v-133h-182v133zM324 1745h182v-133h-182v133z" />
    <glyph glyph-name="eth" unicode="&#xf0;" horiz-adv-x="926" 
d="M616 926c-2 0.666992 -22.168 9.5 -60.501 26.5s-81.166 25.5 -128.499 25.5c-66 0 -110 -30.5 -132 -91.5s-33 -174.833 -33 -341.5v-99c0 -94 5.16699 -164.667 15.5 -212s27.333 -80.333 51 -99s58.5 -28 104.5 -28c72 0 120.5 29.833 145.5 89.5
s37.5 162.5 37.5 308.5v421zM544.999 1534c-60 70.667 -138.666 106.001 -235.999 106.001h-14v140h15c162.667 0 286 -54.667 370 -164l200 119l53 -100l-199 -119c10.667 -32 21 -218 31 -558v-452c0 -202.667 -32.333 -344.667 -97 -426
c-52.667 -66.667 -136 -100 -250 -100s-193.333 38.667 -238 116s-67 192.666 -67 345.999v115c0 206 22.167 348.5 66.5 427.5s122.166 118.5 233.499 118.5c7.33301 0 20.833 -0.333008 40.5 -1s47 -9.16699 82 -25.5s62.5 -38.833 82.5 -67.5
c-5.33301 255.333 -12 397 -20 425l-225 -135l-53 100z" />
    <glyph glyph-name="ntilde" unicode="&#xf1;" horiz-adv-x="922" 
d="M169 1685c18.667 64.667 42.1699 103.333 70.5029 116s59 19 92 19s80.333 -12.333 142 -37s99.5 -37 113.5 -37h4c11.333 2 21.166 7.5 29.499 16.5s17.166 27.167 26.499 54.5l105 -28l-9 -26c-19.333 -60.667 -38.833 -100 -58.5 -118s-45.834 -27 -78.501 -27
s-79 13.667 -139 41s-99.5 41 -118.5 41s-33.833 -1.33301 -44.5 -4s-24.667 -21.667 -42 -57zM309.003 1353c13.333 44.667 42.833 83.5 88.5 116.5s99.5 49.5 161.5 49.5s113 -25.667 153 -77s60 -128.333 60 -231v-1211h-149v1223c0 58 -13.167 99.833 -39.5 125.5
s-61.5 38.5 -105.5 38.5c-112.667 0 -169 -55.667 -169 -167v-1220h-149v1500h149v-147z" />
    <glyph glyph-name="ograve" unicode="&#xf2;" horiz-adv-x="845" 
d="M261 1664v160l332 -185v-69zM568 1053c0 172 -22.667 275.667 -68 311c-20 15.333 -44 23 -72 23c-76 0 -121.333 -42.333 -136 -127c-10 -52.667 -15 -121.667 -15 -207v-590c0 -147.333 12.5 -242.5 37.5 -285.5s64.833 -64.5 119.5 -64.5s90.667 30.5 108 91.5
s26 147.167 26 258.5v590zM128 1018c0 173.333 16.334 292.667 49.001 358s77 107.333 133 126c33.333 10.667 70.666 16 111.999 16c168.667 0 263.334 -91.667 284.001 -275c7.33301 -62.667 11 -137.667 11 -225v-503c0 -118 -2.5 -194.333 -7.5 -229
s-9.83301 -64.667 -14.5 -90c-26.667 -142.667 -119.334 -214 -278.001 -214c-64.667 0 -116.334 13.333 -155.001 40c-73.333 50.667 -115.666 143.667 -126.999 279c-4.66699 60 -7 131.333 -7 214v503z" />
    <glyph glyph-name="oacute" unicode="&#xf3;" horiz-adv-x="845" 
d="M568 1053c0 172 -22.667 275.667 -68 311c-20 15.333 -44 23 -72 23c-76 0 -121.333 -42.333 -136 -127c-10 -52.667 -15 -121.667 -15 -207v-590c0 -147.333 12.5 -242.5 37.5 -285.5s64.833 -64.5 119.5 -64.5s90.667 30.5 108 91.5s26 147.167 26 258.5v590zM128 1018
c0 173.333 16.334 292.667 49.001 358s77 107.333 133 126c33.333 10.667 70.666 16 111.999 16c168.667 0 263.334 -91.667 284.001 -275c7.33301 -62.667 11 -137.667 11 -225v-503c0 -118 -2.5 -194.333 -7.5 -229s-9.83301 -64.667 -14.5 -90
c-26.667 -142.667 -119.334 -214 -278.001 -214c-64.667 0 -116.334 13.333 -155.001 40c-73.333 50.667 -115.666 143.667 -126.999 279c-4.66699 60 -7 131.333 -7 214v503zM258.001 1703l398 158v-144l-398 -83v69z" />
    <glyph glyph-name="ocircumflex" unicode="&#xf4;" horiz-adv-x="845" 
d="M568 1053c0 172 -22.667 275.667 -68 311c-20 15.333 -44 23 -72 23c-76 0 -121.333 -42.333 -136 -127c-10 -52.667 -15 -121.667 -15 -207v-590c0 -147.333 12.5 -242.5 37.5 -285.5s64.833 -64.5 119.5 -64.5s90.667 30.5 108 91.5s26 147.167 26 258.5v590zM128 1018
c0 173.333 16.334 292.667 49.001 358s77 107.333 133 126c33.333 10.667 70.666 16 111.999 16c168.667 0 263.334 -91.667 284.001 -275c7.33301 -62.667 11 -137.667 11 -225v-503c0 -118 -2.5 -194.333 -7.5 -229s-9.83301 -64.667 -14.5 -90
c-26.667 -142.667 -119.334 -214 -278.001 -214c-64.667 0 -116.334 13.333 -155.001 40c-73.333 50.667 -115.666 143.667 -126.999 279c-4.66699 60 -7 131.333 -7 214v503zM348.001 1831h166l120 -254h-117l-86 175l-86 -175h-118z" />
    <glyph glyph-name="otilde" unicode="&#xf5;" horiz-adv-x="845" 
d="M131 1685c18.667 64.667 42.1699 103.333 70.5029 116s59 19 92 19s80.333 -12.333 142 -37s99.5 -37 113.5 -37h4c11.333 2 21.166 7.5 29.499 16.5s17.166 27.167 26.499 54.5l105 -28l-9 -26c-19.333 -60.667 -38.833 -100 -58.5 -118s-45.834 -27 -78.501 -27
s-79 13.667 -139 41s-99.5 41 -118.5 41s-33.833 -1.33301 -44.5 -4s-24.667 -21.667 -42 -57zM568.003 1053c0 172 -22.667 275.667 -68 311c-20 15.333 -44 23 -72 23c-76 0 -121.333 -42.333 -136 -127c-10 -52.667 -15 -121.667 -15 -207v-590
c0 -147.333 12.5 -242.5 37.5 -285.5s64.833 -64.5 119.5 -64.5s90.667 30.5 108 91.5s26 147.167 26 258.5v590zM128.003 1018c0 173.333 16.334 292.667 49.001 358s77 107.333 133 126c33.333 10.667 70.666 16 111.999 16c168.667 0 263.334 -91.667 284.001 -275
c7.33301 -62.667 11 -137.667 11 -225v-503c0 -118 -2.5 -194.333 -7.5 -229s-9.83301 -64.667 -14.5 -90c-26.667 -142.667 -119.334 -214 -278.001 -214c-64.667 0 -116.334 13.333 -155.001 40c-73.333 50.667 -115.666 143.667 -126.999 279
c-4.66699 60 -7 131.333 -7 214v503z" />
    <glyph glyph-name="odieresis" unicode="&#xf6;" horiz-adv-x="845" 
d="M568 1053c0 172 -22.667 275.667 -68 311c-20 15.333 -44 23 -72 23c-76 0 -121.333 -42.333 -136 -127c-10 -52.667 -15 -121.667 -15 -207v-590c0 -147.333 12.5 -242.5 37.5 -285.5s64.833 -64.5 119.5 -64.5s90.667 30.5 108 91.5s26 147.167 26 258.5v590zM128 1018
c0 173.333 16.334 292.667 49.001 358s77 107.333 133 126c33.333 10.667 70.666 16 111.999 16c168.667 0 263.334 -91.667 284.001 -275c7.33301 -62.667 11 -137.667 11 -225v-503c0 -118 -2.5 -194.333 -7.5 -229s-9.83301 -64.667 -14.5 -90
c-26.667 -142.667 -119.334 -214 -278.001 -214c-64.667 0 -116.334 13.333 -155.001 40c-73.333 50.667 -115.666 143.667 -126.999 279c-4.66699 60 -7 131.333 -7 214v503zM98.001 1745h182v-133h-182v133zM528.001 1745h182v-133h-182v133z" />
    <glyph glyph-name="divide" unicode="&#xf7;" horiz-adv-x="804" 
d="M303 1174h198v-198h-198v198zM303 535h198v-208h-198v208zM94 823h616v-115h-616v115z" />
    <glyph glyph-name="oslash" unicode="&#xf8;" horiz-adv-x="879" 
d="M539 1302c-34 46.667 -71 75 -111 85c-76 0 -121.333 -42.333 -136 -127c-10 -52.667 -15 -121.667 -15 -207v-590c0 -32.667 0.666992 -63 2 -91zM327 159c25.333 -30.667 63.168 -46 113.501 -46s84.166 30.5 101.499 91.5s26 147.167 26 258.5v554zM670.002 1379
c31.333 -65.333 47.001 -185.666 47.001 -360.999v-503c0 -118 -2.5 -194.333 -7.5 -229s-9.83301 -64.667 -14.5 -90c-26.667 -142.667 -119.334 -214 -278.001 -214c-52.667 0 -96.667 8.66699 -132 26l-51 -181l-100 28l65 232c-35.333 52.667 -56 116.5 -62 191.5
s-9 153.833 -9 236.5v503c0 173.333 16.333 292.666 49 357.999s77 107.333 133 126c33.333 10.667 77 16 131 16s103 -14.333 147 -43l55 197l101 -28z" />
    <glyph glyph-name="ugrave" unicode="&#xf9;" horiz-adv-x="924" 
d="M321 1664v160l332 -185v-69zM300 292c0 -115.333 50.6689 -173 152.002 -173c49.333 0 88.833 16.5 118.5 49.5s44.5 77.833 44.5 134.5l-1 1197h150v-1500h-149v150c-12.667 -45.333 -39.834 -85 -81.501 -119s-89.834 -51 -144.501 -51s-108 22.5 -160 67.5
s-78 124.167 -78 237.5v1215h149v-1208z" />
    <glyph glyph-name="uacute" unicode="&#xfa;" horiz-adv-x="924" 
d="M300 292c0 -115.333 50.6689 -173 152.002 -173c49.333 0 88.833 16.5 118.5 49.5s44.5 77.833 44.5 134.5l-1 1197h150v-1500h-149v150c-12.667 -45.333 -39.834 -85 -81.501 -119s-89.834 -51 -144.501 -51s-108 22.5 -160 67.5s-78 124.167 -78 237.5v1215h149v-1208z
M309.002 1703l398 158v-144l-398 -83v69z" />
    <glyph glyph-name="ucircumflex" unicode="&#xfb;" horiz-adv-x="924" 
d="M300 292c0 -115.333 50.6689 -173 152.002 -173c49.333 0 88.833 16.5 118.5 49.5s44.5 77.833 44.5 134.5l-1 1197h150v-1500h-149v150c-12.667 -45.333 -39.834 -85 -81.501 -119s-89.834 -51 -144.501 -51s-108 22.5 -160 67.5s-78 124.167 -78 237.5v1215h149v-1208z
M399.002 1831h166l120 -254h-117l-86 175l-86 -175h-118z" />
    <glyph glyph-name="udieresis" unicode="&#xfc;" horiz-adv-x="924" 
d="M300 292c0 -115.333 50.6689 -173 152.002 -173c49.333 0 88.833 16.5 118.5 49.5s44.5 77.833 44.5 134.5l-1 1197h150v-1500h-149v150c-12.667 -45.333 -39.834 -85 -81.501 -119s-89.834 -51 -144.501 -51s-108 22.5 -160 67.5s-78 124.167 -78 237.5v1215h149v-1208z
M149.002 1745h182v-133h-182v133zM579.002 1745h182v-133h-182v133z" />
    <glyph glyph-name="yacute" unicode="&#xfd;" horiz-adv-x="733" 
d="M203 1703l398 158v-144l-398 -83v69zM541 1500l149 0.00195312l-239 -1497c-15.333 -102.667 -33 -166.334 -53 -191.001s-42.5 -39.167 -67.5 -43.5s-50.5 -6.5 -76.5 -6.5h-124v128h55c71.333 0 112.333 3.66699 123 11c9.33301 9.33301 14 22.666 14 39.999
s-1 32 -3 44s-4.66699 29.667 -8 53l-250 1462h150l119 -793l48 -408h13l43 408z" />
    <glyph glyph-name="thorn" unicode="&#xfe;" horiz-adv-x="882" 
d="M597 1062c0 117.333 -4.83398 190.331 -14.501 218.998s-21.167 53.334 -34.5 74.001s-35.333 31 -66 31h-28c-58 0 -97.667 -30.667 -119 -92c-16.667 -48 -25 -126.333 -25 -235v-596c0 -127.333 10.167 -217.166 30.5 -269.499s58.833 -78.5 115.5 -78.5
s94.334 26 113.001 78s28 143.667 28 275v594zM159.999 1783h150.001v-398c35.333 84 101.666 126 198.999 126c112.667 -0.666992 183.667 -67.667 213 -201c16 -74.667 24.333 -173.667 25 -297v-538c0 -243.333 -46.667 -395.666 -140 -456.999
c-37.333 -24 -78 -36 -122 -36s-80.833 12.167 -110.5 36.5s-51.167 54.166 -64.5 89.499v-373h-150v2048z" />
    <glyph glyph-name="ydieresis" unicode="&#xff;" horiz-adv-x="733" 
d="M44 1745h182v-133h-182v133zM474 1745h182v-133h-182v133zM541 1500l149 0.00195312l-239 -1497c-15.333 -102.667 -33 -166.334 -53 -191.001s-42.5 -39.167 -67.5 -43.5s-50.5 -6.5 -76.5 -6.5h-124v128h55c71.333 0 112.333 3.66699 123 11
c9.33301 9.33301 14 22.666 14 39.999s-1 32 -3 44s-4.66699 29.667 -8 53l-250 1462h150l119 -793l48 -408h13l43 408z" />
    <glyph glyph-name="Amacron" unicode="&#x100;" horiz-adv-x="860" 
d="M158 1953h495v-113h-495v113zM339 1760h152l313 -1760h-144l-58 357h-352l-53 -357h-141zM582 480l-162 996h-2l-149 -996h313z" />
    <glyph glyph-name="amacron" unicode="&#x101;" horiz-adv-x="874" 
d="M197 1693h495v-113h-495v113zM162 1051c0 108.667 2.99707 178.833 8.99707 210.5s12.5 59.334 19.5 83.001s15.333 43.167 25 58.5s21.667 31 36 47s30.833 28.5 49.5 37.5s40.5 16.333 65.5 22s52.833 8.5 83.5 8.5s58.334 -2.66699 83.001 -8
s46.334 -11.333 65.001 -18s34.834 -18.5 48.501 -35.5s25.167 -31.833 34.5 -44.5c32 -43.333 48 -166.333 48 -369v-1043h-149v112c-8.66699 -26.667 -30.167 -53.834 -64.5 -81.501s-78.5 -41.5 -132.5 -41.5c-78.667 0 -138.167 33.167 -178.5 99.5
s-60.5 162.5 -60.5 288.5v192c0 68.667 16.5 122 49.5 160s61.5 64.667 85.5 80c63.333 40 127 73.5 191 100.5l110 46.5v168c0 96.667 -3.66699 153.667 -11 171l-18 42c-14.667 33.333 -50 50 -106 50s-92.167 -23.5 -108.5 -70.5s-24.5 -136.5 -24.5 -268.5v-37h-150v40z
M579.997 836.999c-110 -50 -173.5 -81.333 -190.5 -94s-32.167 -25.667 -45.5 -39c-34.667 -34.667 -52 -99.667 -52 -195v-119c0 -103.333 8 -175.333 24 -216s44.667 -61 86 -61s78 10.333 110 31s54.667 43 68 67v626z" />
    <glyph glyph-name="Abreve" unicode="&#x102;" horiz-adv-x="860" 
d="M540 2083l64 -0.000976562v-13c0 -58.667 -16.167 -105.167 -48.5 -139.5s-79.5 -51.5 -141.5 -51.5s-109.333 16.833 -142 50.5s-49 79.834 -49 138.501v15h64c0.666992 -75.333 43 -113 127 -113s126 37.667 126 113zM339 1760h152l313 -1760h-144l-58 357h-352
l-53 -357h-141zM582 479.999l-162 996h-2l-149 -996h313z" />
    <glyph glyph-name="abreve" unicode="&#x103;" horiz-adv-x="874" 
d="M579 1823l64 -0.000976562v-13c0 -58.667 -16.167 -105.167 -48.5 -139.5s-79.5 -51.5 -141.5 -51.5s-109.333 16.833 -142 50.5s-49 79.834 -49 138.501v15h64c0.666992 -75.333 43 -113 127 -113s126 37.667 126 113zM162 1051
c0 108.667 2.99707 178.833 8.99707 210.5s12.5 59.334 19.5 83.001s15.333 43.167 25 58.5s21.667 31 36 47s30.833 28.5 49.5 37.5s40.5 16.333 65.5 22s52.833 8.5 83.5 8.5s58.334 -2.66699 83.001 -8s46.334 -11.333 65.001 -18s34.834 -18.5 48.501 -35.5
s25.167 -31.833 34.5 -44.5c32 -43.333 48 -166.333 48 -369v-1043h-149v112c-8.66699 -26.667 -30.167 -53.834 -64.5 -81.501s-78.5 -41.5 -132.5 -41.5c-78.667 0 -138.167 33.167 -178.5 99.5s-60.5 162.5 -60.5 288.5v192c0 68.667 16.5 122 49.5 160
s61.5 64.667 85.5 80c63.333 40 127 73.5 191 100.5l110 46.5v168c0 96.667 -3.66699 153.667 -11 171l-18 42c-14.667 33.333 -50 50 -106 50s-92.167 -23.5 -108.5 -70.5s-24.5 -136.5 -24.5 -268.5v-37h-150v40zM579.997 836.998c-110 -50 -173.5 -81.333 -190.5 -94
s-32.167 -25.667 -45.5 -39c-34.667 -34.667 -52 -99.667 -52 -195v-119c0 -103.333 8 -175.333 24 -216s44.667 -61 86 -61s78 10.333 110 31s54.667 43 68 67v626z" />
    <glyph glyph-name="Aogonek" unicode="&#x104;" horiz-adv-x="860" 
d="M816 -401c-29.333 -13.333 -72 -20.001 -128 -20.001c-128.667 0 -193 48.333 -193 145c0 46.667 14.667 95 44 145s73.333 97 132 141h64c-48.667 -41.333 -85.167 -84.5 -109.5 -129.5s-36.5 -85.833 -36.5 -122.5c0 -58 36 -87 108 -87c34.667 0 63 3.33301 85 10
s33.333 10.334 34 11.001v-93zM339 1760h152l313 -1760h-144l-58 357h-352l-53 -357h-141zM582 479.999l-162 996h-2l-149 -996h313z" />
    <glyph glyph-name="aogonek" unicode="&#x105;" horiz-adv-x="874" 
d="M811 -401c-29.333 -13.333 -72 -20.001 -128 -20.001c-128.667 0 -193 48.333 -193 145c0 46.667 14.667 95 44 145s73.333 97 132 141h64c-48.667 -41.333 -85.167 -84.5 -109.5 -129.5s-36.5 -85.833 -36.5 -122.5c0 -58 36 -87 108 -87c34.667 0 63 3.33301 85 10
s33.333 10.334 34 11.001v-93zM162 1051c0 108.667 2.99707 178.833 8.99707 210.5s12.5 59.334 19.5 83.001s15.333 43.167 25 58.5s21.667 31 36 47s30.833 28.5 49.5 37.5s40.5 16.333 65.5 22s52.833 8.5 83.5 8.5s58.334 -2.66699 83.001 -8s46.334 -11.333 65.001 -18
s34.834 -18.5 48.501 -35.5s25.167 -31.833 34.5 -44.5c32 -43.333 48 -166.333 48 -369v-1043h-149v112c-8.66699 -26.667 -30.167 -53.834 -64.5 -81.501s-78.5 -41.5 -132.5 -41.5c-78.667 0 -138.167 33.167 -178.5 99.5s-60.5 162.5 -60.5 288.5v192
c0 68.667 16.5 122 49.5 160s61.5 64.667 85.5 80c63.333 40 127 73.5 191 100.5l110 46.5v168c0 96.667 -3.66699 153.667 -11 171l-18 42c-14.667 33.333 -50 50 -106 50s-92.167 -23.5 -108.5 -70.5s-24.5 -136.5 -24.5 -268.5v-37h-150v40zM579.997 836.998
c-110 -50 -173.5 -81.333 -190.5 -94s-32.167 -25.667 -45.5 -39c-34.667 -34.667 -52 -99.667 -52 -195v-119c0 -103.333 8 -175.333 24 -216s44.667 -61 86 -61s78 10.333 110 31s54.667 43 68 67v626z" />
    <glyph glyph-name="Cacute" unicode="&#x106;" horiz-adv-x="865" 
d="M134 1251c0 213.333 26.832 355.168 80.499 425.501s130 105.5 229 105.5s169.833 -24.333 212.5 -73c30.667 -35.333 50.667 -70.333 60 -105c22 -81.333 33 -203 33 -365v-152h-151v170c0 148 -8 247 -24 297s-38.667 81.667 -68 95c-16 7.33301 -34.333 11 -55 11
c-63.333 0 -107.166 -32.333 -131.499 -97s-36.5 -166.334 -36.5 -305.001v-706c0 -170 10.667 -287.5 32 -352.5s64 -97.5 128 -97.5s105.833 32.333 125.5 97s29.5 182 29.5 352v141h150v-140c0 -154 -8.66699 -264.833 -26 -332.5s-37 -116.167 -59 -145.5
c-46.667 -62.667 -119 -94 -217 -94s-171.667 31 -221 93c-60.667 76 -91 235 -91 477v701zM263.999 1963l398 158v-144l-398 -83v69z" />
    <glyph glyph-name="cacute" unicode="&#x107;" horiz-adv-x="791" 
d="M128 1028c0 166.667 16.666 282.667 49.999 348s78 107.333 134 126c32.667 10.667 77 16 133 16s107.333 -15.333 154 -46c30 -20 54.333 -58.333 73 -115s28 -169 28 -337v-47h-151v92c0 116 -4 191.333 -12 226c-14.667 60 -51.667 90 -111 90
c-72.667 0 -117.667 -42 -135 -126c-9.33301 -45.333 -14 -111.333 -14 -198v-602c0 -135.333 5.16699 -215.833 15.5 -241.5s20.833 -45.167 31.5 -58.5c18.667 -24 52.167 -36 100.5 -36s80.833 21.167 97.5 63.5s25.334 88.5 26.001 138.5s1 92.667 1 128v113h151v-45
c0 -150 -5 -252.667 -15 -308c-26 -151.333 -110.333 -227 -253 -227c-121.333 0 -202 37.333 -242 112c-27.333 50 -44.5 107 -51.5 171s-10.5 146 -10.5 246v517zM258.999 1703l398 158v-144l-398 -83v69z" />
    <glyph glyph-name="Ccircumflex" unicode="&#x108;" horiz-adv-x="865" 
d="M134 1251c0 213.333 26.832 355.168 80.499 425.501s130 105.5 229 105.5s169.833 -24.333 212.5 -73c30.667 -35.333 50.667 -70.333 60 -105c22 -81.333 33 -203 33 -365v-152h-151v170c0 148 -8 247 -24 297s-38.667 81.667 -68 95c-16 7.33301 -34.333 11 -55 11
c-63.333 0 -107.166 -32.333 -131.499 -97s-36.5 -166.334 -36.5 -305.001v-706c0 -170 10.667 -287.5 32 -352.5s64 -97.5 128 -97.5s105.833 32.333 125.5 97s29.5 182 29.5 352v141h150v-140c0 -154 -8.66699 -264.833 -26 -332.5s-37 -116.167 -59 -145.5
c-46.667 -62.667 -119 -94 -217 -94s-171.667 31 -221 93c-60.667 76 -91 235 -91 477v701zM354.999 2091h166l120 -254h-117l-86 175l-86 -175h-118z" />
    <glyph glyph-name="ccircumflex" unicode="&#x109;" horiz-adv-x="791" 
d="M128 1028c0 166.667 16.666 282.667 49.999 348s78 107.333 134 126c32.667 10.667 77 16 133 16s107.333 -15.333 154 -46c30 -20 54.333 -58.333 73 -115s28 -169 28 -337v-47h-151v92c0 116 -4 191.333 -12 226c-14.667 60 -51.667 90 -111 90
c-72.667 0 -117.667 -42 -135 -126c-9.33301 -45.333 -14 -111.333 -14 -198v-602c0 -135.333 5.16699 -215.833 15.5 -241.5s20.833 -45.167 31.5 -58.5c18.667 -24 52.167 -36 100.5 -36s80.833 21.167 97.5 63.5s25.334 88.5 26.001 138.5s1 92.667 1 128v113h151v-45
c0 -150 -5 -252.667 -15 -308c-26 -151.333 -110.333 -227 -253 -227c-121.333 0 -202 37.333 -242 112c-27.333 50 -44.5 107 -51.5 171s-10.5 146 -10.5 246v517zM349.999 1831h166l120 -254h-117l-86 175l-86 -175h-118z" />
    <glyph glyph-name="Cdotaccent" unicode="&#x10a;" horiz-adv-x="865" 
d="M368 1988h159v-133h-159v133zM134 1251c0 213.333 26.832 355.168 80.499 425.501s130 105.5 229 105.5s169.833 -24.333 212.5 -73c30.667 -35.333 50.667 -70.333 60 -105c22 -81.333 33 -203 33 -365v-152h-151v170c0 148 -8 247 -24 297s-38.667 81.667 -68 95
c-16 7.33301 -34.333 11 -55 11c-63.333 0 -107.166 -32.333 -131.499 -97s-36.5 -166.334 -36.5 -305.001v-706c0 -170 10.667 -287.5 32 -352.5s64 -97.5 128 -97.5s105.833 32.333 125.5 97s29.5 182 29.5 352v141h150v-140c0 -154 -8.66699 -264.833 -26 -332.5
s-37 -116.167 -59 -145.5c-46.667 -62.667 -119 -94 -217 -94s-171.667 31 -221 93c-60.667 76 -91 235 -91 477v701z" />
    <glyph glyph-name="cdotaccent" unicode="&#x10b;" horiz-adv-x="791" 
d="M352 1728h159v-133h-159v133zM128 1028c0 166.667 16.666 282.667 49.999 348s78 107.333 134 126c32.667 10.667 77 16 133 16s107.333 -15.333 154 -46c30 -20 54.333 -58.333 73 -115s28 -169 28 -337v-47h-151v92c0 116 -4 191.333 -12 226
c-14.667 60 -51.667 90 -111 90c-72.667 0 -117.667 -42 -135 -126c-9.33301 -45.333 -14 -111.333 -14 -198v-602c0 -135.333 5.16699 -215.833 15.5 -241.5s20.833 -45.167 31.5 -58.5c18.667 -24 52.167 -36 100.5 -36s80.833 21.167 97.5 63.5s25.334 88.5 26.001 138.5
s1 92.667 1 128v113h151v-45c0 -150 -5 -252.667 -15 -308c-26 -151.333 -110.333 -227 -253 -227c-121.333 0 -202 37.333 -242 112c-27.333 50 -44.5 107 -51.5 171s-10.5 146 -10.5 246v517z" />
    <glyph glyph-name="Ccaron" unicode="&#x10c;" horiz-adv-x="865" 
d="M134 1251c0 213.333 26.832 355.168 80.499 425.501s130 105.5 229 105.5s169.833 -24.333 212.5 -73c30.667 -35.333 50.667 -70.333 60 -105c22 -81.333 33 -203 33 -365v-152h-151v170c0 148 -8 247 -24 297s-38.667 81.667 -68 95c-16 7.33301 -34.333 11 -55 11
c-63.333 0 -107.166 -32.333 -131.499 -97s-36.5 -166.334 -36.5 -305.001v-706c0 -170 10.667 -287.5 32 -352.5s64 -97.5 128 -97.5s105.833 32.333 125.5 97s29.5 182 29.5 352v141h150v-140c0 -154 -8.66699 -264.833 -26 -332.5s-37 -116.167 -59 -145.5
c-46.667 -62.667 -119 -94 -217 -94s-171.667 31 -221 93c-60.667 76 -91 235 -91 477v701zM523.999 2090h117l-120 -253h-166l-121 253h118l86 -175z" />
    <glyph glyph-name="ccaron" unicode="&#x10d;" horiz-adv-x="791" 
d="M128 1028c0 166.667 16.666 282.667 49.999 348s78 107.333 134 126c32.667 10.667 77 16 133 16s107.333 -15.333 154 -46c30 -20 54.333 -58.333 73 -115s28 -169 28 -337v-47h-151v92c0 116 -4 191.333 -12 226c-14.667 60 -51.667 90 -111 90
c-72.667 0 -117.667 -42 -135 -126c-9.33301 -45.333 -14 -111.333 -14 -198v-602c0 -135.333 5.16699 -215.833 15.5 -241.5s20.833 -45.167 31.5 -58.5c18.667 -24 52.167 -36 100.5 -36s80.833 21.167 97.5 63.5s25.334 88.5 26.001 138.5s1 92.667 1 128v113h151v-45
c0 -150 -5 -252.667 -15 -308c-26 -151.333 -110.333 -227 -253 -227c-121.333 0 -202 37.333 -242 112c-27.333 50 -44.5 107 -51.5 171s-10.5 146 -10.5 246v517zM518.999 1830h117l-120 -253h-166l-121 253h118l86 -175z" />
    <glyph glyph-name="Dcaron" unicode="&#x10e;" horiz-adv-x="903" 
d="M621 1274c0 128 -14.667 220.333 -44 277s-75.333 85 -138 85h-132v-1508h123c82.667 0 136.667 37.667 162 113c20 62 30 154.667 30 278zM159 1760l271 -0.000976562c158 0 258.667 -64.667 302 -194c25.333 -75.333 38 -178 38 -308l1 -754
c0 -183.333 -26 -313.166 -78 -389.499s-141.667 -114.5 -269 -114.5h-265v1760zM521 2090h117l-120 -253h-166l-121 253h118l86 -175z" />
    <glyph glyph-name="dcaron" unicode="&#x10f;" horiz-adv-x="872" 
d="M567 1037c0 128.667 -9.83301 218.833 -29.5 270.5s-57.834 77.5 -114.501 77.5s-94.667 -26.5 -114 -79.5s-29 -144.833 -29 -275.5v-594c0 -137.333 10.833 -225.333 32.5 -264s53.834 -58 96.501 -58s73.167 7.83301 91.5 23.5s34 42 47 79s19.5 109.5 19.5 217.5v603
zM566 1783h150v-1783h-150v114c-34.667 -83.333 -101 -125 -199 -125c-111.333 0.666992 -182 67 -212 199c-16.667 72.667 -25 170.334 -25 293.001v527c0 201.333 24.167 336.666 72.5 405.999s116.5 104 204.5 104c34 0 65.5 -12.167 94.5 -36.5s50.5 -53.833 64.5 -88.5
v390zM854 1783h271v-193l-114 -426h-106l91 417h-142v202z" />
    <glyph glyph-name="Dcroat" unicode="&#x110;" horiz-adv-x="903" 
d="M621 1274c0 128 -14.667 220.333 -44 277s-75.333 85 -138 85h-132v-1508h123c82.667 0 136.667 37.667 162 113c20 62 30 154.667 30 278zM159 1760l271 -0.000976562c158 0 258.667 -64.667 302 -194c25.333 -75.333 38 -178 38 -308l1 -754
c0 -183.333 -26 -313.166 -78 -389.499s-141.667 -114.5 -269 -114.5h-265v1760zM14 953.999h495v-113h-495v113z" />
    <glyph glyph-name="dcroat" unicode="&#x111;" horiz-adv-x="872" 
d="M567 1037c0 128.667 -9.83301 218.833 -29.5 270.5s-57.834 77.5 -114.501 77.5s-94.667 -26.5 -114 -79.5s-29 -144.833 -29 -275.5v-594c0 -137.333 10.833 -225.333 32.5 -264s53.834 -58 96.501 -58s73.167 7.83301 91.5 23.5s34 42 47 79s19.5 109.5 19.5 217.5v603
zM566 1783h150v-1783h-150v114c-34.667 -83.333 -101 -125 -199 -125c-111.333 0.666992 -182 67 -212 199c-16.667 72.667 -25 170.334 -25 293.001v527c0 201.333 24.167 336.666 72.5 405.999s116.5 104 204.5 104c34 0 65.5 -12.167 94.5 -36.5s50.5 -53.833 64.5 -88.5
v390zM372 1685h495v-113h-495v113z" />
    <glyph glyph-name="Emacron" unicode="&#x112;" horiz-adv-x="709" 
d="M140 1953h495v-113h-495v113zM160 1760h465v-116h-316v-688h297v-121h-297v-717h313v-118h-462v1760z" />
    <glyph glyph-name="emacron" unicode="&#x113;" 
d="M164 1693h495v-113h-495v113zM549 877l0.00195312 200.999c0 112.667 -4.33301 186.334 -13 221.001c-14.667 58.667 -51.334 88 -110.001 88c-78.667 0 -125.334 -51.667 -140.001 -155c-6 -42 -9 -93.333 -9 -154v-18v-183h272zM128.002 1014
c0 174.667 16 294.669 48 360.002c33.333 65.333 78 107.666 134 126.999c33.333 11.333 71.833 17 115.5 17s81.5 -5.33301 113.5 -16c48.667 -16 89.667 -59.667 123 -131c24 -50 36 -173 36 -369v-250h-421v-302c0 -154.667 11.5 -249.5 34.5 -284.5s57 -52.5 102 -52.5
s76.667 14 95 42s29.666 64.167 33.999 108.5s6.5 104.5 6.5 180.5v112h145v-49c0 -148 -5 -249.333 -15 -304c-25.333 -147.333 -107.666 -221 -246.999 -221c-121.333 0 -202 37.333 -242 112c-27.333 49.333 -44.5 105.666 -51.5 168.999s-10.5 146 -10.5 248v503z" />
    <glyph glyph-name="Ebreve" unicode="&#x114;" horiz-adv-x="709" 
d="M522 2083l64 -0.000976562v-13c0 -58.667 -16.167 -105.167 -48.5 -139.5s-79.5 -51.5 -141.5 -51.5s-109.333 16.833 -142 50.5s-49 79.834 -49 138.501v15h64c0.666992 -75.333 43 -113 127 -113s126 37.667 126 113zM160 1760h465v-116h-316v-688h297v-121h-297v-717
h313v-118h-462v1760z" />
    <glyph glyph-name="ebreve" unicode="&#x115;" 
d="M546 1823l64 -0.000976562v-13c0 -58.667 -16.167 -105.167 -48.5 -139.5s-79.5 -51.5 -141.5 -51.5s-109.333 16.833 -142 50.5s-49 79.834 -49 138.501v15h64c0.666992 -75.333 43 -113 127 -113s126 37.667 126 113zM549 876.999l0.00195312 200.999
c0 112.667 -4.33301 186.334 -13 221.001c-14.667 58.667 -51.334 88 -110.001 88c-78.667 0 -125.334 -51.667 -140.001 -155c-6 -42 -9 -93.333 -9 -154v-18v-183h272zM128.002 1014c0 174.667 16 294.669 48 360.002c33.333 65.333 78 107.666 134 126.999
c33.333 11.333 71.833 17 115.5 17s81.5 -5.33301 113.5 -16c48.667 -16 89.667 -59.667 123 -131c24 -50 36 -173 36 -369v-250h-421v-302c0 -154.667 11.5 -249.5 34.5 -284.5s57 -52.5 102 -52.5s76.667 14 95 42s29.666 64.167 33.999 108.5s6.5 104.5 6.5 180.5v112
h145v-49c0 -148 -5 -249.333 -15 -304c-25.333 -147.333 -107.666 -221 -246.999 -221c-121.333 0 -202 37.333 -242 112c-27.333 49.333 -44.5 105.666 -51.5 168.999s-10.5 146 -10.5 248v503z" />
    <glyph glyph-name="Edotaccent" unicode="&#x116;" horiz-adv-x="709" 
d="M325 1988h159v-133h-159v133zM160 1760h465v-116h-316v-688h297v-121h-297v-717h313v-118h-462v1760z" />
    <glyph glyph-name="edotaccent" unicode="&#x117;" 
d="M349 1728h159v-133h-159v133zM549 877l0.00195312 200.999c0 112.667 -4.33301 186.334 -13 221.001c-14.667 58.667 -51.334 88 -110.001 88c-78.667 0 -125.334 -51.667 -140.001 -155c-6 -42 -9 -93.333 -9 -154v-18v-183h272zM128.002 1014
c0 174.667 16 294.669 48 360.002c33.333 65.333 78 107.666 134 126.999c33.333 11.333 71.833 17 115.5 17s81.5 -5.33301 113.5 -16c48.667 -16 89.667 -59.667 123 -131c24 -50 36 -173 36 -369v-250h-421v-302c0 -154.667 11.5 -249.5 34.5 -284.5s57 -52.5 102 -52.5
s76.667 14 95 42s29.666 64.167 33.999 108.5s6.5 104.5 6.5 180.5v112h145v-49c0 -148 -5 -249.333 -15 -304c-25.333 -147.333 -107.666 -221 -246.999 -221c-121.333 0 -202 37.333 -242 112c-27.333 49.333 -44.5 105.666 -51.5 168.999s-10.5 146 -10.5 248v503z" />
    <glyph glyph-name="Eogonek" unicode="&#x118;" horiz-adv-x="709" 
d="M160 1760h465v-116h-316v-688h297v-121h-297v-717h313v-118h-462v1760zM630 -401c-29.333 -13.333 -72 -20.001 -128 -20.001c-128.667 0 -193 48.333 -193 145c0 46.667 14.667 95 44 145s73.333 97 132 141h64c-48.667 -41.333 -85.167 -84.5 -109.5 -129.5
s-36.5 -85.833 -36.5 -122.5c0 -58 36 -87 108 -87c34.667 0 63 3.33301 85 10s33.333 10.334 34 11.001v-93z" />
    <glyph glyph-name="eogonek" unicode="&#x119;" 
d="M606 -401c-29.333 -13.333 -72 -20.001 -128 -20.001c-128.667 0 -193 48.333 -193 145c0 46.667 14.667 95 44 145s73.333 97 132 141h64c-48.667 -41.333 -85.167 -84.5 -109.5 -129.5s-36.5 -85.833 -36.5 -122.5c0 -58 36 -87 108 -87c34.667 0 63 3.33301 85 10
s33.333 10.334 34 11.001v-93zM549 876.999l0.00195312 200.999c0 112.667 -4.33301 186.334 -13 221.001c-14.667 58.667 -51.334 88 -110.001 88c-78.667 0 -125.334 -51.667 -140.001 -155c-6 -42 -9 -93.333 -9 -154v-18v-183h272zM128.002 1014
c0 174.667 16 294.669 48 360.002c33.333 65.333 78 107.666 134 126.999c33.333 11.333 71.833 17 115.5 17s81.5 -5.33301 113.5 -16c48.667 -16 89.667 -59.667 123 -131c24 -50 36 -173 36 -369v-250h-421v-302c0 -154.667 11.5 -249.5 34.5 -284.5s57 -52.5 102 -52.5
s76.667 14 95 42s29.666 64.167 33.999 108.5s6.5 104.5 6.5 180.5v112h145v-49c0 -148 -5 -249.333 -15 -304c-25.333 -147.333 -107.666 -221 -246.999 -221c-121.333 0 -202 37.333 -242 112c-27.333 49.333 -44.5 105.666 -51.5 168.999s-10.5 146 -10.5 248v503z" />
    <glyph glyph-name="Ecaron" unicode="&#x11a;" horiz-adv-x="709" 
d="M160 1760h465v-116h-316v-688h297v-121h-297v-717h313v-118h-462v1760zM477 2090h117l-120 -253h-166l-121 253h118l86 -175z" />
    <glyph glyph-name="ecaron" unicode="&#x11b;" 
d="M549 877l0.00195312 200.999c0 112.667 -4.33301 186.334 -13 221.001c-14.667 58.667 -51.334 88 -110.001 88c-78.667 0 -125.334 -51.667 -140.001 -155c-6 -42 -9 -93.333 -9 -154v-18v-183h272zM128.002 1014c0 174.667 16 294.669 48 360.002
c33.333 65.333 78 107.666 134 126.999c33.333 11.333 71.833 17 115.5 17s81.5 -5.33301 113.5 -16c48.667 -16 89.667 -59.667 123 -131c24 -50 36 -173 36 -369v-250h-421v-302c0 -154.667 11.5 -249.5 34.5 -284.5s57 -52.5 102 -52.5s76.667 14 95 42
s29.666 64.167 33.999 108.5s6.5 104.5 6.5 180.5v112h145v-49c0 -148 -5 -249.333 -15 -304c-25.333 -147.333 -107.666 -221 -246.999 -221c-121.333 0 -202 37.333 -242 112c-27.333 49.333 -44.5 105.666 -51.5 168.999s-10.5 146 -10.5 248v503zM516.002 1830h117
l-120 -253h-166l-121 253h118l86 -175z" />
    <glyph glyph-name="Gcircumflex" unicode="&#x11c;" horiz-adv-x="889" 
d="M134 1245c0 182 17.999 308.669 53.999 380.002c52 104.667 137.667 157 257 157c76.667 0 135.334 -15 176.001 -45s67 -62.667 79 -98c22.667 -66 36.167 -128.833 40.5 -188.5s6.5 -127.5 6.5 -203.5v-147h-152v272c0 100 -10 173 -30 219s-59.833 69 -119.5 69
s-101.667 -29.833 -126 -89.5s-36.5 -162.834 -36.5 -309.501v-718c0 -166 10.667 -281 32 -345s63.333 -96 126 -96s104.667 32.333 126 97s32 178.667 32 342v222h-151v127h299v-890h-98l-16 102c-24.667 -41.333 -53.667 -72 -87 -92s-76.333 -30 -129 -30
c-98.667 0 -170.5 43.167 -215.5 129.5s-67.5 227.166 -67.5 422.499v713zM368.999 2091h166l120 -254h-117l-86 175l-86 -175h-118z" />
    <glyph glyph-name="gcircumflex" unicode="&#x11d;" horiz-adv-x="860" 
d="M367 1831h166l120 -254h-117l-86 175l-86 -175h-118zM563 1050c0 150 -11.832 243.667 -35.499 281s-59.667 56 -108 56s-83 -18 -104 -54s-33 -80.667 -36 -134s-4.5 -102.333 -4.5 -147v-441c0 -128.667 11.167 -220.167 33.5 -274.5s64.166 -81.5 125.499 -81.5
c32 0.666992 56.667 9.66699 74 27c36.667 37.333 55 148 55 332v436zM190.501 1376.5c43 94.333 109.167 141.5 198.5 141.5s147.333 -35.333 174 -106v88h149v-1403c0 -148.667 -55.333 -249 -166 -301c-43.333 -20.667 -88.666 -31 -135.999 -31s-96.833 8 -148.5 24
s-94.834 37.333 -129.501 64l57 115c65.333 -48.667 138.666 -73 219.999 -73c51.333 0 89.833 16.833 115.5 50.5s38.5 78.5 38.5 134.5v165c-20 -44.667 -45.167 -75.5 -75.5 -92.5s-66.166 -25.5 -107.499 -25.5c-114.667 0 -189 64.667 -223 194
c-20.667 81.333 -31 185 -31 311v381c0 148 21.5 269.167 64.5 363.5z" />
    <glyph glyph-name="Gbreve" unicode="&#x11e;" horiz-adv-x="889" 
d="M580 2083l64 -0.000976562v-13c0 -58.667 -16.167 -105.167 -48.5 -139.5s-79.5 -51.5 -141.5 -51.5s-109.333 16.833 -142 50.5s-49 79.834 -49 138.501v15h64c0.666992 -75.333 43 -113 127 -113s126 37.667 126 113zM134 1245c0 182 17.999 308.669 53.999 380.002
c52 104.667 137.667 157 257 157c76.667 0 135.334 -15 176.001 -45s67 -62.667 79 -98c22.667 -66 36.167 -128.833 40.5 -188.5s6.5 -127.5 6.5 -203.5v-147h-152v272c0 100 -10 173 -30 219s-59.833 69 -119.5 69s-101.667 -29.833 -126 -89.5
s-36.5 -162.834 -36.5 -309.501v-718c0 -166 10.667 -281 32 -345s63.333 -96 126 -96s104.667 32.333 126 97s32 178.667 32 342v222h-151v127h299v-890h-98l-16 102c-24.667 -41.333 -53.667 -72 -87 -92s-76.333 -30 -129 -30c-98.667 0 -170.5 43.167 -215.5 129.5
s-67.5 227.166 -67.5 422.499v713z" />
    <glyph glyph-name="gbreve" unicode="&#x11f;" horiz-adv-x="860" 
d="M574 1823l64 -0.000976562v-13c0 -58.667 -16.167 -105.167 -48.5 -139.5s-79.5 -51.5 -141.5 -51.5s-109.333 16.833 -142 50.5s-49 79.834 -49 138.501v15h64c0.666992 -75.333 43 -113 127 -113s126 37.667 126 113zM563 1050c0 150 -11.832 243.667 -35.499 281
s-59.667 56 -108 56s-83 -18 -104 -54s-33 -80.667 -36 -134s-4.5 -102.333 -4.5 -147v-441c0 -128.667 11.167 -220.167 33.5 -274.5s64.166 -81.5 125.499 -81.5c32 0.666992 56.667 9.66699 74 27c36.667 37.333 55 148 55 332v436zM190.501 1376.5
c43 94.333 109.167 141.5 198.5 141.5s147.333 -35.333 174 -106v88h149v-1403c0 -148.667 -55.333 -249 -166 -301c-43.333 -20.667 -88.666 -31 -135.999 -31s-96.833 8 -148.5 24s-94.834 37.333 -129.501 64l57 115c65.333 -48.667 138.666 -73 219.999 -73
c51.333 0 89.833 16.833 115.5 50.5s38.5 78.5 38.5 134.5v165c-20 -44.667 -45.167 -75.5 -75.5 -92.5s-66.166 -25.5 -107.499 -25.5c-114.667 0 -189 64.667 -223 194c-20.667 81.333 -31 185 -31 311v381c0 148 21.5 269.167 64.5 363.5z" />
    <glyph glyph-name="Gdotaccent" unicode="&#x120;" horiz-adv-x="889" 
d="M383 1988h159v-133h-159v133zM134 1245c0 182 17.999 308.669 53.999 380.002c52 104.667 137.667 157 257 157c76.667 0 135.334 -15 176.001 -45s67 -62.667 79 -98c22.667 -66 36.167 -128.833 40.5 -188.5s6.5 -127.5 6.5 -203.5v-147h-152v272
c0 100 -10 173 -30 219s-59.833 69 -119.5 69s-101.667 -29.833 -126 -89.5s-36.5 -162.834 -36.5 -309.501v-718c0 -166 10.667 -281 32 -345s63.333 -96 126 -96s104.667 32.333 126 97s32 178.667 32 342v222h-151v127h299v-890h-98l-16 102
c-24.667 -41.333 -53.667 -72 -87 -92s-76.333 -30 -129 -30c-98.667 0 -170.5 43.167 -215.5 129.5s-67.5 227.166 -67.5 422.499v713z" />
    <glyph glyph-name="gdotaccent" unicode="&#x121;" horiz-adv-x="860" 
d="M377 1728h159v-133h-159v133zM563 1050c0 150 -11.832 243.667 -35.499 281s-59.667 56 -108 56s-83 -18 -104 -54s-33 -80.667 -36 -134s-4.5 -102.333 -4.5 -147v-441c0 -128.667 11.167 -220.167 33.5 -274.5s64.166 -81.5 125.499 -81.5
c32 0.666992 56.667 9.66699 74 27c36.667 37.333 55 148 55 332v436zM190.501 1376.5c43 94.333 109.167 141.5 198.5 141.5s147.333 -35.333 174 -106v88h149v-1403c0 -148.667 -55.333 -249 -166 -301c-43.333 -20.667 -88.666 -31 -135.999 -31s-96.833 8 -148.5 24
s-94.834 37.333 -129.501 64l57 115c65.333 -48.667 138.666 -73 219.999 -73c51.333 0 89.833 16.833 115.5 50.5s38.5 78.5 38.5 134.5v165c-20 -44.667 -45.167 -75.5 -75.5 -92.5s-66.166 -25.5 -107.499 -25.5c-114.667 0 -189 64.667 -223 194
c-20.667 81.333 -31 185 -31 311v381c0 148 21.5 269.167 64.5 363.5z" />
    <glyph glyph-name="Gcommaaccent" unicode="&#x122;" horiz-adv-x="889" 
d="M368 -147h197v-183l-78 -282h-62l43 273h-100v192zM134 1245c0 182 17.999 308.669 53.999 380.002c52 104.667 137.667 157 257 157c76.667 0 135.334 -15 176.001 -45s67 -62.667 79 -98c22.667 -66 36.167 -128.833 40.5 -188.5s6.5 -127.5 6.5 -203.5v-147h-152v272
c0 100 -10 173 -30 219s-59.833 69 -119.5 69s-101.667 -29.833 -126 -89.5s-36.5 -162.834 -36.5 -309.501v-718c0 -166 10.667 -281 32 -345s63.333 -96 126 -96s104.667 32.333 126 97s32 178.667 32 342v222h-151v127h299v-890h-98l-16 102
c-24.667 -41.333 -53.667 -72 -87 -92s-76.333 -30 -129 -30c-98.667 0 -170.5 43.167 -215.5 129.5s-67.5 227.166 -67.5 422.499v713z" />
    <glyph glyph-name="gcommaaccent" unicode="&#x123;" horiz-adv-x="860" 
d="M310 2063h197v-183l-78 -282h-62l43 273h-100v192zM563 1050c0 150 -11.832 243.667 -35.499 281s-59.667 56 -108 56s-83 -18 -104 -54s-33 -80.667 -36 -134s-4.5 -102.333 -4.5 -147v-441c0 -128.667 11.167 -220.167 33.5 -274.5s64.166 -81.5 125.499 -81.5
c32 0.666992 56.667 9.66699 74 27c36.667 37.333 55 148 55 332v436zM190.501 1376.5c43 94.333 109.167 141.5 198.5 141.5s147.333 -35.333 174 -106v88h149v-1403c0 -148.667 -55.333 -249 -166 -301c-43.333 -20.667 -88.666 -31 -135.999 -31s-96.833 8 -148.5 24
s-94.834 37.333 -129.501 64l57 115c65.333 -48.667 138.666 -73 219.999 -73c51.333 0 89.833 16.833 115.5 50.5s38.5 78.5 38.5 134.5v165c-20 -44.667 -45.167 -75.5 -75.5 -92.5s-66.166 -25.5 -107.499 -25.5c-114.667 0 -189 64.667 -223 194
c-20.667 81.333 -31 185 -31 311v381c0 148 21.5 269.167 64.5 363.5z" />
    <glyph glyph-name="Hcircumflex" unicode="&#x124;" horiz-adv-x="940" 
d="M631 1760h149v-1760h-149v886h-322v-886h-149v1760h149v-762h322v762zM390 2091h166l120 -254h-117l-86 175l-86 -175h-118z" />
    <glyph glyph-name="hcircumflex" unicode="&#x125;" horiz-adv-x="923" 
d="M502 1381c-128 0 -192.332 -63.333 -192.999 -190v-1191h-149v1783h149v-430c13.333 44.667 43.166 83.5 89.499 116.5s100.5 49.5 162.5 49.5s112.833 -25.667 152.5 -77s59.5 -128.333 59.5 -231v-1211h-150v1201c0 68 -11.833 115 -35.5 141s-52.167 39 -85.5 39z
M380.001 2094h166l120 -254h-117l-86 175l-86 -175h-118z" />
    <glyph glyph-name="Hbar" unicode="&#x126;" horiz-adv-x="932" 
d="M309 1416v-418h322v418h-322zM631 1760h149v-262h120v-82h-120v-1416h-149v886h-322v-886h-149v1416h-105v82h105v262h149v-262h322v262z" />
    <glyph glyph-name="hbar" unicode="&#x127;" horiz-adv-x="924" 
d="M502 1381c-128 0 -192.332 -63.333 -192.999 -190v-1191h-149v1561h-160v121h160v101h149v-101h156v-121h-156v-208c13.333 44.667 43.166 83.5 89.499 116.5s100.5 49.5 162.5 49.5s112.833 -25.667 152.5 -77s59.5 -128.333 59.5 -231v-1211h-150v1201
c0 68 -11.833 115 -35.5 141s-52.167 39 -85.5 39z" />
    <glyph glyph-name="Itilde" unicode="&#x128;" horiz-adv-x="504" 
d="M-40 1945c18.667 64.667 42.1699 103.333 70.5029 116s59 19 92 19s80.333 -12.333 142 -37s99.5 -37 113.5 -37h4c11.333 2 21.166 7.5 29.499 16.5s17.166 27.167 26.499 54.5l105 -28l-9 -26c-19.333 -60.667 -38.833 -100 -58.5 -118s-45.834 -27 -78.501 -27
s-79 13.667 -139 41s-99.5 41 -118.5 41s-33.833 -1.33301 -44.5 -4s-24.667 -21.667 -42 -57zM178.003 1760h149v-1760h-149v1760z" />
    <glyph glyph-name="itilde" unicode="&#x129;" horiz-adv-x="474" 
d="M-65 1685c18.667 64.667 42.1699 103.333 70.5029 116s59 19 92 19s80.333 -12.333 142 -37s99.5 -37 113.5 -37h4c11.333 2 21.166 7.5 29.499 16.5s17.166 27.167 26.499 54.5l105 -28l-9 -26c-19.333 -60.667 -38.833 -100 -58.5 -118s-45.834 -27 -78.501 -27
s-79 13.667 -139 41s-99.5 41 -118.5 41s-33.833 -1.33301 -44.5 -4s-24.667 -21.667 -42 -57zM162.003 1500h150v-1500h-150v1500z" />
    <glyph glyph-name="Imacron" unicode="&#x12a;" horiz-adv-x="504" 
d="M-6 1953h495v-113h-495v113zM178 1760h149v-1760h-149v1760z" />
    <glyph glyph-name="imacron" unicode="&#x12b;" horiz-adv-x="474" 
d="M-31 1693h495v-113h-495v113zM162 1500h150v-1500h-150v1500z" />
    <glyph glyph-name="Ibreve" unicode="&#x12c;" horiz-adv-x="504" 
d="M376 2083l64 -0.000976562v-13c0 -58.667 -16.167 -105.167 -48.5 -139.5s-79.5 -51.5 -141.5 -51.5s-109.333 16.833 -142 50.5s-49 79.834 -49 138.501v15h64c0.666992 -75.333 43 -113 127 -113s126 37.667 126 113zM178 1760h149v-1760h-149v1760z" />
    <glyph glyph-name="ibreve" unicode="&#x12d;" horiz-adv-x="474" 
d="M351 1823l64 -0.000976562v-13c0 -58.667 -16.167 -105.167 -48.5 -139.5s-79.5 -51.5 -141.5 -51.5s-109.333 16.833 -142 50.5s-49 79.834 -49 138.501v15h64c0.666992 -75.333 43 -113 127 -113s126 37.667 126 113zM162 1500h150v-1500h-150v1500z" />
    <glyph glyph-name="Iogonek" unicode="&#x12e;" horiz-adv-x="504" 
d="M384 -401c-29.333 -13.333 -72 -20.001 -128 -20.001c-128.667 0 -193 48.333 -193 145c0 46.667 14.667 95 44 145s73.333 97 132 141h64c-48.667 -41.333 -85.167 -84.5 -109.5 -129.5s-36.5 -85.833 -36.5 -122.5c0 -58 36 -87 108 -87c34.667 0 63 3.33301 85 10
s33.333 10.334 34 11.001v-93zM178 1760h149v-1760h-149v1760z" />
    <glyph glyph-name="iogonek" unicode="&#x12f;" horiz-adv-x="474" 
d="M154 1728h159v-133h-159v133zM380 -401c-29.333 -13.333 -72 -20.001 -128 -20.001c-128.667 0 -193 48.333 -193 145c0 46.667 14.667 95 44 145s73.333 97 132 141h64c-48.667 -41.333 -85.167 -84.5 -109.5 -129.5s-36.5 -85.833 -36.5 -122.5c0 -58 36 -87 108 -87
c34.667 0 63 3.33301 85 10s33.333 10.334 34 11.001v-93zM162 1500h150v-1500h-150v1500z" />
    <glyph glyph-name="Idotaccent" unicode="&#x130;" horiz-adv-x="504" 
d="M179 1988h159v-133h-159v133zM178 1760h149v-1760h-149v1760z" />
    <glyph glyph-name="dotlessi" unicode="&#x131;" horiz-adv-x="474" 
d="M162 1500h150v-1500h-150v1500z" />
    <glyph glyph-name="IJ" unicode="&#x132;" horiz-adv-x="1302" 
d="M1001 1760h149.002v-1340c0 -153.333 -20.833 -265.166 -62.5 -335.499s-112.834 -105.5 -213.501 -105.5s-171.834 32.5 -213.501 97.5s-62.5 169.167 -62.5 312.5v151h151v-209c0 -92.667 9.66699 -151.834 29 -177.501s36.5 -40.5 51.5 -44.5s31.5 -6 49.5 -6
c70.667 0 109.667 46.333 117 139c3.33301 37.333 5 73 5 107v1411zM178.002 1760h149v-1760h-149v1760z" />
    <glyph glyph-name="ij" unicode="&#x133;" horiz-adv-x="978" 
d="M669 1782h149v-144h-149v144zM766 -185c-14.667 -12 -29.667 -21.5 -45 -28.5s-40.333 -10.5 -75 -10.5s-62 2 -82 6h-4v108c13.333 -2.66699 26 -4 38 -4s23.333 1 34 3c24 4 36 26.333 36 67v1544h149v-1534c-0.666992 -74 -17.667 -124.333 -51 -151zM162 1500h150
v-1500h-150v1500zM162 1782h149v-144h-149v144z" />
    <glyph glyph-name="Jcircumflex" unicode="&#x134;" horiz-adv-x="798" 
d="M497 1760h149.002v-1340c0 -153.333 -20.833 -265.166 -62.5 -335.499s-112.834 -105.5 -213.501 -105.5s-171.834 32.5 -213.501 97.5s-62.5 169.167 -62.5 312.5v151h151v-209c0 -92.667 9.66699 -151.834 29 -177.501s36.5 -40.5 51.5 -44.5s31.5 -6 49.5 -6
c70.667 0 109.667 46.333 117 139c3.33301 37.333 5 73 5 107v1411zM471.002 2091h166l120 -254h-117l-86 175l-86 -175h-118z" />
    <glyph glyph-name="jcircumflex" unicode="&#x135;" horiz-adv-x="513" 
d="M352 34c0 -127.333 -56.667 -191 -170 -191c-20 0 -42 1.66699 -66 5l-21 2v108c3.33301 0 13.5 -0.666992 30.5 -2s30.5 -1 40.5 1c24.667 4 37 26.333 37 67v1476h149v-1466zM207 1831h166l120 -254h-117l-86 175l-86 -175h-118z" />
    <glyph glyph-name="Kcommaaccent" unicode="&#x136;" horiz-adv-x="827" 
d="M336 -147h197v-183l-78 -282h-62l43 273h-100v192zM664 1760h144l-362 -869l385 -891h-154l-366 860v-860h-151v1760h149v-867z" />
    <glyph glyph-name="kcommaaccent" unicode="&#x137;" horiz-adv-x="799" 
d="M312 -147h197v-183l-78 -282h-62l43 273h-100v192zM161 1783h149v-1023l331 740h149l-341 -744l359 -756h-156l-342 742v-742h-149v1783z" />
    <glyph glyph-name="kgreenlandic" unicode="&#x138;" horiz-adv-x="799" 
d="M161 1500h149v-740l331 740h149l-341 -744l359 -756h-156l-342 742v-742h-149v1500z" />
    <glyph glyph-name="Lacute" unicode="&#x139;" horiz-adv-x="639" 
d="M160 1760h149v-1642h312v-118h-461v1760zM170 1963l398 158v-144l-398 -83v69z" />
    <glyph glyph-name="lacute" unicode="&#x13a;" horiz-adv-x="470" 
d="M160 1783h150v-1783h-150v1783zM61 1963l398 158v-144l-398 -83v69z" />
    <glyph glyph-name="Lcommaaccent" unicode="&#x13b;" horiz-adv-x="639" 
d="M314 -147h197v-183l-78 -282h-62l43 273h-100v192zM160 1760h149v-1642h312v-118h-461v1760z" />
    <glyph glyph-name="lcommaaccent" unicode="&#x13c;" horiz-adv-x="470" 
d="M147 -147h197v-183l-78 -282h-62l43 273h-100v192zM160 1783h150v-1783h-150v1783z" />
    <glyph glyph-name="Lcaron" unicode="&#x13d;" horiz-adv-x="708" 
d="M160 1760h149v-1642h312v-118h-461v1760zM589 1764h198v-184l-79 -282h-61l42 273h-100v193z" />
    <glyph glyph-name="lcaron" unicode="&#x13e;" horiz-adv-x="470" 
d="M531 1807h271v-193l-114 -426h-106l91 417h-142v202zM160 1783h150v-1783h-150v1783z" />
    <glyph glyph-name="Ldot" unicode="&#x13f;" horiz-adv-x="639" 
d="M502 990h170v-175h-170v175zM160 1760h149v-1642h312v-118h-461v1760z" />
    <glyph glyph-name="ldot" unicode="&#x140;" horiz-adv-x="470" 
d="M505 994h170v-175h-170v175zM160 1783h150v-1783h-150v1783z" />
    <glyph glyph-name="Lslash" unicode="&#x141;" horiz-adv-x="705" 
d="M160 1760h149v-709l188 82v-122l-188 -82v-811h312v-118h-461v864l-161 -70v122l161 70v774z" />
    <glyph glyph-name="lslash" unicode="&#x142;" horiz-adv-x="731" 
d="M254 1783h150v-724l206 94v-143l-206 -94v-916h-150v848l-155 -70v143l155 70v792z" />
    <glyph glyph-name="Nacute" unicode="&#x143;" horiz-adv-x="971" 
d="M681 1760h130v-1760h-116l-405 1326l10 -476v-850h-140v1760h104l432 -1361l-15 606v755zM308 1963l398 158v-144l-398 -83v69z" />
    <glyph glyph-name="nacute" unicode="&#x144;" horiz-adv-x="922" 
d="M287 1703l398 158v-144l-398 -83v69zM309 1353c13.333 44.667 42.833 83.5 88.5 116.5s99.5 49.5 161.5 49.5s113 -25.667 153 -77s60 -128.333 60 -231v-1211h-149v1223c0 58 -13.167 99.833 -39.5 125.5s-61.5 38.5 -105.5 38.5c-112.667 0 -169 -55.667 -169 -167
v-1220h-149v1500h149v-147z" />
    <glyph glyph-name="Ncommaaccent" unicode="&#x145;" horiz-adv-x="971" 
d="M397 -147h197v-183l-78 -282h-62l43 273h-100v192zM681 1760h130v-1760h-116l-405 1326l10 -476v-850h-140v1760h104l432 -1361l-15 606v755z" />
    <glyph glyph-name="ncommaaccent" unicode="&#x146;" horiz-adv-x="922" 
d="M373 -147h197v-183l-78 -282h-62l43 273h-100v192zM309 1353c13.333 44.667 42.833 83.5 88.5 116.5s99.5 49.5 161.5 49.5s113 -25.667 153 -77s60 -128.333 60 -231v-1211h-149v1223c0 58 -13.167 99.833 -39.5 125.5s-61.5 38.5 -105.5 38.5
c-112.667 0 -169 -55.667 -169 -167v-1220h-149v1500h149v-147z" />
    <glyph glyph-name="Ncaron" unicode="&#x147;" horiz-adv-x="971" 
d="M681 1760h130v-1760h-116l-405 1326l10 -476v-850h-140v1760h104l432 -1361l-15 606v755zM567 2090h117l-120 -253h-166l-121 253h118l86 -175z" />
    <glyph glyph-name="ncaron" unicode="&#x148;" horiz-adv-x="922" 
d="M547 1830h117l-120 -253h-166l-121 253h118l86 -175zM309 1353c13.333 44.667 42.833 83.5 88.5 116.5s99.5 49.5 161.5 49.5s113 -25.667 153 -77s60 -128.333 60 -231v-1211h-149v1223c0 58 -13.167 99.833 -39.5 125.5s-61.5 38.5 -105.5 38.5
c-112.667 0 -169 -55.667 -169 -167v-1220h-149v1500h149v-147z" />
    <glyph glyph-name="Omacron" unicode="&#x14c;" horiz-adv-x="887" 
d="M194 2019h516v-115h-516v115zM604 1280c0 140 -10.166 238.333 -30.499 295s-61.833 85 -124.5 85s-106 -29.167 -130 -87.5s-36 -155.5 -36 -291.5v-762c0 -162 8.33301 -265.667 25 -311s35.167 -74.333 55.5 -87s47.166 -19 80.499 -19s60 6.33301 80 19
s38.333 41.5 55 86.5s25 148.833 25 311.5v761zM134.001 1268c0 212.667 26.667 351.501 80 416.501s135.333 97.5 246 97.5s187 -36 229 -108c28 -48.667 45.667 -105.334 53 -170.001s11 -143.334 11 -236.001v-749c0 -152.667 -9.16699 -260.167 -27.5 -322.5
s-38.833 -106.833 -61.5 -133.5c-48 -55.333 -121 -83 -219 -83c-146 0 -237.333 63 -274 189c-24.667 82.667 -37 199.334 -37 350.001v749z" />
    <glyph glyph-name="omacron" unicode="&#x14d;" horiz-adv-x="845" 
d="M168 1755h516v-115h-516v115zM568 1053c0 172 -22.667 275.667 -68 311c-20 15.333 -44 23 -72 23c-76 0 -121.333 -42.333 -136 -127c-10 -52.667 -15 -121.667 -15 -207v-590c0 -147.333 12.5 -242.5 37.5 -285.5s64.833 -64.5 119.5 -64.5s90.667 30.5 108 91.5
s26 147.167 26 258.5v590zM128 1018c0 173.333 16.334 292.667 49.001 358s77 107.333 133 126c33.333 10.667 70.666 16 111.999 16c168.667 0 263.334 -91.667 284.001 -275c7.33301 -62.667 11 -137.667 11 -225v-503c0 -118 -2.5 -194.333 -7.5 -229
s-9.83301 -64.667 -14.5 -90c-26.667 -142.667 -119.334 -214 -278.001 -214c-64.667 0 -116.334 13.333 -155.001 40c-73.333 50.667 -115.666 143.667 -126.999 279c-4.66699 60 -7 131.333 -7 214v503z" />
    <glyph glyph-name="Obreve" unicode="&#x14e;" horiz-adv-x="887" 
d="M568 2082l64 -0.000976562v-13c0 -58.667 -16.167 -105.167 -48.5 -139.5s-79.5 -51.5 -141.5 -51.5s-109.333 16.833 -142 50.5s-49 79.834 -49 138.501v15h64c0.666992 -75.333 43 -113 127 -113s126 37.667 126 113zM604 1280c0 140 -10.166 238.333 -30.499 295
s-61.833 85 -124.5 85s-106 -29.167 -130 -87.5s-36 -155.5 -36 -291.5v-762c0 -162 8.33301 -265.667 25 -311s35.167 -74.333 55.5 -87s47.166 -19 80.499 -19s60 6.33301 80 19s38.333 41.5 55 86.5s25 148.833 25 311.5v761zM134.001 1268
c0 212.667 26.667 351.501 80 416.501s135.333 97.5 246 97.5s187 -36 229 -108c28 -48.667 45.667 -105.334 53 -170.001s11 -143.334 11 -236.001v-749c0 -152.667 -9.16699 -260.167 -27.5 -322.5s-38.833 -106.833 -61.5 -133.5c-48 -55.333 -121 -83 -219 -83
c-146 0 -237.333 63 -274 189c-24.667 82.667 -37 199.334 -37 350.001v749z" />
    <glyph glyph-name="obreve" unicode="&#x14f;" horiz-adv-x="845" 
d="M547 1823l64 -0.000976562v-13c0 -58.667 -16.167 -105.167 -48.5 -139.5s-79.5 -51.5 -141.5 -51.5s-109.333 16.833 -142 50.5s-49 79.834 -49 138.501v15h64c0.666992 -75.333 43 -113 127 -113s126 37.667 126 113zM568 1053c0 172 -22.667 275.667 -68 311
c-20 15.333 -44 23 -72 23c-76 0 -121.333 -42.333 -136 -127c-10 -52.667 -15 -121.667 -15 -207v-590c0 -147.333 12.5 -242.5 37.5 -285.5s64.833 -64.5 119.5 -64.5s90.667 30.5 108 91.5s26 147.167 26 258.5v590zM128 1018c0 173.333 16.334 292.667 49.001 358
s77 107.333 133 126c33.333 10.667 70.666 16 111.999 16c168.667 0 263.334 -91.667 284.001 -275c7.33301 -62.667 11 -137.667 11 -225v-503c0 -118 -2.5 -194.333 -7.5 -229s-9.83301 -64.667 -14.5 -90c-26.667 -142.667 -119.334 -214 -278.001 -214
c-64.667 0 -116.334 13.333 -155.001 40c-73.333 50.667 -115.666 143.667 -126.999 279c-4.66699 60 -7 131.333 -7 214v503z" />
    <glyph glyph-name="Ohungarumlaut" unicode="&#x150;" horiz-adv-x="887" 
d="M604 1280c0 140 -10.166 238.333 -30.499 295s-61.833 85 -124.5 85s-106 -29.167 -130 -87.5s-36 -155.5 -36 -291.5v-762c0 -162 8.33301 -265.667 25 -311s35.167 -74.333 55.5 -87s47.166 -19 80.499 -19s60 6.33301 80 19s38.333 41.5 55 86.5s25 148.833 25 311.5
v761zM134.001 1268c0 212.667 26.667 351.501 80 416.501s135.333 97.5 246 97.5s187 -36 229 -108c28 -48.667 45.667 -105.334 53 -170.001s11 -143.334 11 -236.001v-749c0 -152.667 -9.16699 -260.167 -27.5 -322.5s-38.833 -106.833 -61.5 -133.5
c-48 -55.333 -121 -83 -219 -83c-146 0 -237.333 63 -274 189c-24.667 82.667 -37 199.334 -37 350.001v749zM231.001 1949l107 391l164 -78l-202 -342zM482.001 1949l164 391l167 -89l-263 -342z" />
    <glyph glyph-name="ohungarumlaut" unicode="&#x151;" horiz-adv-x="845" 
d="M568 1053c0 172 -22.667 275.667 -68 311c-20 15.333 -44 23 -72 23c-76 0 -121.333 -42.333 -136 -127c-10 -52.667 -15 -121.667 -15 -207v-590c0 -147.333 12.5 -242.5 37.5 -285.5s64.833 -64.5 119.5 -64.5s90.667 30.5 108 91.5s26 147.167 26 258.5v590zM128 1018
c0 173.333 16.334 292.667 49.001 358s77 107.333 133 126c33.333 10.667 70.666 16 111.999 16c168.667 0 263.334 -91.667 284.001 -275c7.33301 -62.667 11 -137.667 11 -225v-503c0 -118 -2.5 -194.333 -7.5 -229s-9.83301 -64.667 -14.5 -90
c-26.667 -142.667 -119.334 -214 -278.001 -214c-64.667 0 -116.334 13.333 -155.001 40c-73.333 50.667 -115.666 143.667 -126.999 279c-4.66699 60 -7 131.333 -7 214v503zM222.001 1690l107 391l164 -78l-202 -342zM473.001 1690l164 391l167 -89l-263 -342z" />
    <glyph glyph-name="OE" unicode="&#x152;" horiz-adv-x="1168" 
d="M606 126v1508h-153c-66 0 -110.833 -25.333 -134.5 -76s-35.5 -142.667 -35.5 -276v-764c0 -194 14.333 -307.833 43 -341.5s68.667 -50.5 120 -50.5h160zM453 1760l628.998 -0.000976562v-116h-327v-688h308v-120h-308v-718h325v-118h-634
c-97.333 0 -170.666 25.333 -219.999 76c-61.333 63.333 -92 211 -92 443v750c0 130.667 8.33301 224.834 25 282.501s36.334 99.167 59.001 124.5c50.667 56 129 84 235 84z" />
    <glyph glyph-name="oe" unicode="&#x153;" horiz-adv-x="1256" 
d="M988 874l0.00292969 264c0 88.667 -3.33301 141.167 -10 157.5l-17 41.5c-4.66699 11.333 -14.834 22.5 -30.501 33.5s-36.834 16.5 -63.501 16.5c-72.667 0 -117.334 -40.333 -134.001 -121c-10.667 -51.333 -16 -119 -16 -203v-189h271zM567.003 1053
c0 136.667 -11.833 226.667 -35.5 270s-58.5 65 -104.5 65s-82.5 -19 -109.5 -57s-40.5 -130.667 -40.5 -278v-590c0 -146.667 12.167 -241.667 36.5 -285s61.5 -65 111.5 -65c84.667 0 131 77.333 139 232c1.33301 32 2.33301 71.333 3 118v590zM643.003 1396
c51.333 81.333 123.666 121.998 216.999 121.998s158 -23.667 194 -71c20 -26 36 -51.667 48 -77c23.333 -49.333 35 -166.666 35 -351.999v-16v-248h-421v-304c0 -155.333 11.667 -250.333 35 -285s57.333 -52 102 -52s76.167 14 94.5 42s29.5 63.5 33.5 106.5
s6 102.167 6 177.5v117h145v-51c0 -147.333 -5 -248.666 -15 -303.999c-17.333 -98.667 -59 -163.334 -125 -194.001c-35.333 -16.667 -79.666 -25 -132.999 -25c-98.667 0 -173 41.333 -223 124c-49.333 -82.667 -119.666 -124 -210.999 -124
c-113.333 0 -191 37.333 -233 112c-28 50.667 -45.667 109.667 -53 177s-11 148.666 -11 243.999v503c0 174.667 16.333 294.334 49 359.001s77 106.334 133 125.001c33.333 10.667 71.666 16 114.999 16c97.333 0 170 -40.667 218 -122z" />
    <glyph glyph-name="Racute" unicode="&#x154;" horiz-adv-x="903" 
d="M623 1335c0 88.667 -4.16504 153.668 -12.498 195.001s-22.333 69.333 -42 84s-50.834 22 -93.501 22h-167v-668h156c50.667 0 85.167 8.66699 103.5 26s32.166 46.166 41.499 86.499s14 120.833 14 241.5v13zM160.002 1760l298.998 0.000976562
c120.667 0 201.334 -25.333 242.001 -76c30.667 -38 50.167 -84.5 58.5 -139.5s12.5 -134.833 12.5 -239.5s-12.167 -190.167 -36.5 -256.5s-66.166 -107.5 -125.499 -123.5c23.333 -4 43 -11.167 59 -21.5s30.333 -27.833 43 -52.5c39.333 -76.667 59 -265.334 59 -566.001
c0 -124.667 1.16699 -196.5 3.5 -215.5s8.5 -42.167 18.5 -69.5h-148c-10.667 20 -17 57.833 -19 113.5s-3 144.5 -3 266.5v194c0 122.667 -7.5 200.667 -22.5 234s-59.5 50 -133.5 50l-158 10v-868h-149v1760zM284 1963l398 158v-144l-398 -83v69z" />
    <glyph glyph-name="racute" unicode="&#x155;" horiz-adv-x="617" 
d="M565 1518c2.66699 0 4 -10.668 4 -32.001s-0.333008 -42.666 -1 -63.999v-31c-52.667 0 -99.167 -10.5 -139.5 -31.5s-79.833 -58.833 -118.5 -113.5v-1246h-149v1500h149v-167c17.333 58.667 47.833 104.167 91.5 136.5s98.167 48.5 163.5 48.5zM160 1703l398 158v-144
l-398 -83v69z" />
    <glyph glyph-name="Rcommaaccent" unicode="&#x156;" horiz-adv-x="903" 
d="M374 -147h197v-183l-78 -282h-62l43 273h-100v192zM623 1335c0 88.667 -4.16504 153.668 -12.498 195.001s-22.333 69.333 -42 84s-50.834 22 -93.501 22h-167v-668h156c50.667 0 85.167 8.66699 103.5 26s32.166 46.166 41.499 86.499s14 120.833 14 241.5v13z
M160.002 1760l298.998 0.000976562c120.667 0 201.334 -25.333 242.001 -76c30.667 -38 50.167 -84.5 58.5 -139.5s12.5 -134.833 12.5 -239.5s-12.167 -190.167 -36.5 -256.5s-66.166 -107.5 -125.499 -123.5c23.333 -4 43 -11.167 59 -21.5s30.333 -27.833 43 -52.5
c39.333 -76.667 59 -265.334 59 -566.001c0 -124.667 1.16699 -196.5 3.5 -215.5s8.5 -42.167 18.5 -69.5h-148c-10.667 20 -17 57.833 -19 113.5s-3 144.5 -3 266.5v194c0 122.667 -7.5 200.667 -22.5 234s-59.5 50 -133.5 50l-158 10v-868h-149v1760z" />
    <glyph glyph-name="rcommaaccent" unicode="&#x157;" horiz-adv-x="617" 
d="M169 -147h197v-183l-78 -282h-62l43 273h-100v192zM565 1518c2.66699 0 4 -10.668 4 -32.001s-0.333008 -42.666 -1 -63.999v-31c-52.667 0 -99.167 -10.5 -139.5 -31.5s-79.833 -58.833 -118.5 -113.5v-1246h-149v1500h149v-167
c17.333 58.667 47.833 104.167 91.5 136.5s98.167 48.5 163.5 48.5z" />
    <glyph glyph-name="Rcaron" unicode="&#x158;" horiz-adv-x="903" 
d="M623 1335c0 88.667 -4.16504 153.668 -12.498 195.001s-22.333 69.333 -42 84s-50.834 22 -93.501 22h-167v-668h156c50.667 0 85.167 8.66699 103.5 26s32.166 46.166 41.499 86.499s14 120.833 14 241.5v13zM160.002 1760l298.998 0.000976562
c120.667 0 201.334 -25.333 242.001 -76c30.667 -38 50.167 -84.5 58.5 -139.5s12.5 -134.833 12.5 -239.5s-12.167 -190.167 -36.5 -256.5s-66.166 -107.5 -125.499 -123.5c23.333 -4 43 -11.167 59 -21.5s30.333 -27.833 43 -52.5c39.333 -76.667 59 -265.334 59 -566.001
c0 -124.667 1.16699 -196.5 3.5 -215.5s8.5 -42.167 18.5 -69.5h-148c-10.667 20 -17 57.833 -19 113.5s-3 144.5 -3 266.5v194c0 122.667 -7.5 200.667 -22.5 234s-59.5 50 -133.5 50l-158 10v-868h-149v1760zM544 2090h117l-120 -253h-166l-121 253h118l86 -175z" />
    <glyph glyph-name="rcaron" unicode="&#x159;" horiz-adv-x="617" 
d="M565 1518c2.66699 0 4 -10.668 4 -32.001s-0.333008 -42.666 -1 -63.999v-31c-52.667 0 -99.167 -10.5 -139.5 -31.5s-79.833 -58.833 -118.5 -113.5v-1246h-149v1500h149v-167c17.333 58.667 47.833 104.167 91.5 136.5s98.167 48.5 163.5 48.5zM420 1830h117l-120 -253
h-166l-121 253h118l86 -175z" />
    <glyph glyph-name="Sacute" unicode="&#x15a;" horiz-adv-x="795" 
d="M98 1490c10 95.333 38.1641 167.831 84.4971 217.498s118.833 74.5 217.5 74.5s167.334 -24.667 206.001 -74c21.333 -26.667 38 -53.334 50 -80.001c25.333 -54 38.333 -182.667 39 -386v-99h-153v110c0 154.667 -5 248.334 -15 281.001s-20.333 57.334 -31 74.001
c-19.333 30.667 -54 46 -104 46c-101.333 0 -152 -94.333 -152 -283c0 -66 6.33301 -110.833 19 -134.5s22.167 -42.167 28.5 -55.5s48.833 -59.333 127.5 -138l96 -97c142 -146 213 -313.5 213 -502.5s-27.167 -313.5 -81.5 -373.5s-134.833 -90 -241.5 -90
c-164 0 -258.333 99 -283 297c-8.66699 66.667 -13 148.667 -13 246v183h152v-180c0 -158.667 10.5 -268 31.5 -328s63.833 -90 128.5 -90s105.834 19.5 123.501 58.5s27.334 86.167 29.001 141.5s2.5 114.666 2.5 177.999c0 130.667 -51.667 246.334 -155 347.001l-102 97
c-89.333 87.333 -149 160.833 -179 220.5s-45 120.334 -45 182.001s2.33301 114.167 7 157.5zM251.997 1963l398 158v-144l-398 -83v69z" />
    <glyph glyph-name="sacute" unicode="&#x15b;" 
d="M120 1180c0 110.667 26.502 194.668 79.502 252.001s126.167 86 219.5 86s161.666 -37 204.999 -111s65 -197.333 65 -370v-80h-155v107c0 106 -9.16699 185.333 -27.5 238s-50.333 79 -96 79s-80.334 -15.167 -104.001 -45.5s-35.5 -82.833 -35.5 -157.5v-6
c0 -116.667 54.333 -227.667 163 -333l77 -75c132.667 -132.667 199 -279 199 -439c0 -106.667 -23 -190.834 -69 -252.501s-118.333 -92.5 -217 -92.5s-172.5 34 -221.5 102s-73.5 176.333 -73.5 325v129h153v-103c0 -211.333 46 -317 138 -317c49.333 0 84.333 16 105 48
s31 88.667 31 170c0 120.667 -52 234 -156 340l-79 80c-134 136 -201 278 -201 426zM253.002 1703l398 158v-144l-398 -83v69z" />
    <glyph glyph-name="Scircumflex" unicode="&#x15c;" horiz-adv-x="795" 
d="M98 1490c10 95.333 38.1641 167.831 84.4971 217.498s118.833 74.5 217.5 74.5s167.334 -24.667 206.001 -74c21.333 -26.667 38 -53.334 50 -80.001c25.333 -54 38.333 -182.667 39 -386v-99h-153v110c0 154.667 -5 248.334 -15 281.001s-20.333 57.334 -31 74.001
c-19.333 30.667 -54 46 -104 46c-101.333 0 -152 -94.333 -152 -283c0 -66 6.33301 -110.833 19 -134.5s22.167 -42.167 28.5 -55.5s48.833 -59.333 127.5 -138l96 -97c142 -146 213 -313.5 213 -502.5s-27.167 -313.5 -81.5 -373.5s-134.833 -90 -241.5 -90
c-164 0 -258.333 99 -283 297c-8.66699 66.667 -13 148.667 -13 246v183h152v-180c0 -158.667 10.5 -268 31.5 -328s63.833 -90 128.5 -90s105.834 19.5 123.501 58.5s27.334 86.167 29.001 141.5s2.5 114.666 2.5 177.999c0 130.667 -51.667 246.334 -155 347.001l-102 97
c-89.333 87.333 -149 160.833 -179 220.5s-45 120.334 -45 182.001s2.33301 114.167 7 157.5zM341.997 2091h166l120 -254h-117l-86 175l-86 -175h-118z" />
    <glyph glyph-name="scircumflex" unicode="&#x15d;" 
d="M120 1180c0 110.667 26.502 194.668 79.502 252.001s126.167 86 219.5 86s161.666 -37 204.999 -111s65 -197.333 65 -370v-80h-155v107c0 106 -9.16699 185.333 -27.5 238s-50.333 79 -96 79s-80.334 -15.167 -104.001 -45.5s-35.5 -82.833 -35.5 -157.5v-6
c0 -116.667 54.333 -227.667 163 -333l77 -75c132.667 -132.667 199 -279 199 -439c0 -106.667 -23 -190.834 -69 -252.501s-118.333 -92.5 -217 -92.5s-172.5 34 -221.5 102s-73.5 176.333 -73.5 325v129h153v-103c0 -211.333 46 -317 138 -317c49.333 0 84.333 16 105 48
s31 88.667 31 170c0 120.667 -52 234 -156 340l-79 80c-134 136 -201 278 -201 426zM343.002 1831h166l120 -254h-117l-86 175l-86 -175h-118z" />
    <glyph glyph-name="Scedilla" unicode="&#x15e;" horiz-adv-x="795" 
d="M265 -501c154 0 231 47.001 231 141.001c0 42.667 -15.5 78.167 -46.5 106.5s-68.833 47.5 -113.5 57.5l40 196h57l9 -147c119.333 -60 179 -140.667 179 -242c0 -50.667 -25.667 -97.834 -77 -141.501s-115.333 -65.5 -192 -65.5c-26.667 0 -55.667 3 -87 9v86zM98 1490
c10 95.333 38.1641 167.831 84.4971 217.498s118.833 74.5 217.5 74.5s167.334 -24.667 206.001 -74c21.333 -26.667 38 -53.334 50 -80.001c25.333 -54 38.333 -182.667 39 -386v-99h-153v110c0 154.667 -5 248.334 -15 281.001s-20.333 57.334 -31 74.001
c-19.333 30.667 -54 46 -104 46c-101.333 0 -152 -94.333 -152 -283c0 -66 6.33301 -110.833 19 -134.5s22.167 -42.167 28.5 -55.5s48.833 -59.333 127.5 -138l96 -97c142 -146 213 -313.5 213 -502.5s-27.167 -313.5 -81.5 -373.5s-134.833 -90 -241.5 -90
c-164 0 -258.333 99 -283 297c-8.66699 66.667 -13 148.667 -13 246v183h152v-180c0 -158.667 10.5 -268 31.5 -328s63.833 -90 128.5 -90s105.834 19.5 123.501 58.5s27.334 86.167 29.001 141.5s2.5 114.666 2.5 177.999c0 130.667 -51.667 246.334 -155 347.001l-102 97
c-89.333 87.333 -149 160.833 -179 220.5s-45 120.334 -45 182.001s2.33301 114.167 7 157.5z" />
    <glyph glyph-name="scedilla" unicode="&#x15f;" 
d="M275 -501c154 0 231 47.001 231 141.001c0 42.667 -15.5 78.167 -46.5 106.5s-68.833 47.5 -113.5 57.5l40 196h57l9 -147c119.333 -60 179 -140.667 179 -242c0 -50.667 -25.667 -97.834 -77 -141.501s-115.333 -65.5 -192 -65.5c-26.667 0 -55.667 3 -87 9v86z
M120 1180c0 110.667 26.502 194.668 79.502 252.001s126.167 86 219.5 86s161.666 -37 204.999 -111s65 -197.333 65 -370v-80h-155v107c0 106 -9.16699 185.333 -27.5 238s-50.333 79 -96 79s-80.334 -15.167 -104.001 -45.5s-35.5 -82.833 -35.5 -157.5v-6
c0 -116.667 54.333 -227.667 163 -333l77 -75c132.667 -132.667 199 -279 199 -439c0 -106.667 -23 -190.834 -69 -252.501s-118.333 -92.5 -217 -92.5s-172.5 34 -221.5 102s-73.5 176.333 -73.5 325v129h153v-103c0 -211.333 46 -317 138 -317c49.333 0 84.333 16 105 48
s31 88.667 31 170c0 120.667 -52 234 -156 340l-79 80c-134 136 -201 278 -201 426z" />
    <glyph glyph-name="Scaron" unicode="&#x160;" horiz-adv-x="795" 
d="M98 1490c10 95.333 38.1641 167.831 84.4971 217.498s118.833 74.5 217.5 74.5s167.334 -24.667 206.001 -74c21.333 -26.667 38 -53.334 50 -80.001c25.333 -54 38.333 -182.667 39 -386v-99h-153v110c0 154.667 -5 248.334 -15 281.001s-20.333 57.334 -31 74.001
c-19.333 30.667 -54 46 -104 46c-101.333 0 -152 -94.333 -152 -283c0 -66 6.33301 -110.833 19 -134.5s22.167 -42.167 28.5 -55.5s48.833 -59.333 127.5 -138l96 -97c142 -146 213 -313.5 213 -502.5s-27.167 -313.5 -81.5 -373.5s-134.833 -90 -241.5 -90
c-164 0 -258.333 99 -283 297c-8.66699 66.667 -13 148.667 -13 246v183h152v-180c0 -158.667 10.5 -268 31.5 -328s63.833 -90 128.5 -90s105.834 19.5 123.501 58.5s27.334 86.167 29.001 141.5s2.5 114.666 2.5 177.999c0 130.667 -51.667 246.334 -155 347.001l-102 97
c-89.333 87.333 -149 160.833 -179 220.5s-45 120.334 -45 182.001s2.33301 114.167 7 157.5zM510.997 2090h117l-120 -253h-166l-121 253h118l86 -175z" />
    <glyph glyph-name="scaron" unicode="&#x161;" 
d="M120 1180c0 110.667 26.502 194.668 79.502 252.001s126.167 86 219.5 86s161.666 -37 204.999 -111s65 -197.333 65 -370v-80h-155v107c0 106 -9.16699 185.333 -27.5 238s-50.333 79 -96 79s-80.334 -15.167 -104.001 -45.5s-35.5 -82.833 -35.5 -157.5v-6
c0 -116.667 54.333 -227.667 163 -333l77 -75c132.667 -132.667 199 -279 199 -439c0 -106.667 -23 -190.834 -69 -252.501s-118.333 -92.5 -217 -92.5s-172.5 34 -221.5 102s-73.5 176.333 -73.5 325v129h153v-103c0 -211.333 46 -317 138 -317c49.333 0 84.333 16 105 48
s31 88.667 31 170c0 120.667 -52 234 -156 340l-79 80c-134 136 -201 278 -201 426zM512.002 1830h117l-120 -253h-166l-121 253h118l86 -175z" />
    <glyph glyph-name="Tcaron" unicode="&#x164;" horiz-adv-x="577" 
d="M40 1760h497v-116h-165v-1644h-148v1644h-184v116zM370 2090h117l-120 -253h-166l-121 253h118l86 -175z" />
    <glyph glyph-name="tcaron" unicode="&#x165;" horiz-adv-x="582" 
d="M195 1760l150 0.00195312v-254h177v-116h-177v-1181c0 -30 3.66699 -50.667 11 -62s21 -19 41 -23s61.333 -6 124 -6v-127h-104c-94.667 0 -155.667 16.667 -183 50c-16 19.333 -26.5 42.166 -31.5 68.499s-7.5 62.166 -7.5 107.499v1173h-150v116h150v254zM609 1759h271
v-193l-114 -426h-106l91 417h-142v202z" />
    <glyph glyph-name="Utilde" unicode="&#x168;" horiz-adv-x="911" 
d="M163 1946c18.667 64.667 42.1699 103.333 70.5029 116s59 19 92 19s80.333 -12.333 142 -37s99.5 -37 113.5 -37h4c11.333 2 21.166 7.5 29.499 16.5s17.166 27.167 26.499 54.5l105 -28l-9 -26c-19.333 -60.667 -38.833 -100 -58.5 -118s-45.834 -27 -78.501 -27
s-79 13.667 -139 41s-99.5 41 -118.5 41s-33.833 -1.33301 -44.5 -4s-24.667 -21.667 -42 -57zM616.003 1760l149 0.000976562v-1308c0 -165.333 -21 -285.5 -63 -360.5s-123.667 -112.5 -245 -112.5s-203.5 37.667 -246.5 113s-64.5 195.333 -64.5 360v1308h149v-1303
c0 -122 5.33301 -203.333 16 -244c20 -74 66.667 -111 140 -111c60 0 102.5 17.167 127.5 51.5s37.5 135.166 37.5 302.499v1304z" />
    <glyph glyph-name="utilde" unicode="&#x169;" horiz-adv-x="924" 
d="M191 1685c18.667 64.667 42.1699 103.333 70.5029 116s59 19 92 19s80.333 -12.333 142 -37s99.5 -37 113.5 -37h4c11.333 2 21.166 7.5 29.499 16.5s17.166 27.167 26.499 54.5l105 -28l-9 -26c-19.333 -60.667 -38.833 -100 -58.5 -118s-45.834 -27 -78.501 -27
s-79 13.667 -139 41s-99.5 41 -118.5 41s-33.833 -1.33301 -44.5 -4s-24.667 -21.667 -42 -57zM300.003 291.999c0 -115.333 50.6689 -173 152.002 -173c49.333 0 88.833 16.5 118.5 49.5s44.5 77.833 44.5 134.5l-1 1197h150v-1500h-149v150
c-12.667 -45.333 -39.834 -85 -81.501 -119s-89.834 -51 -144.501 -51s-108 22.5 -160 67.5s-78 124.167 -78 237.5v1215h149v-1208z" />
    <glyph glyph-name="Umacron" unicode="&#x16a;" horiz-adv-x="911" 
d="M197 1954h495v-113h-495v113zM616 1760l149 0.000976562v-1308c0 -165.333 -21 -285.5 -63 -360.5s-123.667 -112.5 -245 -112.5s-203.5 37.667 -246.5 113s-64.5 195.333 -64.5 360v1308h149v-1303c0 -122 5.33301 -203.333 16 -244c20 -74 66.667 -111 140 -111
c60 0 102.5 17.167 127.5 51.5s37.5 135.166 37.5 302.499v1304z" />
    <glyph glyph-name="umacron" unicode="&#x16b;" horiz-adv-x="924" 
d="M225 1693h495v-113h-495v113zM300 292c0 -115.333 50.6689 -173 152.002 -173c49.333 0 88.833 16.5 118.5 49.5s44.5 77.833 44.5 134.5l-1 1197h150v-1500h-149v150c-12.667 -45.333 -39.834 -85 -81.501 -119s-89.834 -51 -144.501 -51s-108 22.5 -160 67.5
s-78 124.167 -78 237.5v1215h149v-1208z" />
    <glyph glyph-name="Ubreve" unicode="&#x16c;" horiz-adv-x="911" 
d="M579 2084l64 -0.000976562v-13c0 -58.667 -16.167 -105.167 -48.5 -139.5s-79.5 -51.5 -141.5 -51.5s-109.333 16.833 -142 50.5s-49 79.834 -49 138.501v15h64c0.666992 -75.333 43 -113 127 -113s126 37.667 126 113zM616 1760l149 0.000976562v-1308
c0 -165.333 -21 -285.5 -63 -360.5s-123.667 -112.5 -245 -112.5s-203.5 37.667 -246.5 113s-64.5 195.333 -64.5 360v1308h149v-1303c0 -122 5.33301 -203.333 16 -244c20 -74 66.667 -111 140 -111c60 0 102.5 17.167 127.5 51.5s37.5 135.166 37.5 302.499v1304z" />
    <glyph glyph-name="ubreve" unicode="&#x16d;" horiz-adv-x="924" 
d="M607 1823l64 -0.000976562v-13c0 -58.667 -16.167 -105.167 -48.5 -139.5s-79.5 -51.5 -141.5 -51.5s-109.333 16.833 -142 50.5s-49 79.834 -49 138.501v15h64c0.666992 -75.333 43 -113 127 -113s126 37.667 126 113zM300 291.999
c0 -115.333 50.6689 -173 152.002 -173c49.333 0 88.833 16.5 118.5 49.5s44.5 77.833 44.5 134.5l-1 1197h150v-1500h-149v150c-12.667 -45.333 -39.834 -85 -81.501 -119s-89.834 -51 -144.501 -51s-108 22.5 -160 67.5s-78 124.167 -78 237.5v1215h149v-1208z" />
    <glyph glyph-name="Uring" unicode="&#x16e;" horiz-adv-x="911" 
d="M616 1760l149 0.000976562v-1308c0 -165.333 -21 -285.5 -63 -360.5s-123.667 -112.5 -245 -112.5s-203.5 37.667 -246.5 113s-64.5 195.333 -64.5 360v1308h149v-1303c0 -122 5.33301 -203.333 16 -244c20 -74 66.667 -111 140 -111c60 0 102.5 17.167 127.5 51.5
s37.5 135.166 37.5 302.499v1304zM565 1983c0 28 -8.83301 51.998 -26.5 71.998s-41.834 30 -72.501 30s-54.667 -10.167 -72 -30.5s-26 -44.166 -26 -71.499s8.66699 -51.166 26 -71.499s41.333 -30.5 72 -30.5s54.834 10 72.501 30s26.5 44 26.5 72zM340.5 1876
c-29.667 30.667 -44.5 66.1689 -44.5 106.502s14.833 75.833 44.5 106.499c29.667 30.667 71.334 46 125.001 46s95.167 -15.333 124.5 -46s44 -66.334 44 -107.001s-14.667 -76.167 -44 -106.5s-70.833 -45.5 -124.5 -45.5s-95.334 15.333 -125.001 46z" />
    <glyph glyph-name="uring" unicode="&#x16f;" horiz-adv-x="924" 
d="M300 292c0 -115.333 50.6689 -173 152.002 -173c49.333 0 88.833 16.5 118.5 49.5s44.5 77.833 44.5 134.5l-1 1197h150v-1500h-149v150c-12.667 -45.333 -39.834 -85 -81.501 -119s-89.834 -51 -144.501 -51s-108 22.5 -160 67.5s-78 124.167 -78 237.5v1215h149v-1208z
M582.002 1722c0 28 -8.83301 51.998 -26.5 71.998s-41.834 30 -72.501 30s-54.667 -10.167 -72 -30.5s-26 -44.166 -26 -71.499s8.66699 -51.166 26 -71.499s41.333 -30.5 72 -30.5s54.834 10 72.501 30s26.5 44 26.5 72zM357.502 1615
c-29.667 30.667 -44.5 66.168 -44.5 106.501s14.833 75.833 44.5 106.5s71.334 46 125.001 46s95.167 -15.333 124.5 -46s44 -66.334 44 -107.001s-14.667 -76.167 -44 -106.5s-70.833 -45.5 -124.5 -45.5s-95.334 15.333 -125.001 46z" />
    <glyph glyph-name="Uhungarumlaut" unicode="&#x170;" horiz-adv-x="911" 
d="M246 1951l107 391l164 -78l-202 -342zM497 1951l164 391l167 -89l-263 -342zM616 1760l149 0.000976562v-1308c0 -165.333 -21 -285.5 -63 -360.5s-123.667 -112.5 -245 -112.5s-203.5 37.667 -246.5 113s-64.5 195.333 -64.5 360v1308h149v-1303
c0 -122 5.33301 -203.333 16 -244c20 -74 66.667 -111 140 -111c60 0 102.5 17.167 127.5 51.5s37.5 135.166 37.5 302.499v1304z" />
    <glyph glyph-name="uhungarumlaut" unicode="&#x171;" horiz-adv-x="924" 
d="M274 1690l107 391l164 -78l-202 -342zM525 1690l164 391l167 -89l-263 -342zM300 292c0 -115.333 50.6689 -173 152.002 -173c49.333 0 88.833 16.5 118.5 49.5s44.5 77.833 44.5 134.5l-1 1197h150v-1500h-149v150c-12.667 -45.333 -39.834 -85 -81.501 -119
s-89.834 -51 -144.501 -51s-108 22.5 -160 67.5s-78 124.167 -78 237.5v1215h149v-1208z" />
    <glyph glyph-name="Uogonek" unicode="&#x172;" horiz-adv-x="911" 
d="M616 1760l149 0.000976562v-1308c0 -165.333 -21 -285.5 -63 -360.5s-123.667 -112.5 -245 -112.5s-203.5 37.667 -246.5 113s-64.5 195.333 -64.5 360v1308h149v-1303c0 -122 5.33301 -203.333 16 -244c20 -74 66.667 -111 140 -111c60 0 102.5 17.167 127.5 51.5
s37.5 135.166 37.5 302.499v1304zM604 -400.999c-29.333 -13.333 -72 -20.001 -128 -20.001c-128.667 0 -193 48.333 -193 145c0 46.667 14.667 95 44 145s73.333 97 132 141h64c-48.667 -41.333 -85.167 -84.5 -109.5 -129.5s-36.5 -85.833 -36.5 -122.5
c0 -58 36 -87 108 -87c34.667 0 63 3.33301 85 10s33.333 10.334 34 11.001v-93z" />
    <glyph glyph-name="uogonek" unicode="&#x173;" horiz-adv-x="924" 
d="M300 292c0 -115.333 50.6689 -173 152.002 -173c49.333 0 88.833 16.5 118.5 49.5s44.5 77.833 44.5 134.5l-1 1197h150v-1500h-149v150c-12.667 -45.333 -39.834 -85 -81.501 -119s-89.834 -51 -144.501 -51s-108 22.5 -160 67.5s-78 124.167 -78 237.5v1215h149v-1208z
M806.002 -401c-29.333 -13.333 -72 -20.001 -128 -20.001c-128.667 0 -193 48.333 -193 145c0 46.667 14.667 95 44 145s73.333 97 132 141h64c-48.667 -41.333 -85.167 -84.5 -109.5 -129.5s-36.5 -85.833 -36.5 -122.5c0 -58 36 -87 108 -87c34.667 0 63 3.33301 85 10
s33.333 10.334 34 11.001v-93z" />
    <glyph glyph-name="Wcircumflex" unicode="&#x174;" horiz-adv-x="1338" 
d="M1127 1760h141l-213 -1760h-147l-218 1448l-234 -1448h-137l-249 1760h146l184 -1438l220 1438h124l235 -1438zM609 2091h166l120 -254h-117l-86 175l-86 -175h-118z" />
    <glyph glyph-name="wcircumflex" unicode="&#x175;" horiz-adv-x="1075" 
d="M885 1500h132l-174 -1500h-148l-147 1283l-173 -1283h-142l-176 1500h137l90 -887l24 -311h12l30 312l126 886h127l137 -854l40 -344h10l20 346zM464 1831h166l120 -254h-117l-86 175l-86 -175h-118z" />
    <glyph glyph-name="Ycircumflex" unicode="&#x176;" horiz-adv-x="802" 
d="M326 2091h166l120 -254h-117l-86 175l-86 -175h-118zM624 1760h154l-287 -987v-773h-149v772l-318 988h150l241 -778h3z" />
    <glyph glyph-name="ycircumflex" unicode="&#x177;" horiz-adv-x="733" 
d="M294 1831h166l120 -254h-117l-86 175l-86 -175h-118zM541 1500l149 0.00195312l-239 -1497c-15.333 -102.667 -33 -166.334 -53 -191.001s-42.5 -39.167 -67.5 -43.5s-50.5 -6.5 -76.5 -6.5h-124v128h55c71.333 0 112.333 3.66699 123 11
c9.33301 9.33301 14 22.666 14 39.999s-1 32 -3 44s-4.66699 29.667 -8 53l-250 1462h150l119 -793l48 -408h13l43 408z" />
    <glyph glyph-name="Ydieresis" unicode="&#x178;" horiz-adv-x="802" 
d="M76 2005h182v-133h-182v133zM506 2005h182v-133h-182v133zM624 1760h154l-287 -987v-773h-149v772l-318 988h150l241 -778h3z" />
    <glyph glyph-name="Zacute" unicode="&#x179;" horiz-adv-x="691" 
d="M121 1760h482v-102l-341 -1540h335v-118h-485v125l339 1519h-330v116zM238 1963l398 158v-144l-398 -83v69z" />
    <glyph glyph-name="zacute" unicode="&#x17a;" horiz-adv-x="635" 
d="M107 1500h463v-93l-334 -1277h314v-130h-468v108l329 1263h-304v129zM191 1703l398 158v-144l-398 -83v69z" />
    <glyph glyph-name="Zdotaccent" unicode="&#x17b;" horiz-adv-x="691" 
d="M320 1988h159v-133h-159v133zM121 1760h482v-102l-341 -1540h335v-118h-485v125l339 1519h-330v116z" />
    <glyph glyph-name="zdotaccent" unicode="&#x17c;" horiz-adv-x="635" 
d="M292 1728h159v-133h-159v133zM107 1500h463v-93l-334 -1277h314v-130h-468v108l329 1263h-304v129z" />
    <glyph glyph-name="Zcaron" unicode="&#x17d;" horiz-adv-x="691" 
d="M121 1760h482v-102l-341 -1540h335v-118h-485v125l339 1519h-330v116zM498 2090h117l-120 -253h-166l-121 253h118l86 -175z" />
    <glyph glyph-name="zcaron" unicode="&#x17e;" horiz-adv-x="635" 
d="M107 1500h463v-93l-334 -1277h314v-130h-468v108l329 1263h-304v129zM450 1830h117l-120 -253h-166l-121 253h118l86 -175z" />
    <glyph glyph-name="florin" unicode="&#x192;" horiz-adv-x="767" 
d="M316 1539c0 165.333 60.001 248 180.001 248c41.333 0 93.333 -11.667 156 -35v-122c-51.333 16 -91 24 -119 24s-48.333 -10.333 -61 -31s-19 -54.667 -19 -102v-269h214v-106h-214v-925c0 -155.333 -67 -233 -201 -233c-38.667 0 -84.334 6.66699 -137.001 20v122
c26.667 -1.33301 45 -2 55 -2c62.667 0 102.667 11 120 33s26 70 26 144v841h-209v106h209v287z" />
    <glyph glyph-name="uni01C4" unicode="&#x1c4;" horiz-adv-x="1594" 
d="M1024 1760h482v-102l-341 -1540h335v-118h-485v125l339 1519h-330v116zM1401 2090h117l-120 -253h-166l-121 253h118l86 -175zM621 1274c0 128 -14.667 220.333 -44 277s-75.333 85 -138 85h-132v-1508h123c82.667 0 136.667 37.667 162 113c20 62 30 154.667 30 278z
M159 1760l271 -0.000976562c158 0 258.667 -64.667 302 -194c25.333 -75.333 38 -178 38 -308l1 -754c0 -183.333 -26 -313.166 -78 -389.499s-141.667 -114.5 -269 -114.5h-265v1760z" />
    <glyph glyph-name="uni01C5" unicode="&#x1c5;" horiz-adv-x="1538" 
d="M1010 1500h463v-93l-334 -1277h314v-130h-468v108l329 1263h-304v129zM1353 1830h117l-120 -253h-166l-121 253h118l86 -175zM621 1274c0 128 -14.667 220.333 -44 277s-75.333 85 -138 85h-132v-1508h123c82.667 0 136.667 37.667 162 113c20 62 30 154.667 30 278z
M159 1760l271 -0.000976562c158 0 258.667 -64.667 302 -194c25.333 -75.333 38 -178 38 -308l1 -754c0 -183.333 -26 -313.166 -78 -389.499s-141.667 -114.5 -269 -114.5h-265v1760z" />
    <glyph glyph-name="uni01C6" unicode="&#x1c6;" horiz-adv-x="1505" 
d="M977 1500h463v-93l-334 -1277h314v-130h-468v108l329 1263h-304v129zM1320 1830h117l-120 -253h-166l-121 253h118l86 -175zM567 1037c0 128.667 -9.83301 218.833 -29.5 270.5s-57.834 77.5 -114.501 77.5s-94.667 -26.5 -114 -79.5s-29 -144.833 -29 -275.5v-594
c0 -137.333 10.833 -225.333 32.5 -264s53.834 -58 96.501 -58s73.167 7.83301 91.5 23.5s34 42 47 79s19.5 109.5 19.5 217.5v603zM566 1783h150v-1783h-150v114c-34.667 -83.333 -101 -125 -199 -125c-111.333 0.666992 -182 67 -212 199
c-16.667 72.667 -25 170.334 -25 293.001v527c0 201.333 24.167 336.666 72.5 405.999s116.5 104 204.5 104c34 0 65.5 -12.167 94.5 -36.5s50.5 -53.833 64.5 -88.5v390z" />
    <glyph glyph-name="uni01C7" unicode="&#x1c7;" horiz-adv-x="1437" 
d="M1136 1760h149.002v-1340c0 -153.333 -20.833 -265.166 -62.5 -335.499s-112.834 -105.5 -213.501 -105.5s-171.834 32.5 -213.501 97.5s-62.5 169.167 -62.5 312.5v151h151v-209c0 -92.667 9.66699 -151.834 29 -177.501s36.5 -40.5 51.5 -44.5s31.5 -6 49.5 -6
c70.667 0 109.667 46.333 117 139c3.33301 37.333 5 73 5 107v1411zM160.002 1760h149v-1642h312v-118h-461v1760z" />
    <glyph glyph-name="uni01C8" unicode="&#x1c8;" horiz-adv-x="1143" 
d="M834 1782h149v-144h-149v144zM931 -185c-14.667 -12 -29.667 -21.5 -45 -28.5s-40.333 -10.5 -75 -10.5s-62 2 -82 6h-4v108c13.333 -2.66699 26 -4 38 -4s23.333 1 34 3c24 4 36 26.333 36 67v1544h149v-1534c-0.666992 -74 -17.667 -124.333 -51 -151zM160 1760h149
v-1642h312v-118h-461v1760z" />
    <glyph glyph-name="uni01C9" unicode="&#x1c9;" horiz-adv-x="974" 
d="M665 1782h149v-144h-149v144zM762 -185c-14.667 -12 -29.667 -21.5 -45 -28.5s-40.333 -10.5 -75 -10.5s-62 2 -82 6h-4v108c13.333 -2.66699 26 -4 38 -4s23.333 1 34 3c24 4 36 26.333 36 67v1544h149v-1534c-0.666992 -74 -17.667 -124.333 -51 -151zM160 1783h150
v-1783h-150v1783z" />
    <glyph glyph-name="uni01CA" unicode="&#x1ca;" horiz-adv-x="1769" 
d="M1468 1760h149.002v-1340c0 -153.333 -20.833 -265.166 -62.5 -335.499s-112.834 -105.5 -213.501 -105.5s-171.834 32.5 -213.501 97.5s-62.5 169.167 -62.5 312.5v151h151v-209c0 -92.667 9.66699 -151.834 29 -177.501s36.5 -40.5 51.5 -44.5s31.5 -6 49.5 -6
c70.667 0 109.667 46.333 117 139c3.33301 37.333 5 73 5 107v1411zM681.002 1760h130v-1760h-116l-405 1326l10 -476v-850h-140v1760h104l432 -1361l-15 606v755z" />
    <glyph glyph-name="uni01CB" unicode="&#x1cb;" horiz-adv-x="1475" 
d="M1166 1782h149v-144h-149v144zM1263 -185c-14.667 -12 -29.667 -21.5 -45 -28.5s-40.333 -10.5 -75 -10.5s-62 2 -82 6h-4v108c13.333 -2.66699 26 -4 38 -4s23.333 1 34 3c24 4 36 26.333 36 67v1544h149v-1534c-0.666992 -74 -17.667 -124.333 -51 -151zM681 1760h130
v-1760h-116l-405 1326l10 -476v-850h-140v1760h104l432 -1361l-15 606v755z" />
    <glyph glyph-name="uni01CC" unicode="&#x1cc;" horiz-adv-x="1426" 
d="M1117 1782h149v-144h-149v144zM1214 -185c-14.667 -12 -29.667 -21.5 -45 -28.5s-40.333 -10.5 -75 -10.5s-62 2 -82 6h-4v108c13.333 -2.66699 26 -4 38 -4s23.333 1 34 3c24 4 36 26.333 36 67v1544h149v-1534c-0.666992 -74 -17.667 -124.333 -51 -151zM309 1353
c13.333 44.667 42.833 83.5 88.5 116.5s99.5 49.5 161.5 49.5s113 -25.667 153 -77s60 -128.333 60 -231v-1211h-149v1223c0 58 -13.167 99.833 -39.5 125.5s-61.5 38.5 -105.5 38.5c-112.667 0 -169 -55.667 -169 -167v-1220h-149v1500h149v-147z" />
    <glyph glyph-name="uni01F1" unicode="&#x1f1;" horiz-adv-x="1594" 
d="M1024 1760h482v-102l-341 -1540h335v-118h-485v125l339 1519h-330v116zM621 1274c0 128 -14.667 220.333 -44 277s-75.333 85 -138 85h-132v-1508h123c82.667 0 136.667 37.667 162 113c20 62 30 154.667 30 278zM159 1760l271 -0.000976562
c158 0 258.667 -64.667 302 -194c25.333 -75.333 38 -178 38 -308l1 -754c0 -183.333 -26 -313.166 -78 -389.499s-141.667 -114.5 -269 -114.5h-265v1760z" />
    <glyph glyph-name="uni01F2" unicode="&#x1f2;" horiz-adv-x="1538" 
d="M1010 1500h463v-93l-334 -1277h314v-130h-468v108l329 1263h-304v129zM621 1274c0 128 -14.667 220.333 -44 277s-75.333 85 -138 85h-132v-1508h123c82.667 0 136.667 37.667 162 113c20 62 30 154.667 30 278zM159 1760l271 -0.000976562
c158 0 258.667 -64.667 302 -194c25.333 -75.333 38 -178 38 -308l1 -754c0 -183.333 -26 -313.166 -78 -389.499s-141.667 -114.5 -269 -114.5h-265v1760z" />
    <glyph glyph-name="uni01F3" unicode="&#x1f3;" horiz-adv-x="1505" 
d="M977 1500h463v-93l-334 -1277h314v-130h-468v108l329 1263h-304v129zM567 1037c0 128.667 -9.83301 218.833 -29.5 270.5s-57.834 77.5 -114.501 77.5s-94.667 -26.5 -114 -79.5s-29 -144.833 -29 -275.5v-594c0 -137.333 10.833 -225.333 32.5 -264
s53.834 -58 96.501 -58s73.167 7.83301 91.5 23.5s34 42 47 79s19.5 109.5 19.5 217.5v603zM566 1783h150v-1783h-150v114c-34.667 -83.333 -101 -125 -199 -125c-111.333 0.666992 -182 67 -212 199c-16.667 72.667 -25 170.334 -25 293.001v527
c0 201.333 24.167 336.666 72.5 405.999s116.5 104 204.5 104c34 0 65.5 -12.167 94.5 -36.5s50.5 -53.833 64.5 -88.5v390z" />
    <glyph glyph-name="uni01F4" unicode="&#x1f4;" horiz-adv-x="889" 
d="M282 1963l398 158v-144l-398 -83v69zM134 1245c0 182 17.999 308.669 53.999 380.002c52 104.667 137.667 157 257 157c76.667 0 135.334 -15 176.001 -45s67 -62.667 79 -98c22.667 -66 36.167 -128.833 40.5 -188.5s6.5 -127.5 6.5 -203.5v-147h-152v272
c0 100 -10 173 -30 219s-59.833 69 -119.5 69s-101.667 -29.833 -126 -89.5s-36.5 -162.834 -36.5 -309.501v-718c0 -166 10.667 -281 32 -345s63.333 -96 126 -96s104.667 32.333 126 97s32 178.667 32 342v222h-151v127h299v-890h-98l-16 102
c-24.667 -41.333 -53.667 -72 -87 -92s-76.333 -30 -129 -30c-98.667 0 -170.5 43.167 -215.5 129.5s-67.5 227.166 -67.5 422.499v713z" />
    <glyph glyph-name="uni01F5" unicode="&#x1f5;" horiz-adv-x="860" 
d="M276 1703l398 158v-144l-398 -83v69zM563 1050c0 150 -11.832 243.667 -35.499 281s-59.667 56 -108 56s-83 -18 -104 -54s-33 -80.667 -36 -134s-4.5 -102.333 -4.5 -147v-441c0 -128.667 11.167 -220.167 33.5 -274.5s64.166 -81.5 125.499 -81.5
c32 0.666992 56.667 9.66699 74 27c36.667 37.333 55 148 55 332v436zM190.501 1376.5c43 94.333 109.167 141.5 198.5 141.5s147.333 -35.333 174 -106v88h149v-1403c0 -148.667 -55.333 -249 -166 -301c-43.333 -20.667 -88.666 -31 -135.999 -31s-96.833 8 -148.5 24
s-94.834 37.333 -129.501 64l57 115c65.333 -48.667 138.666 -73 219.999 -73c51.333 0 89.833 16.833 115.5 50.5s38.5 78.5 38.5 134.5v165c-20 -44.667 -45.167 -75.5 -75.5 -92.5s-66.166 -25.5 -107.499 -25.5c-114.667 0 -189 64.667 -223 194
c-20.667 81.333 -31 185 -31 311v381c0 148 21.5 269.167 64.5 363.5z" />
    <glyph glyph-name="uni0200" unicode="&#x200;" horiz-adv-x="860" 
d="M316 2172l131 97l151 -325l-67 -47zM13 2172l135 97l188 -325l-67 -47zM339 1760h152l313 -1760h-144l-58 357h-352l-53 -357h-141zM582 480l-162 996h-2l-149 -996h313z" />
    <glyph glyph-name="uni0201" unicode="&#x201;" horiz-adv-x="874" 
d="M355 1912l131 97l151 -325l-67 -47zM52 1912l135 97l188 -325l-67 -47zM162 1051c0 108.667 2.99707 178.833 8.99707 210.5s12.5 59.334 19.5 83.001s15.333 43.167 25 58.5s21.667 31 36 47s30.833 28.5 49.5 37.5s40.5 16.333 65.5 22s52.833 8.5 83.5 8.5
s58.334 -2.66699 83.001 -8s46.334 -11.333 65.001 -18s34.834 -18.5 48.501 -35.5s25.167 -31.833 34.5 -44.5c32 -43.333 48 -166.333 48 -369v-1043h-149v112c-8.66699 -26.667 -30.167 -53.834 -64.5 -81.501s-78.5 -41.5 -132.5 -41.5
c-78.667 0 -138.167 33.167 -178.5 99.5s-60.5 162.5 -60.5 288.5v192c0 68.667 16.5 122 49.5 160s61.5 64.667 85.5 80c63.333 40 127 73.5 191 100.5l110 46.5v168c0 96.667 -3.66699 153.667 -11 171l-18 42c-14.667 33.333 -50 50 -106 50s-92.167 -23.5 -108.5 -70.5
s-24.5 -136.5 -24.5 -268.5v-37h-150v40zM579.997 836.999c-110 -50 -173.5 -81.333 -190.5 -94s-32.167 -25.667 -45.5 -39c-34.667 -34.667 -52 -99.667 -52 -195v-119c0 -103.333 8 -175.333 24 -216s44.667 -61 86 -61s78 10.333 110 31s54.667 43 68 67v626z" />
    <glyph glyph-name="uni0202" unicode="&#x202;" horiz-adv-x="860" 
d="M221 1856l0.000976562 20.001c0 55.333 15.667 101 47 137s78.166 54 140.499 54s110 -15.833 143 -47.5s50.167 -76.834 51.5 -135.501v-15l-64 -3c-1.33301 72.667 -44.333 109 -129 109c-83.333 0 -125 -37.333 -125 -112v-4zM339.001 1760h152l313 -1760h-144
l-58 357h-352l-53 -357h-141zM582.001 480.001l-162 996h-2l-149 -996h313z" />
    <glyph glyph-name="uni0203" unicode="&#x203;" horiz-adv-x="874" 
d="M260 1596l0.000976562 20.001c0 55.333 15.667 101 47 137s78.166 54 140.499 54s110 -15.833 143 -47.5s50.167 -76.834 51.5 -135.501v-15l-64 -3c-1.33301 72.667 -44.333 109 -129 109c-83.333 0 -125 -37.333 -125 -112v-4zM162.001 1051
c0 108.667 2.99707 178.833 8.99707 210.5s12.5 59.334 19.5 83.001s15.333 43.167 25 58.5s21.667 31 36 47s30.833 28.5 49.5 37.5s40.5 16.333 65.5 22s52.833 8.5 83.5 8.5s58.334 -2.66699 83.001 -8s46.334 -11.333 65.001 -18s34.834 -18.5 48.501 -35.5
s25.167 -31.833 34.5 -44.5c32 -43.333 48 -166.333 48 -369v-1043h-149v112c-8.66699 -26.667 -30.167 -53.834 -64.5 -81.501s-78.5 -41.5 -132.5 -41.5c-78.667 0 -138.167 33.167 -178.5 99.5s-60.5 162.5 -60.5 288.5v192c0 68.667 16.5 122 49.5 160
s61.5 64.667 85.5 80c63.333 40 127 73.5 191 100.5l110 46.5v168c0 96.667 -3.66699 153.667 -11 171l-18 42c-14.667 33.333 -50 50 -106 50s-92.167 -23.5 -108.5 -70.5s-24.5 -136.5 -24.5 -268.5v-37h-150v40zM579.998 837c-110 -50 -173.5 -81.333 -190.5 -94
s-32.167 -25.667 -45.5 -39c-34.667 -34.667 -52 -99.667 -52 -195v-119c0 -103.333 8 -175.333 24 -216s44.667 -61 86 -61s78 10.333 110 31s54.667 43 68 67v626z" />
    <glyph glyph-name="uni0204" unicode="&#x204;" horiz-adv-x="709" 
d="M298 2172l131 97l151 -325l-67 -47zM-5 2172l135 97l188 -325l-67 -47zM160 1760h465v-116h-316v-688h297v-121h-297v-717h313v-118h-462v1760z" />
    <glyph glyph-name="uni0205" unicode="&#x205;" 
d="M322 1912l131 97l151 -325l-67 -47zM19 1912l135 97l188 -325l-67 -47zM549 877l0.00195312 200.999c0 112.667 -4.33301 186.334 -13 221.001c-14.667 58.667 -51.334 88 -110.001 88c-78.667 0 -125.334 -51.667 -140.001 -155c-6 -42 -9 -93.333 -9 -154v-18v-183h272
zM128.002 1014c0 174.667 16 294.669 48 360.002c33.333 65.333 78 107.666 134 126.999c33.333 11.333 71.833 17 115.5 17s81.5 -5.33301 113.5 -16c48.667 -16 89.667 -59.667 123 -131c24 -50 36 -173 36 -369v-250h-421v-302c0 -154.667 11.5 -249.5 34.5 -284.5
s57 -52.5 102 -52.5s76.667 14 95 42s29.666 64.167 33.999 108.5s6.5 104.5 6.5 180.5v112h145v-49c0 -148 -5 -249.333 -15 -304c-25.333 -147.333 -107.666 -221 -246.999 -221c-121.333 0 -202 37.333 -242 112c-27.333 49.333 -44.5 105.666 -51.5 168.999
s-10.5 146 -10.5 248v503z" />
    <glyph glyph-name="uni0206" unicode="&#x206;" horiz-adv-x="709" 
d="M160 1760h465v-116h-316v-688h297v-121h-297v-717h313v-118h-462v1760zM197 1856l0.000976562 20.001c0 55.333 15.667 101 47 137s78.166 54 140.499 54s110 -15.833 143 -47.5s50.167 -76.834 51.5 -135.501v-15l-64 -3c-1.33301 72.667 -44.333 109 -129 109
c-83.333 0 -125 -37.333 -125 -112v-4z" />
    <glyph glyph-name="uni0207" unicode="&#x207;" 
d="M227 1596l0.000976562 20.001c0 55.333 15.667 101 47 137s78.166 54 140.499 54s110 -15.833 143 -47.5s50.167 -76.834 51.5 -135.501v-15l-64 -3c-1.33301 72.667 -44.333 109 -129 109c-83.333 0 -125 -37.333 -125 -112v-4zM549.001 877.001l0.00195312 200.999
c0 112.667 -4.33301 186.334 -13 221.001c-14.667 58.667 -51.334 88 -110.001 88c-78.667 0 -125.334 -51.667 -140.001 -155c-6 -42 -9 -93.333 -9 -154v-18v-183h272zM128.003 1014c0 174.667 16 294.669 48 360.002c33.333 65.333 78 107.666 134 126.999
c33.333 11.333 71.833 17 115.5 17s81.5 -5.33301 113.5 -16c48.667 -16 89.667 -59.667 123 -131c24 -50 36 -173 36 -369v-250h-421v-302c0 -154.667 11.5 -249.5 34.5 -284.5s57 -52.5 102 -52.5s76.667 14 95 42s29.666 64.167 33.999 108.5s6.5 104.5 6.5 180.5v112
h145v-49c0 -148 -5 -249.333 -15 -304c-25.333 -147.333 -107.666 -221 -246.999 -221c-121.333 0 -202 37.333 -242 112c-27.333 49.333 -44.5 105.666 -51.5 168.999s-10.5 146 -10.5 248v503z" />
    <glyph glyph-name="uni0208" unicode="&#x208;" horiz-adv-x="504" 
d="M152 2172l131 97l151 -325l-67 -47zM-151 2172l135 97l188 -325l-67 -47zM178 1760h149v-1760h-149v1760z" />
    <glyph glyph-name="uni0209" unicode="&#x209;" horiz-adv-x="474" 
d="M153 1915l131 97l151 -325l-67 -47zM-150 1915l135 97l188 -325l-67 -47zM162 1500h150v-1500h-150v1500z" />
    <glyph glyph-name="uni020A" unicode="&#x20a;" horiz-adv-x="504" 
d="M57 1856l0.000976562 20.001c0 55.333 15.667 101 47 137s78.166 54 140.499 54s110 -15.833 143 -47.5s50.167 -76.834 51.5 -135.501v-15l-64 -3c-1.33301 72.667 -44.333 109 -129 109c-83.333 0 -125 -37.333 -125 -112v-4zM178.001 1760h149v-1760h-149v1760z" />
    <glyph glyph-name="uni020B" unicode="&#x20b;" horiz-adv-x="474" 
d="M46 1640l0.000976562 20.001c0 55.333 15.667 101 47 137s78.166 54 140.499 54s110 -15.833 143 -47.5s50.167 -76.834 51.5 -135.501v-15l-64 -3c-1.33301 72.667 -44.333 109 -129 109c-83.333 0 -125 -37.333 -125 -112v-4zM162.001 1500h150v-1500h-150v1500z" />
    <glyph glyph-name="uni020C" unicode="&#x20c;" horiz-adv-x="887" 
d="M344 2171l131 97l151 -325l-67 -47zM41 2171l135 97l188 -325l-67 -47zM604 1280c0 140 -10.166 238.333 -30.499 295s-61.833 85 -124.5 85s-106 -29.167 -130 -87.5s-36 -155.5 -36 -291.5v-762c0 -162 8.33301 -265.667 25 -311s35.167 -74.333 55.5 -87
s47.166 -19 80.499 -19s60 6.33301 80 19s38.333 41.5 55 86.5s25 148.833 25 311.5v761zM134.001 1268c0 212.667 26.667 351.501 80 416.501s135.333 97.5 246 97.5s187 -36 229 -108c28 -48.667 45.667 -105.334 53 -170.001s11 -143.334 11 -236.001v-749
c0 -152.667 -9.16699 -260.167 -27.5 -322.5s-38.833 -106.833 -61.5 -133.5c-48 -55.333 -121 -83 -219 -83c-146 0 -237.333 63 -274 189c-24.667 82.667 -37 199.334 -37 350.001v749z" />
    <glyph glyph-name="uni020D" unicode="&#x20d;" horiz-adv-x="845" 
d="M323 1912l131 97l151 -325l-67 -47zM20 1912l135 97l188 -325l-67 -47zM568 1053c0 172 -22.667 275.667 -68 311c-20 15.333 -44 23 -72 23c-76 0 -121.333 -42.333 -136 -127c-10 -52.667 -15 -121.667 -15 -207v-590c0 -147.333 12.5 -242.5 37.5 -285.5
s64.833 -64.5 119.5 -64.5s90.667 30.5 108 91.5s26 147.167 26 258.5v590zM128 1018c0 173.333 16.334 292.667 49.001 358s77 107.333 133 126c33.333 10.667 70.666 16 111.999 16c168.667 0 263.334 -91.667 284.001 -275c7.33301 -62.667 11 -137.667 11 -225v-503
c0 -118 -2.5 -194.333 -7.5 -229s-9.83301 -64.667 -14.5 -90c-26.667 -142.667 -119.334 -214 -278.001 -214c-64.667 0 -116.334 13.333 -155.001 40c-73.333 50.667 -115.666 143.667 -126.999 279c-4.66699 60 -7 131.333 -7 214v503z" />
    <glyph glyph-name="uni020E" unicode="&#x20e;" horiz-adv-x="887" 
d="M604 1280c0 140 -10.166 238.333 -30.499 295s-61.833 85 -124.5 85s-106 -29.167 -130 -87.5s-36 -155.5 -36 -291.5v-762c0 -162 8.33301 -265.667 25 -311s35.167 -74.333 55.5 -87s47.166 -19 80.499 -19s60 6.33301 80 19s38.333 41.5 55 86.5s25 148.833 25 311.5
v761zM134.001 1268c0 212.667 26.667 351.501 80 416.501s135.333 97.5 246 97.5s187 -36 229 -108c28 -48.667 45.667 -105.334 53 -170.001s11 -143.334 11 -236.001v-749c0 -152.667 -9.16699 -260.167 -27.5 -322.5s-38.833 -106.833 -61.5 -133.5
c-48 -55.333 -121 -83 -219 -83c-146 0 -237.333 63 -274 189c-24.667 82.667 -37 199.334 -37 350.001v749zM246.001 1855l0.000976562 20.001c0 55.333 15.667 101 47 137s78.166 54 140.499 54s110 -15.833 143 -47.5s50.167 -76.834 51.5 -135.501v-15l-64 -3
c-1.33301 72.667 -44.333 109 -129 109c-83.333 0 -125 -37.333 -125 -112v-4z" />
    <glyph glyph-name="uni020F" unicode="&#x20f;" horiz-adv-x="845" 
d="M228 1596l0.000976562 20.001c0 55.333 15.667 101 47 137s78.166 54 140.499 54s110 -15.833 143 -47.5s50.167 -76.834 51.5 -135.501v-15l-64 -3c-1.33301 72.667 -44.333 109 -129 109c-83.333 0 -125 -37.333 -125 -112v-4zM568.001 1053
c0 172 -22.667 275.667 -68 311c-20 15.333 -44 23 -72 23c-76 0 -121.333 -42.333 -136 -127c-10 -52.667 -15 -121.667 -15 -207v-590c0 -147.333 12.5 -242.5 37.5 -285.5s64.833 -64.5 119.5 -64.5s90.667 30.5 108 91.5s26 147.167 26 258.5v590zM128.001 1018
c0 173.333 16.334 292.667 49.001 358s77 107.333 133 126c33.333 10.667 70.666 16 111.999 16c168.667 0 263.334 -91.667 284.001 -275c7.33301 -62.667 11 -137.667 11 -225v-503c0 -118 -2.5 -194.333 -7.5 -229s-9.83301 -64.667 -14.5 -90
c-26.667 -142.667 -119.334 -214 -278.001 -214c-64.667 0 -116.334 13.333 -155.001 40c-73.333 50.667 -115.666 143.667 -126.999 279c-4.66699 60 -7 131.333 -7 214v503z" />
    <glyph glyph-name="uni0210" unicode="&#x210;" horiz-adv-x="903" 
d="M362 2172l131 97l151 -325l-67 -47zM59 2172l135 97l188 -325l-67 -47zM623 1335c0 88.667 -4.16504 153.668 -12.498 195.001s-22.333 69.333 -42 84s-50.834 22 -93.501 22h-167v-668h156c50.667 0 85.167 8.66699 103.5 26s32.166 46.166 41.499 86.499
s14 120.833 14 241.5v13zM160.002 1760l298.998 0.000976562c120.667 0 201.334 -25.333 242.001 -76c30.667 -38 50.167 -84.5 58.5 -139.5s12.5 -134.833 12.5 -239.5s-12.167 -190.167 -36.5 -256.5s-66.166 -107.5 -125.499 -123.5c23.333 -4 43 -11.167 59 -21.5
s30.333 -27.833 43 -52.5c39.333 -76.667 59 -265.334 59 -566.001c0 -124.667 1.16699 -196.5 3.5 -215.5s8.5 -42.167 18.5 -69.5h-148c-10.667 20 -17 57.833 -19 113.5s-3 144.5 -3 266.5v194c0 122.667 -7.5 200.667 -22.5 234s-59.5 50 -133.5 50l-158 10v-868h-149
v1760z" />
    <glyph glyph-name="uni0211" unicode="&#x211;" horiz-adv-x="617" 
d="M234 1912l131 97l151 -325l-67 -47zM-69 1912l135 97l188 -325l-67 -47zM565 1518c2.66699 0 4 -10.668 4 -32.001s-0.333008 -42.666 -1 -63.999v-31c-52.667 0 -99.167 -10.5 -139.5 -31.5s-79.833 -58.833 -118.5 -113.5v-1246h-149v1500h149v-167
c17.333 58.667 47.833 104.167 91.5 136.5s98.167 48.5 163.5 48.5z" />
    <glyph glyph-name="uni0212" unicode="&#x212;" horiz-adv-x="903" 
d="M623 1335c0 88.667 -4.16504 153.668 -12.498 195.001s-22.333 69.333 -42 84s-50.834 22 -93.501 22h-167v-668h156c50.667 0 85.167 8.66699 103.5 26s32.166 46.166 41.499 86.499s14 120.833 14 241.5v13zM160.002 1760l298.998 0.000976562
c120.667 0 201.334 -25.333 242.001 -76c30.667 -38 50.167 -84.5 58.5 -139.5s12.5 -134.833 12.5 -239.5s-12.167 -190.167 -36.5 -256.5s-66.166 -107.5 -125.499 -123.5c23.333 -4 43 -11.167 59 -21.5s30.333 -27.833 43 -52.5c39.333 -76.667 59 -265.334 59 -566.001
c0 -124.667 1.16699 -196.5 3.5 -215.5s8.5 -42.167 18.5 -69.5h-148c-10.667 20 -17 57.833 -19 113.5s-3 144.5 -3 266.5v194c0 122.667 -7.5 200.667 -22.5 234s-59.5 50 -133.5 50l-158 10v-868h-149v1760zM263 1856l0.000976562 20.001c0 55.333 15.667 101 47 137
s78.166 54 140.499 54s110 -15.833 143 -47.5s50.167 -76.834 51.5 -135.501v-15l-64 -3c-1.33301 72.667 -44.333 109 -129 109c-83.333 0 -125 -37.333 -125 -112v-4z" />
    <glyph glyph-name="uni0213" unicode="&#x213;" horiz-adv-x="617" 
d="M174 1640l0.000976562 20.001c0 55.333 15.667 101 47 137s78.166 54 140.499 54s110 -15.833 143 -47.5s50.167 -76.834 51.5 -135.501v-15l-64 -3c-1.33301 72.667 -44.333 109 -129 109c-83.333 0 -125 -37.333 -125 -112v-4zM565.001 1518
c2.66699 0 4 -10.668 4 -32.001s-0.333008 -42.666 -1 -63.999v-31c-52.667 0 -99.167 -10.5 -139.5 -31.5s-79.833 -58.833 -118.5 -113.5v-1246h-149v1500h149v-167c17.333 58.667 47.833 104.167 91.5 136.5s98.167 48.5 163.5 48.5z" />
    <glyph glyph-name="uni0214" unicode="&#x214;" horiz-adv-x="911" 
d="M355 2173l131 97l151 -325l-67 -47zM52 2173l135 97l188 -325l-67 -47zM616 1760l149 0.000976562v-1308c0 -165.333 -21 -285.5 -63 -360.5s-123.667 -112.5 -245 -112.5s-203.5 37.667 -246.5 113s-64.5 195.333 -64.5 360v1308h149v-1303
c0 -122 5.33301 -203.333 16 -244c20 -74 66.667 -111 140 -111c60 0 102.5 17.167 127.5 51.5s37.5 135.166 37.5 302.499v1304z" />
    <glyph glyph-name="uni0215" unicode="&#x215;" horiz-adv-x="924" 
d="M383 1912l131 97l151 -325l-67 -47zM80 1912l135 97l188 -325l-67 -47zM300 292c0 -115.333 50.6689 -173 152.002 -173c49.333 0 88.833 16.5 118.5 49.5s44.5 77.833 44.5 134.5l-1 1197h150v-1500h-149v150c-12.667 -45.333 -39.834 -85 -81.501 -119
s-89.834 -51 -144.501 -51s-108 22.5 -160 67.5s-78 124.167 -78 237.5v1215h149v-1208z" />
    <glyph glyph-name="uni0216" unicode="&#x216;" horiz-adv-x="911" 
d="M616 1760l149 0.000976562v-1308c0 -165.333 -21 -285.5 -63 -360.5s-123.667 -112.5 -245 -112.5s-203.5 37.667 -246.5 113s-64.5 195.333 -64.5 360v1308h149v-1303c0 -122 5.33301 -203.333 16 -244c20 -74 66.667 -111 140 -111c60 0 102.5 17.167 127.5 51.5
s37.5 135.166 37.5 302.499v1304zM271 1857l0.000976562 20.001c0 55.333 15.667 101 47 137s78.166 54 140.499 54s110 -15.833 143 -47.5s50.167 -76.834 51.5 -135.501v-15l-64 -3c-1.33301 72.667 -44.333 109 -129 109c-83.333 0 -125 -37.333 -125 -112v-4z" />
    <glyph glyph-name="uni0217" unicode="&#x217;" horiz-adv-x="924" 
d="M267 1640l0.000976562 20.001c0 55.333 15.667 101 47 137s78.166 54 140.499 54s110 -15.833 143 -47.5s50.167 -76.834 51.5 -135.501v-15l-64 -3c-1.33301 72.667 -44.333 109 -129 109c-83.333 0 -125 -37.333 -125 -112v-4zM300.001 292.001
c0 -115.333 50.6689 -173 152.002 -173c49.333 0 88.833 16.5 118.5 49.5s44.5 77.833 44.5 134.5l-1 1197h150v-1500h-149v150c-12.667 -45.333 -39.834 -85 -81.501 -119s-89.834 -51 -144.501 -51s-108 22.5 -160 67.5s-78 124.167 -78 237.5v1215h149v-1208z" />
    <glyph glyph-name="Scommaaccent" unicode="&#x218;" horiz-adv-x="795" 
d="M309 -147h197v-183l-78 -282h-62l43 273h-100v192zM98 1490c10 95.333 38.1641 167.831 84.4971 217.498s118.833 74.5 217.5 74.5s167.334 -24.667 206.001 -74c21.333 -26.667 38 -53.334 50 -80.001c25.333 -54 38.333 -182.667 39 -386v-99h-153v110
c0 154.667 -5 248.334 -15 281.001s-20.333 57.334 -31 74.001c-19.333 30.667 -54 46 -104 46c-101.333 0 -152 -94.333 -152 -283c0 -66 6.33301 -110.833 19 -134.5s22.167 -42.167 28.5 -55.5s48.833 -59.333 127.5 -138l96 -97c142 -146 213 -313.5 213 -502.5
s-27.167 -313.5 -81.5 -373.5s-134.833 -90 -241.5 -90c-164 0 -258.333 99 -283 297c-8.66699 66.667 -13 148.667 -13 246v183h152v-180c0 -158.667 10.5 -268 31.5 -328s63.833 -90 128.5 -90s105.834 19.5 123.501 58.5s27.334 86.167 29.001 141.5
s2.5 114.666 2.5 177.999c0 130.667 -51.667 246.334 -155 347.001l-102 97c-89.333 87.333 -149 160.833 -179 220.5s-45 120.334 -45 182.001s2.33301 114.167 7 157.5z" />
    <glyph glyph-name="scommaaccent" unicode="&#x219;" 
d="M319 -147h197v-183l-78 -282h-62l43 273h-100v192zM120 1180c0 110.667 26.502 194.668 79.502 252.001s126.167 86 219.5 86s161.666 -37 204.999 -111s65 -197.333 65 -370v-80h-155v107c0 106 -9.16699 185.333 -27.5 238s-50.333 79 -96 79
s-80.334 -15.167 -104.001 -45.5s-35.5 -82.833 -35.5 -157.5v-6c0 -116.667 54.333 -227.667 163 -333l77 -75c132.667 -132.667 199 -279 199 -439c0 -106.667 -23 -190.834 -69 -252.501s-118.333 -92.5 -217 -92.5s-172.5 34 -221.5 102s-73.5 176.333 -73.5 325v129
h153v-103c0 -211.333 46 -317 138 -317c49.333 0 84.333 16 105 48s31 88.667 31 170c0 120.667 -52 234 -156 340l-79 80c-134 136 -201 278 -201 426z" />
    <glyph glyph-name="uni021A" unicode="&#x21a;" horiz-adv-x="577" 
d="M201 -147h197v-183l-78 -282h-62l43 273h-100v192zM40 1760h497v-116h-165v-1644h-148v1644h-184v116z" />
    <glyph glyph-name="uni021B" unicode="&#x21b;" horiz-adv-x="582" 
d="M312 -147h197v-183l-78 -282h-62l43 273h-100v192zM195 1760l150 0.00195312v-254h177v-116h-177v-1181c0 -30 3.66699 -50.667 11 -62s21 -19 41 -23s61.333 -6 124 -6v-127h-104c-94.667 0 -155.667 16.667 -183 50c-16 19.333 -26.5 42.166 -31.5 68.499
s-7.5 62.166 -7.5 107.499v1173h-150v116h150v254z" />
    <glyph glyph-name="uni0237" unicode="&#x237;" horiz-adv-x="513" 
d="M352 34c0 -127.333 -56.667 -191 -170 -191c-20 0 -42 1.66699 -66 5l-21 2v108c3.33301 0 13.5 -0.666992 30.5 -2s30.5 -1 40.5 1c24.667 4 37 26.333 37 67v1476h149v-1466z" />
    <glyph glyph-name="circumflex" unicode="&#x2c6;" horiz-adv-x="970" 
d="M402 1831h166l120 -254h-117l-86 175l-86 -175h-118z" />
    <glyph glyph-name="caron" unicode="&#x2c7;" horiz-adv-x="970" 
d="M571 1830h117l-120 -253h-166l-121 253h118l86 -175z" />
    <glyph glyph-name="uni02C9" unicode="&#x2c9;" horiz-adv-x="696" 
d="M90 741h516v-115h-516v115z" />
    <glyph glyph-name="breve" unicode="&#x2d8;" horiz-adv-x="1016" 
d="M632 1823l64 -0.000976562v-13c0 -58.667 -16.167 -105.167 -48.5 -139.5s-79.5 -51.5 -141.5 -51.5s-109.333 16.833 -142 50.5s-49 79.834 -49 138.501v15h64c0.666992 -75.333 43 -113 127 -113s126 37.667 126 113z" />
    <glyph glyph-name="dotaccent" unicode="&#x2d9;" horiz-adv-x="572" 
d="M213 78h159v-133h-159v133z" />
    <glyph glyph-name="ring" unicode="&#x2da;" horiz-adv-x="923" 
d="M561 72c0 28 -8.83301 51.998 -26.5 71.998s-41.834 30 -72.501 30s-54.667 -10.167 -72 -30.5s-26 -44.166 -26 -71.499s8.66699 -51.166 26 -71.499s41.333 -30.5 72 -30.5s54.834 10 72.501 30s26.5 44 26.5 72zM336.5 -35.002
c-29.667 30.667 -44.5 66.168 -44.5 106.501s14.833 75.833 44.5 106.5s71.334 46 125.001 46s95.167 -15.333 124.5 -46s44 -66.334 44 -107.001s-14.667 -76.167 -44 -106.5s-70.833 -45.5 -124.5 -45.5s-95.334 15.333 -125.001 46z" />
    <glyph glyph-name="ogonek" unicode="&#x2db;" horiz-adv-x="1015" 
d="M812 -411c-29.333 -13.333 -72 -20.001 -128 -20.001c-128.667 0 -193 48.333 -193 145c0 46.667 14.667 95 44 145s73.333 97 132 141h64c-48.667 -41.333 -85.167 -84.5 -109.5 -129.5s-36.5 -85.833 -36.5 -122.5c0 -58 36 -87 108 -87c34.667 0 63 3.33301 85 10
s33.333 10.334 34 11.001v-93z" />
    <glyph glyph-name="tilde" unicode="&#x2dc;" horiz-adv-x="1117" 
d="M266 35c18.667 64.667 42.1699 103.333 70.5029 116s59 19 92 19s80.333 -12.333 142 -37s99.5 -37 113.5 -37h4c11.333 2 21.166 7.5 29.499 16.5s17.166 27.167 26.499 54.5l105 -28l-9 -26c-19.333 -60.667 -38.833 -100 -58.5 -118s-45.834 -27 -78.501 -27
s-79 13.667 -139 41s-99.5 41 -118.5 41s-33.833 -1.33301 -44.5 -4s-24.667 -21.667 -42 -57z" />
    <glyph glyph-name="hungarumlaut" unicode="&#x2dd;" horiz-adv-x="1300" 
d="M452 40l107 391l164 -78l-202 -342zM703 40l164 391l167 -89l-263 -342z" />
    <glyph glyph-name="uni0307" unicode="&#x307;" horiz-adv-x="572" 
d="M147 260h278v-268h-278v268z" />
    <glyph glyph-name="uni030F" unicode="&#x30f;" horiz-adv-x="825" 
d="M312 1912l131 97l151 -325l-67 -47zM9 1912l135 97l188 -325l-67 -47z" />
    <glyph glyph-name="uni0311" unicode="&#x311;" horiz-adv-x="1016" 
d="M313 1596l0.000976562 20.001c0 55.333 15.667 101 47 137s78.166 54 140.499 54s110 -15.833 143 -47.5s50.167 -76.834 51.5 -135.501v-15l-64 -3c-1.33301 72.667 -44.333 109 -129 109c-83.333 0 -125 -37.333 -125 -112v-4z" />
    <glyph glyph-name="uni0326" unicode="&#x326;" horiz-adv-x="528" 
d="M168 242h197v-183l-78 -282h-62l43 273h-100v192z" />
    <glyph glyph-name="uni0394" unicode="&#x394;" horiz-adv-x="868" 
d="M219 123h425l-220 1353h-2zM495 1760l313 -1760h-748l283 1760h152z" />
    <glyph glyph-name="uni03BC" unicode="&#x3bc;" horiz-adv-x="923" 
d="M300 292c0 -115.333 50.668 -173.001 152.001 -173.001c49.333 0 88.666 16.333 117.999 49s44 76.334 44 131.001v4v1197h150v-1500h-149v150c-12.667 -45.333 -39.834 -85 -81.501 -119s-84.167 -51 -127.5 -51s-78.666 6.33301 -105.999 19v-185h-150v1686h150v-1208z
" />
    <glyph glyph-name="uni1E02" unicode="&#x1e02;" horiz-adv-x="885" 
d="M395 2014h159v-133h-159v133zM421 1629l-111.999 0.000976562v-625h134c46 0 76.833 5 92.5 15s26.5 21.667 32.5 35c18.667 42 28 124.5 28 247.5s-6.16699 201.167 -18.5 234.5s-28.833 57.166 -49.5 71.499s-56.334 21.5 -107.001 21.5zM470.001 884.001h-161.002
v-756h158c48.667 0 84.334 16 107.001 48s36 82 40 150s6 126 6 174v83c0 98.667 -10.167 173.5 -30.5 224.5s-60.166 76.5 -119.499 76.5zM159.999 1760l256.999 -0.000976562c105.333 0 181.833 -18 229.5 -54s77.5 -99.333 89.5 -190c5.33301 -40 8.33301 -90 9 -150v-23
c0 -114 -7.33301 -201 -22 -261s-45 -105 -91 -135c52 -25.333 87.833 -75.166 107.5 -149.499s29.5 -167.5 29.5 -279.5v-31c-2.66699 -171.333 -24.667 -295.333 -66 -372s-121.666 -115 -240.999 -115h-302v1760z" />
    <glyph glyph-name="uni1E03" unicode="&#x1e03;" horiz-adv-x="876" 
d="M410 1988h159v-133h-159v133zM597 1061c0 117.333 -5 190.501 -15 219.501s-19.667 50.5 -29 64.5c-18 27.333 -42 41 -72 41s-52.333 -2 -67 -6c-36 -10 -62.5 -38.5 -79.5 -85.5s-25.5 -125.5 -25.5 -235.5v-599c0 -126 10.167 -215 30.5 -267s58.833 -78 115.5 -78
s94.5 26.167 113.5 78.5s28.5 143.166 28.5 272.499v595zM160 1783h149.002v-411c7.33301 40 28.666 74.5 63.999 103.5s73.666 43.5 114.999 43.5c119.333 0 195.333 -64.667 228 -194c20 -82.667 30 -187 30 -313v-522c0 -171.333 -13 -290.166 -39 -356.499
s-61.667 -108.833 -107 -127.5c-25.333 -10.667 -55.333 -16.334 -90 -17.001c-98 0 -165 41.667 -201 125v-114h-149v1783z" />
    <glyph glyph-name="uni1E0A" unicode="&#x1e0a;" horiz-adv-x="903" 
d="M367 1988h159v-133h-159v133zM621 1274c0 128 -14.667 220.333 -44 277s-75.333 85 -138 85h-132v-1508h123c82.667 0 136.667 37.667 162 113c20 62 30 154.667 30 278zM159 1760l271 -0.000976562c158 0 258.667 -64.667 302 -194c25.333 -75.333 38 -178 38 -308
l1 -754c0 -183.333 -26 -313.166 -78 -389.499s-141.667 -114.5 -269 -114.5h-265v1760z" />
    <glyph glyph-name="uni1E0B" unicode="&#x1e0b;" horiz-adv-x="872" 
d="M313 1988h159v-133h-159v133zM567 1037c0 128.667 -9.83301 218.833 -29.5 270.5s-57.834 77.5 -114.501 77.5s-94.667 -26.5 -114 -79.5s-29 -144.833 -29 -275.5v-594c0 -137.333 10.833 -225.333 32.5 -264s53.834 -58 96.501 -58s73.167 7.83301 91.5 23.5
s34 42 47 79s19.5 109.5 19.5 217.5v603zM566 1783h150v-1783h-150v114c-34.667 -83.333 -101 -125 -199 -125c-111.333 0.666992 -182 67 -212 199c-16.667 72.667 -25 170.334 -25 293.001v527c0 201.333 24.167 336.666 72.5 405.999s116.5 104 204.5 104
c34 0 65.5 -12.167 94.5 -36.5s50.5 -53.833 64.5 -88.5v390z" />
    <glyph glyph-name="uni1E1E" unicode="&#x1e1e;" horiz-adv-x="690" 
d="M319 1988h159v-133h-159v133zM160 1760h462v-116h-314v-639h297v-119h-297v-886h-148v1760z" />
    <glyph glyph-name="uni1E1F" unicode="&#x1e1f;" horiz-adv-x="610" 
d="M320 1988h159v-133h-159v133zM224 1512c0 92 16.333 161.168 49 207.501s87.667 69.5 165 69.5c54 0 99 -6 135 -18v-121c-30 4.66699 -63.667 7 -101 7s-63 -9.83301 -77 -29.5s-21 -50.834 -21 -93.501v-92h199v-113h-199v-1329h-150v1329h-140v113h140v70z" />
    <glyph glyph-name="uni1E40" unicode="&#x1e40;" horiz-adv-x="1198" 
d="M531 1988h159v-133h-159v133zM871 1760h167v-1760h-135v754l23 709l-251 -1425h-142l-260 1425l23 -709v-754h-136v1760h167l277 -1478z" />
    <glyph glyph-name="uni1E41" unicode="&#x1e41;" horiz-adv-x="1362" 
d="M657 1728h159v-133h-159v133zM1062 1226c0 103.333 -45.666 155.001 -136.999 155.001c-76.667 0 -125.667 -22.333 -147 -67c-9.33301 -20 -15.333 -45 -18 -75v-1239h-149v1226c0 57.333 -11.833 97.5 -35.5 120.5s-59.667 34.5 -108 34.5s-86.833 -14.5 -115.5 -43.5
s-43 -71.833 -43 -128.5v-1209h-149v1500h149v-149c13.333 45.333 41.166 84.666 83.499 117.999s90.833 50 145.5 50c100 0 167 -50.667 201 -152c24.667 45.333 59.667 82 105 110s98 42 158 42s110 -25 150 -75s60 -125.667 60 -227v-1217h-150v1226z" />
    <glyph glyph-name="uni1E56" unicode="&#x1e56;" horiz-adv-x="843" 
d="M375 1988h159v-133h-159v133zM622 1229v47.002c0 129.333 -9.83301 221.666 -29.5 276.999s-59.167 83 -118.5 83h-165v-821h158c61.333 0 102.5 29.167 123.5 87.5s31.5 167.166 31.5 326.499zM160 1760l306.001 0.000976562c72 0 128.833 -13.5 170.5 -40.5
s69.5 -57.167 83.5 -90.5c24 -60 38.5 -118.333 43.5 -175s7.5 -125 7.5 -205v-18c0 -152.667 -9.5 -260.334 -28.5 -323.001s-40.5 -107.667 -64.5 -135c-48.667 -56 -122.334 -84 -221.001 -84h-148v-689h-149v1760z" />
    <glyph glyph-name="uni1E57" unicode="&#x1e57;" horiz-adv-x="873" 
d="M374 1728h159v-133h-159v133zM596 1061c0 117.333 -4.83301 190.5 -14.5 219.5s-21.167 53.833 -34.5 74.5s-35.333 31 -66 31s-53.334 -2 -68.001 -6c-36 -10 -62.333 -38.833 -79 -86.5s-25 -125.834 -25 -234.501v-596c0 -127.333 10.167 -217.166 30.5 -269.499
s58.833 -78.5 115.5 -78.5s94.334 26 113.001 78s28 143.667 28 275v593zM309 1385c35.333 84 101.666 126.002 198.999 126.002c68 0 119.167 -22.5 153.5 -67.5s56.833 -103 67.5 -174s16 -156.5 16 -256.5v-538v-7c0 -188.667 -24.667 -316.834 -74 -384.501
s-116.666 -101.5 -201.999 -101.5c-34 0 -65.833 12.167 -95.5 36.5s-51.167 54.166 -64.5 89.499v-373h-149v1765h149v-115z" />
    <glyph glyph-name="uni1E60" unicode="&#x1e60;" horiz-adv-x="795" 
d="M321 1988h159v-133h-159v133zM98 1490c10 95.333 38.1641 167.831 84.4971 217.498s118.833 74.5 217.5 74.5s167.334 -24.667 206.001 -74c21.333 -26.667 38 -53.334 50 -80.001c25.333 -54 38.333 -182.667 39 -386v-99h-153v110c0 154.667 -5 248.334 -15 281.001
s-20.333 57.334 -31 74.001c-19.333 30.667 -54 46 -104 46c-101.333 0 -152 -94.333 -152 -283c0 -66 6.33301 -110.833 19 -134.5s22.167 -42.167 28.5 -55.5s48.833 -59.333 127.5 -138l96 -97c142 -146 213 -313.5 213 -502.5s-27.167 -313.5 -81.5 -373.5
s-134.833 -90 -241.5 -90c-164 0 -258.333 99 -283 297c-8.66699 66.667 -13 148.667 -13 246v183h152v-180c0 -158.667 10.5 -268 31.5 -328s63.833 -90 128.5 -90s105.834 19.5 123.501 58.5s27.334 86.167 29.001 141.5s2.5 114.666 2.5 177.999
c0 130.667 -51.667 246.334 -155 347.001l-102 97c-89.333 87.333 -149 160.833 -179 220.5s-45 120.334 -45 182.001s2.33301 114.167 7 157.5z" />
    <glyph glyph-name="uni1E61" unicode="&#x1e61;" 
d="M353 1728h159v-133h-159v133zM120 1180c0 110.667 26.502 194.668 79.502 252.001s126.167 86 219.5 86s161.666 -37 204.999 -111s65 -197.333 65 -370v-80h-155v107c0 106 -9.16699 185.333 -27.5 238s-50.333 79 -96 79s-80.334 -15.167 -104.001 -45.5
s-35.5 -82.833 -35.5 -157.5v-6c0 -116.667 54.333 -227.667 163 -333l77 -75c132.667 -132.667 199 -279 199 -439c0 -106.667 -23 -190.834 -69 -252.501s-118.333 -92.5 -217 -92.5s-172.5 34 -221.5 102s-73.5 176.333 -73.5 325v129h153v-103
c0 -211.333 46 -317 138 -317c49.333 0 84.333 16 105 48s31 88.667 31 170c0 120.667 -52 234 -156 340l-79 80c-134 136 -201 278 -201 426z" />
    <glyph glyph-name="uni1E6A" unicode="&#x1e6a;" horiz-adv-x="577" 
d="M216 1988h159v-133h-159v133zM40 1760h497v-116h-165v-1644h-148v1644h-184v116z" />
    <glyph glyph-name="uni1E6B" unicode="&#x1e6b;" horiz-adv-x="582" 
d="M185 1988h159v-133h-159v133zM195 1760l150 0.00195312v-254h177v-116h-177v-1181c0 -30 3.66699 -50.667 11 -62s21 -19 41 -23s61.333 -6 124 -6v-127h-104c-94.667 0 -155.667 16.667 -183 50c-16 19.333 -26.5 42.166 -31.5 68.499s-7.5 62.166 -7.5 107.499v1173
h-150v116h150v254z" />
    <glyph glyph-name="Wgrave" unicode="&#x1e80;" horiz-adv-x="1338" 
d="M517 1924v160l332 -185v-69zM1127 1760h141l-213 -1760h-147l-218 1448l-234 -1448h-137l-249 1760h146l184 -1438l220 1438h124l235 -1438z" />
    <glyph glyph-name="wgrave" unicode="&#x1e81;" horiz-adv-x="1075" 
d="M385 1664v160l332 -185v-69zM885 1500h132l-174 -1500h-148l-147 1283l-173 -1283h-142l-176 1500h137l90 -887l24 -311h12l30 312l126 886h127l137 -854l40 -344h10l20 346z" />
    <glyph glyph-name="Wacute" unicode="&#x1e82;" horiz-adv-x="1338" 
d="M1127 1760h141l-213 -1760h-147l-218 1448l-234 -1448h-137l-249 1760h146l184 -1438l220 1438h124l235 -1438zM518 1963l398 158v-144l-398 -83v69z" />
    <glyph glyph-name="wacute" unicode="&#x1e83;" horiz-adv-x="1075" 
d="M885 1500h132l-174 -1500h-148l-147 1283l-173 -1283h-142l-176 1500h137l90 -887l24 -311h12l30 312l126 886h127l137 -854l40 -344h10l20 346zM373 1703l398 158v-144l-398 -83v69z" />
    <glyph glyph-name="Wdieresis" unicode="&#x1e84;" horiz-adv-x="1338" 
d="M1127 1760h141l-213 -1760h-147l-218 1448l-234 -1448h-137l-249 1760h146l184 -1438l220 1438h124l235 -1438zM359 2005h182v-133h-182v133zM789 2005h182v-133h-182v133z" />
    <glyph glyph-name="wdieresis" unicode="&#x1e85;" horiz-adv-x="1075" 
d="M885 1500h132l-174 -1500h-148l-147 1283l-173 -1283h-142l-176 1500h137l90 -887l24 -311h12l30 312l126 886h127l137 -854l40 -344h10l20 346zM214 1745h182v-133h-182v133zM644 1745h182v-133h-182v133z" />
    <glyph glyph-name="Ygrave" unicode="&#x1ef2;" horiz-adv-x="802" 
d="M247 1924v160l332 -185v-69zM624 1760h154l-287 -987v-773h-149v772l-318 988h150l241 -778h3z" />
    <glyph glyph-name="ygrave" unicode="&#x1ef3;" horiz-adv-x="733" 
d="M215 1664v160l332 -185v-69zM541 1500l149 0.00195312l-239 -1497c-15.333 -102.667 -33 -166.334 -53 -191.001s-42.5 -39.167 -67.5 -43.5s-50.5 -6.5 -76.5 -6.5h-124v128h55c71.333 0 112.333 3.66699 123 11c9.33301 9.33301 14 22.666 14 39.999s-1 32 -3 44
s-4.66699 29.667 -8 53l-250 1462h150l119 -793l48 -408h13l43 408z" />
    <glyph glyph-name="endash" unicode="&#x2013;" horiz-adv-x="756" 
d="M120 741h516v-115h-516v115z" />
    <glyph glyph-name="emdash" unicode="&#x2014;" horiz-adv-x="1153" 
d="M100 741h952v-115h-952v115z" />
    <glyph glyph-name="quoteleft" unicode="&#x2018;" horiz-adv-x="597" 
d="M281 1783h106l-91 -417h142v-202h-271v193z" />
    <glyph glyph-name="quoteright" unicode="&#x2019;" horiz-adv-x="597" 
d="M189 1783h271v-193l-114 -426h-106l91 417h-142v202z" />
    <glyph glyph-name="quotesinglbase" unicode="&#x201a;" horiz-adv-x="484" 
d="M113 207h275v-198l-119 -446h-103l93 437h-146v207z" />
    <glyph glyph-name="quotedblleft" unicode="&#x201c;" horiz-adv-x="1030" 
d="M295 1783h104l-94 -428h146v-206h-275v197zM742 1783h103l-93 -428h146v-206h-275v197z" />
    <glyph glyph-name="quotedblright" unicode="&#x201d;" horiz-adv-x="1077" 
d="M191 1783h275v-197l-120 -437h-103l94 428h-146v206zM638 1783h275v-197l-120 -437h-103l93 428h-145v206z" />
    <glyph glyph-name="quotedblbase" unicode="&#x201e;" horiz-adv-x="1016" 
d="M181 206h275v-197l-120 -437h-103l94 428h-146v206zM628 206h275v-197l-120 -437h-103l94 428h-146v206z" />
    <glyph glyph-name="dagger" unicode="&#x2020;" horiz-adv-x="909" 
d="M382 1592h148v-410h288v-116h-288v-1066h-148v1066h-291v116h291v410z" />
    <glyph glyph-name="daggerdbl" unicode="&#x2021;" horiz-adv-x="927" 
d="M818 1066h-288v-454h288v-116h-288v-496h-148v496h-291v116h291v454h-291v116h291v410h148v-410h288v-116z" />
    <glyph glyph-name="bullet" unicode="&#x2022;" horiz-adv-x="861" 
d="M227 741v2c0 150.667 67.667 226 203 226c136 0 204 -76 204 -228s-68 -228 -204 -228c-135.333 0 -203 75.333 -203 226v2z" />
    <glyph glyph-name="perthousand" unicode="&#x2030;" horiz-adv-x="3206" 
d="M2653 835c0 82 -9.5 137.5 -28.5 166.5s-55 43.5 -108 43.5s-89.167 -14.5 -108.5 -43.5s-29 -84.5 -29 -166.5v-500c0 -85.333 9.5 -143 28.5 -173s55.167 -45 108.5 -45s89.5 15 108.5 45s28.5 87.667 28.5 173v500zM2232 763c0 195.333 29.333 317.001 88 365.001
c42.667 34.667 108 52 196 52s153.333 -17.333 196 -52c58.667 -48.667 88 -170.334 88 -365.001v-352c0 -87.333 -4.16699 -157.833 -12.5 -211.5s-23.666 -97.334 -46 -131.001c-22.333 -33.667 -51.166 -56.834 -86.5 -69.501c-35.333 -12.667 -81.666 -19 -139 -19
c-57.333 0 -103.666 6.33301 -139 19c-35.333 12.667 -64.166 35.834 -86.5 69.501c-22.333 33.667 -37.666 77.334 -46 131.001c-8.33301 53.667 -12.5 124.167 -12.5 211.5v352zM1845 835.001c0 82 -9.66699 137.5 -29 166.5s-55.5 43.5 -108.5 43.5s-89 -14.5 -108 -43.5
s-28.5 -84.5 -28.5 -166.5v-500c0 -85.333 9.5 -143 28.5 -173s55.167 -45 108.5 -45s89.5 15 108.5 45s28.5 87.667 28.5 173v500zM1424 763.001c0 195.333 29.3271 317.001 87.9941 365.001c42.667 34.667 108 52 196 52s153.333 -17.333 196 -52
c58.667 -48.667 88 -170.334 88 -365.001v-352c0 -87.333 -4.16699 -157.833 -12.5 -211.5s-23.666 -97.334 -45.999 -131.001s-51.166 -56.834 -86.499 -69.501s-81.666 -19 -138.999 -19s-103.666 6.33301 -138.999 19s-64.166 35.834 -86.499 69.501
s-37.666 77.334 -45.999 131.001s-12.5 124.167 -12.5 211.5v352zM179.994 1364c0 196 29.3301 318 87.9971 366c42.667 34.667 107.834 52 195.501 52s153.167 -17.333 196.5 -52c59.333 -48 89 -170 89 -366v-352c0 -87.333 -4.16699 -157.833 -12.5 -211.5
s-23.833 -97.334 -46.5 -131.001s-51.5 -56.834 -86.5 -69.501s-81.333 -19 -139 -19s-104.167 6.33301 -139.5 19s-64.166 35.834 -86.499 69.501s-37.666 77.334 -45.999 131.001s-12.5 124.167 -12.5 211.5v352zM600.991 1436c0 82 -9.5 137.5 -28.5 166.5
s-55 43.5 -108 43.5s-89.167 -14.5 -108.5 -43.5s-29 -84.5 -29 -166.5v-500c0 -85.333 9.5 -143 28.5 -173s55.167 -45 108.5 -45s89.5 15 108.5 45s28.5 87.667 28.5 173v500zM1371.99 1760h140l-722 -1760h-148z" />
    <glyph glyph-name="guilsinglleft" unicode="&#x2039;" horiz-adv-x="606" 
d="M82 794l466 271v-150l-312 -166l312 -175v-160l-466 285v95z" />
    <glyph glyph-name="guilsinglright" unicode="&#x203a;" horiz-adv-x="727" 
d="M166 915v150l466 -271v-95l-466 -285v160l312 175z" />
    <glyph glyph-name="fraction" unicode="&#x2044;" horiz-adv-x="829" 
d="M536 1768h137l-442 -1768h-137z" />
    <glyph glyph-name="uni2074" unicode="&#x2074;" horiz-adv-x="857" 
d="M489 873v660l-179 -660h179zM495 1760h85v-887h108v-78h-108v-241h-91v241h-265v67z" />
    <glyph glyph-name="Euro" unicode="&#x20ac;" horiz-adv-x="1076" 
d="M134 1251c0 213.333 26.832 355.168 80.499 425.501s130 105.5 229 105.5s169.833 -24.333 212.5 -73c30.667 -35.333 50.667 -70.333 60 -105c22 -81.333 33 -203 33 -365v-152h-151v170c0 148 -8 247 -24 297s-38.667 81.667 -68 95c-16 7.33301 -34.333 11 -55 11
c-63.333 0 -107.166 -32.333 -131.499 -97s-36.5 -166.334 -36.5 -305.001v-182h225v-90h-225v-137h225v-98h-225v-199c0 -170 10.667 -287.5 32 -352.5s64 -97.5 128 -97.5s105.833 32.333 125.5 97s29.5 182 29.5 352v141h150v-140c0 -154 -8.66699 -264.833 -26 -332.5
s-37 -116.167 -59 -145.5c-46.667 -62.667 -119 -94 -217 -94s-171.667 31 -221 93c-60.667 76 -91 235 -91 477v201h-111v98h111v137h-111v90h111v175z" />
    <glyph glyph-name="trademark" unicode="&#x2122;" horiz-adv-x="1407" 
d="M123 1761h369v-87h-123v-1227h-109v1227h-137v87zM1143 1761h131v-1314h-95v558l16 520l-182 -1078h-114l-189 1078l17 -520v-558h-96v1314h132l193 -1199z" />
    <glyph glyph-name="partialdiff" unicode="&#x2202;" horiz-adv-x="961" 
d="M687 919c-70.667 27.333 -125.169 41 -163.502 41s-76.166 -16 -113.499 -48s-67.333 -73.667 -90 -125c-49.333 -109.333 -74 -226.833 -74 -352.5s24.667 -216.5 74 -272.5c25.333 -30 59.333 -45 102 -45s84.334 26.333 125.001 79s67 127 79 223zM367.998 1055
c46.667 25.333 94.833 37.9971 144.5 37.9971s115.167 -15.333 196.5 -46c8 101.333 12 184.333 12 249s-14.333 122.334 -43 173.001s-82.667 76 -162 76s-176.333 -20 -291 -60l-24 122c138 44 251.667 66 341 66c116 0 199.5 -36.333 250.5 -109s76.5 -185 76.5 -337
c0 -82 -7.33301 -182.667 -22 -302l-64 -508c-17.333 -144 -61 -252.333 -131 -325s-147 -109 -231 -109c-132 0 -227.667 64.667 -287 194c-34.667 76 -52 154.833 -52 236.5s6.33301 153.334 19 215.001s31.5 120.334 56.5 176.001s54.667 105 89 148
s74.833 77.167 121.5 102.5z" />
    <glyph glyph-name="product" unicode="&#x220f;" horiz-adv-x="933" 
d="M155 1760h623v-1760h-150v1649h-323v-1649h-150v1760z" />
    <glyph glyph-name="summation" unicode="&#x2211;" horiz-adv-x="681" 
d="M102 1761h451v-130h-288l240 -751l-240 -735h288v-145h-451v141l235 740l-235 724v156z" />
    <glyph glyph-name="minus" unicode="&#x2212;" horiz-adv-x="637" 
d="M20 741h596v-115h-596v115z" />
    <glyph glyph-name="uni2215" unicode="&#x2215;" horiz-adv-x="829" 
d="M536 1768h137l-442 -1768h-137z" />
    <glyph glyph-name="radical" unicode="&#x221a;" horiz-adv-x="1152" 
d="M669 1500h453v-133h-314l-274 -1367h-154l-291 741h169l184 -523z" />
    <glyph glyph-name="infinity" unicode="&#x221e;" horiz-adv-x="1300" 
d="M1074 740c0 48.667 -15.001 87.834 -45.001 117.501s-66 44.5 -108 44.5s-83.833 -14.833 -125.5 -44.5s-79.167 -68.834 -112.5 -117.501c30.667 -48.667 66.834 -87.834 108.501 -117.501s84.167 -44.5 127.5 -44.5s80 14.833 110 44.5s45 68.834 45 117.501z
M587.999 740c-89.333 93.333 -164 147 -224 161c-40 0 -74.333 -14.667 -103 -44s-43 -68.333 -43 -117s14.333 -87.834 43 -117.501s63 -44.5 103 -44.5s79.667 14.833 119 44.5s74.333 68.834 105 117.501zM638.999 855c44.667 56 91.998 101.001 141.998 135.001
s93.667 51 131 51c86.667 0 156.667 -27.167 210 -81.5s80 -126.833 80 -217.5s-26.667 -163.834 -80 -219.501s-123.333 -83.5 -210 -83.5c-40.667 0 -86 16.167 -136 48.5s-95.667 74.833 -137 127.5c-43.333 -49.333 -89.666 -88.833 -138.999 -118.5
s-92.666 -44.5 -129.999 -44.5c-84.667 0 -152.834 26.667 -204.501 80s-77.5 123.333 -77.5 210s25.833 156 77.5 208s119.834 78 204.501 78c34.667 0 76.5 -15.833 125.5 -47.5s96.833 -73.5 143.5 -125.5z" />
    <glyph glyph-name="integral" unicode="&#x222b;" horiz-adv-x="767" 
d="M316 1539c0 165.333 60.001 248 180.001 248c41.333 0 93.333 -11.667 156 -35v-122c-51.333 16 -91 24 -119 24s-48.333 -10.333 -61 -31s-19 -54.667 -19 -102v-1300c0 -155.333 -67 -233 -201 -233c-38.667 0 -84.334 6.66699 -137.001 20v122
c26.667 -1.33301 45 -2 55 -2c62.667 0 102.667 11 120 33s26 70 26 144v1234z" />
    <glyph glyph-name="approxequal" unicode="&#x2248;" horiz-adv-x="1117" 
d="M989 718c-41.333 -163.333 -109.997 -245 -205.997 -245c0 -3.33301 -8.33301 -5 -25 -5s-79.334 14.167 -188.001 42.5s-180.834 42.5 -216.501 42.5s-66.834 -31 -93.501 -93l-128 75c52.667 124 124 186 214 186c38 0 109.667 -13.167 215 -39.5s167 -39.5 185 -39.5
c44.667 4.66699 78 44 100 118zM989.003 1120c-41.333 -163.333 -109.998 -245 -205.998 -245c-45.333 0 -119.333 13.333 -222 40s-171.834 40 -207.501 40s-66.834 -31 -93.501 -93l-128 75c52 124 123.333 186 214 186c38 0 109.667 -13.167 215 -39.5
s167 -39.5 185 -39.5c44.667 6 78 45.333 100 118z" />
    <glyph glyph-name="notequal" unicode="&#x2260;" horiz-adv-x="884" 
d="M124 733h514v-132h-514v132zM124 1025h514v-133h-514v133zM538 1768h135l-451 -1768h-134z" />
    <glyph glyph-name="lessequal" unicode="&#x2264;" horiz-adv-x="781" 
d="M93 111h549v-111h-549v111zM59 813l579 396v-167l-467 -293l467 -310v-160l-579 400v134z" />
    <glyph glyph-name="greaterequal" unicode="&#x2265;" horiz-adv-x="781" 
d="M92 111h549v-111h-549v111zM100 1042v167l579 -396v-134l-579 -400v160l467 310z" />
    <glyph glyph-name="lozenge" unicode="&#x25ca;" horiz-adv-x="921" 
d="M659 883l-194 740h-12l-194 -740l194 -754h12zM367 1762h191l249 -879l-249 -883h-191l-253 883z" />
    <glyph glyph-name="uniF8FF" unicode="&#xf8ff;" horiz-adv-x="327" 
 />
    <glyph glyph-name="ff" unicode="&#xfb00;" horiz-adv-x="1220" 
d="M834 1442v70.002c0 92 16.333 161.167 49 207.5s87.667 69.5 165 69.5c54 0 99 -6 135 -18v-121c-30 4.66699 -63.667 7 -101 7s-63 -9.83301 -77 -29.5s-21 -50.834 -21 -93.501v-92h199v-113h-199v-1329h-150v1329h-460v-1329h-150v1329h-140v113h140v70
c0 92 16.333 161.167 49 207.5s87.667 69.5 165 69.5c54 0 99 -6 135 -18v-121c-30 4.66699 -63.667 7 -101 7s-63 -9.83301 -77 -29.5s-21 -50.834 -21 -93.501v-92h460z" />
    <glyph glyph-name="uniFB01" unicode="&#xfb01;" horiz-adv-x="1084" 
d="M922 0l-150 0.000976562v1388h-398v-1388h-150v1388h-140v113h140v17c0 92 16.333 161.167 49 207.5s87.667 69.5 165 69.5c54 0 99 -6 135 -18v-121c-30 4.66699 -63.667 7 -101 7s-63 -9.83301 -77 -29.5s-21 -50.834 -21 -93.501v-40h548v-1500zM922 1615h-150v185
h150v-185z" />
    <glyph glyph-name="uniFB02" unicode="&#xfb02;" horiz-adv-x="1080" 
d="M920 1744v-1744h-150v1660c-88 20.667 -155.333 31 -202 31s-86 -5 -118 -15s-52.667 -27.333 -62 -52s-14 -52.334 -14 -83.001v-99h199v-113h-199v-1329h-150v1329h-140v113h140v70c0 122.667 23.833 203.167 71.5 241.5s119.667 57.5 216 57.5
s232.5 -22.333 408.5 -67z" />
    <glyph glyph-name="ffi" unicode="&#xfb03;" horiz-adv-x="1694" 
d="M984 1500l548 0.00195312v-1500h-150v1387h-398v-1387h-150v1387h-460v-1387h-150v1387h-140v113h140v19c0 92 16.333 161.167 49 207.5s87.667 69.5 165 69.5c54 0 99 -6 135 -18v-121c-30 4.66699 -63.667 7 -101 7s-63 -9.83301 -77 -29.5s-21 -50.834 -21 -93.501
v-41h460v19c0 92 16.333 161.167 49 207.5s87.667 69.5 165 69.5c54 0 99 -6 135 -18v-121c-30 4.66699 -63.667 7 -101 7s-63 -9.83301 -77 -29.5s-21 -50.834 -21 -93.501v-41zM1382 1800h150v-185h-150v185z" />
    <glyph glyph-name="ffl" unicode="&#xfb04;" horiz-adv-x="1635" 
d="M779 1442v70.002c0 122.667 23.833 203.167 71.5 241.5s119.667 57.5 216 57.5s232.5 -22.333 408.5 -67v-1744h-150v1660c-88 20.667 -155.333 31 -202 31s-86 -5 -118 -15s-52.667 -27.333 -62 -52s-14 -52.334 -14 -83.001v-99h199v-113h-199v-1329h-150v1329h-405
v-1329h-150v1329h-140v113h140v70c0 92 16.333 161.167 49 207.5s87.667 69.5 165 69.5c54 0 99 -6 135 -18v-121c-30 4.66699 -63.667 7 -101 7s-63 -9.83301 -77 -29.5s-21 -50.834 -21 -93.501v-92h405z" />
    <glyph glyph-name=".null" horiz-adv-x="0" 
 />
    <glyph glyph-name="nonmarkingreturn" horiz-adv-x="682" 
 />
    </font>
</defs>
</svg>
